<svg xmlns="http://www.w3.org/2000/svg" width="49.105" height="37.835" viewBox="0 0 49.105 37.835">
  <g id="Outline" transform="translate(-16 -88)">
    <g id="Group_674" data-name="Group 674" transform="translate(16 88)">
      <path id="Path_499" data-name="Path 499" d="M64.286,92.092a.818.818,0,0,0-.818.818v29.463H59.024a69.633,69.633,0,0,0-15.648,1.783,1.63,1.63,0,0,1-1.719-.683,18.6,18.6,0,0,1,9.707-2.737h9.648a.818.818,0,0,0,.818-.818v-5.729a.818.818,0,1,0-1.637,0v4.91h-8.83a20.238,20.238,0,0,0-9.994,2.629V99.458a.818.818,0,0,0-1.637,0v22.27A20.235,20.235,0,0,0,29.74,119.1H20.91V89.637h12.6a6.224,6.224,0,0,1,6.22,6.224.818.818,0,0,0,1.637,0,6.224,6.224,0,0,1,6.22-6.224h12.6v21.279a.818.818,0,0,0,1.637,0v-22.1A.818.818,0,0,0,61.013,88H47.591a7.867,7.867,0,0,0-7.038,4.364A7.867,7.867,0,0,0,33.514,88H20.092a.818.818,0,0,0-.818.818v31.1a.818.818,0,0,0,.818.818H29.74a18.6,18.6,0,0,1,9.709,2.737,1.637,1.637,0,0,1-1.719.683,69.624,69.624,0,0,0-15.65-1.783H17.637V92.91a.818.818,0,0,0-1.637,0v30.281a.818.818,0,0,0,.818.818h5.262a68.023,68.023,0,0,1,15.28,1.741,3.257,3.257,0,0,0,3.192-1.038,3.256,3.256,0,0,0,3.192,1.038,68.047,68.047,0,0,1,15.28-1.741h5.262a.818.818,0,0,0,.818-.818V92.91A.818.818,0,0,0,64.286,92.092Z" transform="translate(-16 -88)" fill="#8e1a1d"/>
      <path id="Path_500" data-name="Path 500" d="M102.5,145.32A7.84,7.84,0,0,0,98.148,144h-9.33a.818.818,0,1,0,0,1.637h9.33a6.2,6.2,0,0,1,3.452,1.045.819.819,0,0,0,.908-1.362Z" transform="translate(-80.634 -138.271)" fill="#8e1a1d"/>
      <path id="Path_501" data-name="Path 501" d="M292.669,144h-9.33a7.842,7.842,0,0,0-4.361,1.32.819.819,0,1,0,.908,1.362,6.2,6.2,0,0,1,3.452-1.045h9.33a.818.818,0,0,0,0-1.637Z" transform="translate(-251.748 -138.271)" fill="#8e1a1d"/>
      <path id="Path_502" data-name="Path 502" d="M102.5,185.32A7.84,7.84,0,0,0,98.148,184h-9.33a.818.818,0,0,0,0,1.637h9.33a6.2,6.2,0,0,1,3.452,1.045.819.819,0,0,0,.908-1.362Z" transform="translate(-80.634 -174.179)" fill="#8e1a1d"/>
      <path id="Path_503" data-name="Path 503" d="M292.669,184h-9.33a7.841,7.841,0,0,0-4.361,1.32.819.819,0,1,0,.908,1.362h0a6.2,6.2,0,0,1,3.452-1.045h9.33a.818.818,0,1,0,0-1.637Z" transform="translate(-251.748 -174.179)" fill="#8e1a1d"/>
      <path id="Path_504" data-name="Path 504" d="M102.5,225.32A7.84,7.84,0,0,0,98.148,224h-9.33a.818.818,0,0,0,0,1.637h9.33a6.2,6.2,0,0,1,3.452,1.045.819.819,0,0,0,.908-1.362h0Z" transform="translate(-80.634 -210.087)" fill="#8e1a1d"/>
      <path id="Path_505" data-name="Path 505" d="M292.669,224h-9.33a7.842,7.842,0,0,0-4.361,1.32.819.819,0,1,0,.908,1.362h0a6.2,6.2,0,0,1,3.452-1.045h9.33a.818.818,0,0,0,0-1.637Z" transform="translate(-251.748 -210.087)" fill="#8e1a1d"/>
      <path id="Path_506" data-name="Path 506" d="M102.5,265.32A7.84,7.84,0,0,0,98.148,264h-9.33a.818.818,0,0,0,0,1.637h9.33a6.2,6.2,0,0,1,3.452,1.045.819.819,0,0,0,.908-1.362Z" transform="translate(-80.634 -245.995)" fill="#8e1a1d"/>
      <path id="Path_507" data-name="Path 507" d="M292.669,264h-9.33a7.841,7.841,0,0,0-4.361,1.32.819.819,0,1,0,.908,1.362,6.2,6.2,0,0,1,3.452-1.045h9.33a.818.818,0,1,0,0-1.637Z" transform="translate(-251.748 -245.995)" fill="#8e1a1d"/>
      <path id="Path_508" data-name="Path 508" d="M102.5,305.32A7.84,7.84,0,0,0,98.148,304h-9.33a.818.818,0,0,0,0,1.637h9.33a6.2,6.2,0,0,1,3.452,1.045.819.819,0,1,0,.908-1.362h0Z" transform="translate(-80.634 -281.903)" fill="#8e1a1d"/>
      <path id="Path_509" data-name="Path 509" d="M292.669,304h-9.33a7.842,7.842,0,0,0-4.361,1.32.819.819,0,1,0,.908,1.362,6.2,6.2,0,0,1,3.452-1.045h9.33a.818.818,0,0,0,0-1.637Z" transform="translate(-251.748 -281.903)" fill="#8e1a1d"/>
      <path id="Path_510" data-name="Path 510" d="M98.148,344h-9.33a.818.818,0,1,0,0,1.637h9.33a6.2,6.2,0,0,1,3.452,1.045.819.819,0,0,0,.908-1.362h0A7.84,7.84,0,0,0,98.148,344Z" transform="translate(-80.634 -317.811)" fill="#8e1a1d"/>
      <path id="Path_511" data-name="Path 511" d="M292.669,344h-9.33a7.841,7.841,0,0,0-4.361,1.32.819.819,0,1,0,.908,1.362h0a6.2,6.2,0,0,1,3.452-1.045h9.33a.818.818,0,1,0,0-1.637Z" transform="translate(-251.748 -317.811)" fill="#8e1a1d"/>
    </g>
  </g>
</svg>
