<svg id="Group_171" data-name="Group 171" xmlns="http://www.w3.org/2000/svg" width="13.342" height="13.341" viewBox="0 0 13.342 13.341">
  <g id="Group_142" data-name="Group 142">
    <g id="Group_141" data-name="Group 141">
      <path id="Path_408" data-name="Path 408" d="M11.778,1.042h-.625V0H10.11V1.042H3.231V0H2.189V1.042H1.563A1.565,1.565,0,0,0,0,2.606v9.172a1.565,1.565,0,0,0,1.563,1.563H11.778a1.565,1.565,0,0,0,1.563-1.563V2.606A1.565,1.565,0,0,0,11.778,1.042ZM12.3,11.778a.522.522,0,0,1-.521.521H1.563a.522.522,0,0,1-.521-.521V4.9H12.3Zm0-7.922H1.042V2.606a.522.522,0,0,1,.521-.521h.625V3.127H3.231V2.085H10.11V3.127h1.042V2.085h.625a.522.522,0,0,1,.521.521Z"/>
    </g>
  </g>
  <g id="Group_144" data-name="Group 144" transform="translate(2.212 6.636)">
    <g id="Group_143" data-name="Group 143" transform="translate(0 0)">
      <rect id="Rectangle_494" data-name="Rectangle 494" width="1" transform="translate(-0.475 0.418)"/>
    </g>
  </g>
  <g id="Group_146" data-name="Group 146" transform="translate(3.982 6.636)">
    <g id="Group_145" data-name="Group 145" transform="translate(0 0)">
      <rect id="Rectangle_495" data-name="Rectangle 495" width="1" transform="translate(-0.245 0.418)"/>
    </g>
  </g>
  <g id="Group_148" data-name="Group 148" transform="translate(6.636 6.636)">
    <g id="Group_147" data-name="Group 147" transform="translate(0 0)">
      <rect id="Rectangle_496" data-name="Rectangle 496" width="1" transform="translate(0.101 0.418)"/>
    </g>
  </g>
  <g id="Group_150" data-name="Group 150" transform="translate(8.406 6.636)">
    <g id="Group_149" data-name="Group 149" transform="translate(0 0)">
      <rect id="Rectangle_497" data-name="Rectangle 497" width="1" transform="translate(0.331 0.418)"/>
    </g>
  </g>
  <g id="Group_152" data-name="Group 152" transform="translate(10.175 6.636)">
    <g id="Group_151" data-name="Group 151" transform="translate(0 0)">
      <rect id="Rectangle_498" data-name="Rectangle 498" width="1" transform="translate(-0.439 0.418)"/>
    </g>
  </g>
  <g id="Group_154" data-name="Group 154" transform="translate(2.212 8.406)">
    <g id="Group_153" data-name="Group 153" transform="translate(0 0)">
      <rect id="Rectangle_499" data-name="Rectangle 499" width="1" height="1" transform="translate(-0.475 -0.352)"/>
    </g>
  </g>
  <g id="Group_156" data-name="Group 156" transform="translate(3.982 8.406)">
    <g id="Group_155" data-name="Group 155" transform="translate(0 0)">
      <rect id="Rectangle_500" data-name="Rectangle 500" width="1" height="1" transform="translate(-0.245 -0.352)"/>
    </g>
  </g>
  <g id="Group_158" data-name="Group 158" transform="translate(6.636 8.406)">
    <g id="Group_157" data-name="Group 157" transform="translate(0 0)">
      <rect id="Rectangle_501" data-name="Rectangle 501" width="1" height="1" transform="translate(0.101 -0.352)"/>
    </g>
  </g>
  <g id="Group_160" data-name="Group 160" transform="translate(8.406 8.406)">
    <g id="Group_159" data-name="Group 159" transform="translate(0 0)">
      <rect id="Rectangle_502" data-name="Rectangle 502" width="1" height="1" transform="translate(0.331 -0.352)"/>
    </g>
  </g>
  <g id="Group_162" data-name="Group 162" transform="translate(2.212 10.175)">
    <g id="Group_161" data-name="Group 161" transform="translate(0 0)">
      <rect id="Rectangle_503" data-name="Rectangle 503" width="1" height="1" transform="translate(-0.475 -0.122)"/>
    </g>
  </g>
  <g id="Group_164" data-name="Group 164" transform="translate(3.982 10.175)">
    <g id="Group_163" data-name="Group 163" transform="translate(0 0)">
      <rect id="Rectangle_504" data-name="Rectangle 504" width="1" height="1" transform="translate(-0.245 -0.122)"/>
    </g>
  </g>
  <g id="Group_166" data-name="Group 166" transform="translate(6.636 10.175)">
    <g id="Group_165" data-name="Group 165" transform="translate(0 0)">
      <rect id="Rectangle_505" data-name="Rectangle 505" width="1" height="1" transform="translate(0.101 -0.122)"/>
    </g>
  </g>
  <g id="Group_168" data-name="Group 168" transform="translate(8.406 10.175)">
    <g id="Group_167" data-name="Group 167" transform="translate(0 0)">
      <rect id="Rectangle_506" data-name="Rectangle 506" width="1" height="1" transform="translate(0.331 -0.122)"/>
    </g>
  </g>
  <g id="Group_170" data-name="Group 170" transform="translate(10.175 8.406)">
    <g id="Group_169" data-name="Group 169" transform="translate(0 0)">
      <rect id="Rectangle_507" data-name="Rectangle 507" width="1" height="1" transform="translate(-0.439 -0.352)"/>
    </g>
  </g>
</svg>
