<svg xmlns="http://www.w3.org/2000/svg" width="25" height="25" viewBox="0 0 25 25">
  <g id="Contact-3" transform="translate(-16 -16)">
    <path id="Path_380" data-name="Path 380" d="M199.917,16C195.551,16,192,18.8,192,22.25c0,2.364,1.7,4.521,4.352,5.578l-.592,2.667a.417.417,0,0,0,.657.422l3.234-2.425c.088,0,.177.009.266.009,4.365,0,7.917-2.8,7.917-6.25S204.282,16,199.917,16Zm0,11.667c-.083,0-.167,0-.246-.009l-.133-.006a.433.433,0,0,0-.267.083l-2.453,1.84.427-1.919a.417.417,0,0,0-.269-.484c-2.517-.884-4.142-2.815-4.142-4.922,0-2.987,3.177-5.417,7.083-5.417S207,19.263,207,22.25,203.822,27.667,199.917,27.667Z" transform="translate(-166.833)" fill="#fff"/>
    <rect id="Rectangle_479" data-name="Rectangle 479" width="10" height="1" transform="translate(28 22)" fill="#fff"/>
    <rect id="Rectangle_480" data-name="Rectangle 480" width="10" height="1" transform="translate(28 20)" fill="#fff"/>
    <rect id="Rectangle_481" data-name="Rectangle 481" width="10" height="1" transform="translate(28 24)" fill="#fff"/>
    <path id="Path_381" data-name="Path 381" d="M26.351,186.76l-2.435-.662V185.6A3.75,3.75,0,0,0,26,182.25v-.417a.417.417,0,0,0,.417-.417v-1.25a4.167,4.167,0,1,0-8.333,0v1.25a.417.417,0,0,0,.417.417v.417a3.75,3.75,0,0,0,2.083,3.354v.494l-2.436.663A2.929,2.929,0,0,0,16,189.575v2.675a.417.417,0,0,0,.417.417H28.083a.417.417,0,0,0,.417-.417v-2.675A2.93,2.93,0,0,0,26.351,186.76Zm-6.6.428.583-.158,1.5,1.25v1.053h.833v-1.055l1.5-1.25.583.158v.722l-2.5,2.5-2.5-2.5Zm-.833-7.022a3.333,3.333,0,1,1,6.667,0v.813a2.07,2.07,0,0,1-1.568-1.131l-.142-.285a.417.417,0,0,0-.667-.108l-.691.69a2.9,2.9,0,0,1-2.062.854H18.917Zm.417,2.083v-.417h1.12a3.724,3.724,0,0,0,2.651-1.1l.292-.292a2.893,2.893,0,0,0,1.771,1.3v.505a2.917,2.917,0,0,1-5.833,0ZM22.25,186a3.739,3.739,0,0,0,.833-.1v.513a.412.412,0,0,0,.145.31l-.979.815-.979-.815a.412.412,0,0,0,.145-.31V185.9A3.739,3.739,0,0,0,22.25,186Zm5.417,5.833H16.833v-2.258a2.093,2.093,0,0,1,1.535-2.01l.549-.148v.667a.417.417,0,0,0,.122.295l2.917,2.917a.417.417,0,0,0,.589,0l2.917-2.917a.417.417,0,0,0,.122-.295v-.667l.548.149a2.094,2.094,0,0,1,1.536,2.009Z" transform="translate(0 -151.667)" fill="#fff"/>
    <path id="Path_382" data-name="Path 382" d="M107.333,304H106.5a.833.833,0,1,1-1.667,0H104a1.667,1.667,0,0,0,3.333,0Z" transform="translate(-83.417 -273)" fill="#fff"/>
  </g>
</svg>
