<svg xmlns="http://www.w3.org/2000/svg" width="19.363" height="19.363" viewBox="0 0 19.363 19.363">
  <g id="Group_768" data-name="Group 768" transform="translate(-1296 31.673)">
    <g id="Group_106" data-name="Group 106" transform="translate(62.682 -83)">
      <g id="Group_103" data-name="Group 103" transform="translate(1233.318 51.327)">
        <g id="Group_96" data-name="Group 96" transform="translate(7.265)">
          <g id="Group_95" data-name="Group 95">
            <path id="Path_376" data-name="Path 376" d="M198.148,11.295a.406.406,0,0,1-.3-.13l-4.816-5.228a3.687,3.687,0,0,1,0-4.9,3.087,3.087,0,0,1,4.608,0l.506.549.506-.549a3.087,3.087,0,0,1,4.607,0,3.687,3.687,0,0,1,0,4.9l-4.816,5.228a.4.4,0,0,1-.3.131ZM195.339.807a2.312,2.312,0,0,0-1.71.772,2.864,2.864,0,0,0,0,3.811l4.52,4.906,4.52-4.906a2.864,2.864,0,0,0,0-3.811,2.33,2.33,0,0,0-3.419,0l-.8.871a.417.417,0,0,1-.594,0l-.8-.871a2.32,2.32,0,0,0-1.711-.772Z" transform="translate(-192.101 0)" fill="#fff"/>
          </g>
        </g>
        <g id="Group_98" data-name="Group 98" transform="translate(0 9.681)">
          <g id="Group_97" data-name="Group 97">
            <path id="Path_377" data-name="Path 377" d="M2.824,264.068H.4a.4.4,0,0,1-.4-.4V256.4a.4.4,0,0,1,.4-.4,8.2,8.2,0,0,1,4.254.964.4.4,0,0,1,.17.437l-1.614,6.362A.4.4,0,0,1,2.824,264.068Zm-2.017-.807h1.7l1.459-5.752a8.07,8.07,0,0,0-3.162-.695Z" transform="translate(0 -256)" fill="#fff"/>
          </g>
        </g>
        <g id="Group_100" data-name="Group 100" transform="translate(2.646 14.119)">
          <g id="Group_99" data-name="Group 99">
            <path id="Path_378" data-name="Path 378" d="M77.815,378.577c-1.9,0-5.585-1.6-7.61-2.556a.4.4,0,1,1,.344-.729c1.581.745,5.455,2.478,7.267,2.478,1.963,0,6.587-2.3,7.918-2.99a1.739,1.739,0,0,0-1.464-.641,9.7,9.7,0,0,0-2.6.587,10.24,10.24,0,0,1-2.844.624,14.272,14.272,0,0,1-3.97-.831.4.4,0,1,1,.276-.758,13.7,13.7,0,0,0,3.694.783,9.7,9.7,0,0,0,2.6-.586,10.238,10.238,0,0,1,2.844-.624,2.4,2.4,0,0,1,2.4,1.486.405.405,0,0,1-.193.484C86.226,375.435,80.308,378.577,77.815,378.577Z" transform="translate(-69.973 -373.333)" fill="#fff"/>
          </g>
        </g>
        <g id="Group_102" data-name="Group 102" transform="translate(3.889 11.151)">
          <g id="Group_101" data-name="Group 101">
            <path id="Path_379" data-name="Path 379" d="M112.247,299.517a.4.4,0,0,1-.4-.4v-.4a1.194,1.194,0,0,0-.923-1.171l-7.788-1.881a.4.4,0,0,1,.19-.785l7.785,1.88a2,2,0,0,1,1.543,1.957v.4A.4.4,0,0,1,112.247,299.517Z" transform="translate(-102.823 -294.864)" fill="#fff"/>
          </g>
        </g>
      </g>
    </g>
    <g id="Group_108" data-name="Group 108" transform="translate(1303.265 -31.673)">
      <g id="Group_95-2" data-name="Group 95">
        <path id="Path_376-2" data-name="Path 376" d="M195.339.807a2.312,2.312,0,0,0-1.71.772,2.864,2.864,0,0,0,0,3.811l4.52,4.906,4.52-4.906a2.864,2.864,0,0,0,0-3.811,2.33,2.33,0,0,0-3.419,0l-.8.871a.417.417,0,0,1-.594,0l-.8-.871a2.32,2.32,0,0,0-1.711-.772Z" transform="translate(-192.101 0)" fill="#8e1a1d"/>
      </g>
    </g>
  </g>
</svg>
