<svg xmlns="http://www.w3.org/2000/svg" width="60" height="60" viewBox="0 0 60 60">
  <g id="Group_770" data-name="Group 770" transform="translate(-1433 -4992)">
    <circle id="Ellipse_31" data-name="Ellipse 31" cx="30" cy="30" r="30" transform="translate(1433 4992)" fill="rgba(142,26,29,0.15)"/>
    <g id="Group_732" data-name="Group 732" transform="translate(-2586.459 4819.045)">
      <g id="Group_731" data-name="Group 731" transform="translate(4030.05 204.362)">
        <g id="Group_730" data-name="Group 730" transform="translate(0)">
          <g id="Group_728" data-name="Group 728" transform="translate(21.112)">
            <path id="Path_578" data-name="Path 578" d="M4426.065,661.425a.536.536,0,0,1-.519-.4,10.826,10.826,0,0,1-.36-3.062.534.534,0,0,1,1.068.048,9.724,9.724,0,0,0,.33,2.755.535.535,0,0,1-.519.664Z" transform="translate(-4425.178 -652.009)"/>
            <path id="Path_579" data-name="Path 579" d="M4673.278,666.664a.531.531,0,0,1-.316-.1,7.217,7.217,0,0,1-1.031-.9.535.535,0,0,1,.8-.711h0a6.207,6.207,0,0,0,.867.749.534.534,0,0,1-.318.964Z" transform="translate(-4658.619 -658.943)"/>
            <path id="Path_580" data-name="Path 580" d="M4429.365,714.653a1.7,1.7,0,0,1-.306-.028,1.642,1.642,0,0,1-1.061-.687l-2.054-3a1.937,1.937,0,0,1,.243-2.555l.177-.122a1.922,1.922,0,0,1,2.459.675l2.073,3a1.655,1.655,0,0,1-.425,2.3l-.178.122A1.634,1.634,0,0,1,4429.365,714.653Zm-2.4-5.507-.177.122c-.188.129-.2.726.033,1.069l2.054,3a.586.586,0,0,0,.81.15l.177-.122a.588.588,0,0,0,.15-.81l-2.073-3c-.215-.313-.771-.54-.974-.4Z" transform="translate(-4425.561 -699.898)"/>
            <path id="Path_581" data-name="Path 581" d="M4617.106,654.116h-.068l-.257-.009a1.874,1.874,0,0,1-1.8-1.939l.146-4.414a2.44,2.44,0,0,1,.563-1.409,1.813,1.813,0,0,1,1.4-.707l.256.009a1.781,1.781,0,0,1,1.334.752,2.259,2.259,0,0,1,.462,1.412l-.164,4.5A1.876,1.876,0,0,1,4617.106,654.116Zm-.068-7.413a.763.763,0,0,0-.528.321,1.355,1.355,0,0,0-.318.765l-.146,4.414a.806.806,0,0,0,.774.834l.257.009a.8.8,0,0,0,.833-.775l.164-4.5a1.212,1.212,0,0,0-.248-.73.73.73,0,0,0-.52-.327l-.257-.009Z" transform="translate(-4604.836 -640.828)"/>
            <path id="Path_582" data-name="Path 582" d="M4552.563,676.768a1.756,1.756,0,0,1-1.721-1.422l-.727-3.982a2.249,2.249,0,0,1,.192-1.364,1.588,1.588,0,0,1,1.116-.93l.229-.044a1.666,1.666,0,0,1,1.407.461,2.292,2.292,0,0,1,.721,1.22l.733,3.937a1.755,1.755,0,0,1-1.392,2.047l-.229.044A1.743,1.743,0,0,1,4552.563,676.768Zm-.656-6.7a.278.278,0,0,0-.054,0h0l-.229.044c-.187.036-.31.253-.354.344a1.2,1.2,0,0,0-.1.7l.728,3.982a.686.686,0,0,0,.8.538l.229-.044a.687.687,0,0,0,.542-.8l-.733-3.937C4552.653,670.509,4552.212,670.071,4551.907,670.071Zm-.155-.52h0Z" transform="translate(-4543.407 -662.947)"/>
            <path id="Path_583" data-name="Path 583" d="M4489.627,695.713a1.756,1.756,0,0,1-1.64-1.128l-1.481-3.913a1.859,1.859,0,0,1,.965-2.368l.219-.083a1.639,1.639,0,0,1,1.453.21,2.259,2.259,0,0,1,.9,1.072l1.437,3.752a1.754,1.754,0,0,1-1.014,2.261l-.218.083A1.74,1.74,0,0,1,4489.627,695.713Zm-1.558-6.494-.219.083a.8.8,0,0,0-.346.99l1.481,3.913a.684.684,0,0,0,.881.395l.218-.083a.684.684,0,0,0,.4-.882l-1.437-3.752a1.21,1.21,0,0,0-.473-.55A.609.609,0,0,0,4488.07,689.218Z" transform="translate(-4483.115 -681.054)"/>
            <path id="Path_584" data-name="Path 584" d="M4604.785,565.2a1.254,1.254,0,0,1-.6-.147,3.981,3.981,0,0,1-.949-.815,2.664,2.664,0,0,1,.375-3.328.534.534,0,0,1,.794.715c-.043.048-.969,1.109-.337,1.944a2.946,2.946,0,0,0,.62.542c.119.064.4-.025.682-.314a1.88,1.88,0,0,0,.334-2.21l-.064-.115a5.764,5.764,0,0,0-.937-1.159c-.341-.38-.79-.889-1.4-1.584a5.023,5.023,0,0,0-4.908-1.908.534.534,0,0,1-.195-1.051,6.066,6.066,0,0,1,5.908,2.257c.6.691,1.049,1.2,1.387,1.574a6.47,6.47,0,0,1,1.078,1.357l.057.1a2.954,2.954,0,0,1-.5,3.482A1.95,1.95,0,0,1,4604.785,565.2Z" transform="translate(-4588.55 -555.661)"/>
          </g>
          <g id="Group_729" data-name="Group 729" transform="translate(0 0)">
            <path id="Path_585" data-name="Path 585" d="M4349.33,661.423a.535.535,0,0,1-.52-.664,9.708,9.708,0,0,0,.331-2.755.535.535,0,0,1,.51-.558.541.541,0,0,1,.558.51,10.81,10.81,0,0,1-.361,3.062A.535.535,0,0,1,4349.33,661.423Z" transform="translate(-4331.764 -652.008)"/>
            <path id="Path_586" data-name="Path 586" d="M4091.559,666.681a.534.534,0,0,1-.318-.964,6.364,6.364,0,0,0,.867-.748.534.534,0,0,1,.8.71,7.1,7.1,0,0,1-1.03.9A.53.53,0,0,1,4091.559,666.681Z" transform="translate(-4087.766 -658.961)"/>
            <path id="Path_587" data-name="Path 587" d="M4271.913,714.665a1.643,1.643,0,0,1-.933-.29l-.177-.122a1.654,1.654,0,0,1-.425-2.3l2.074-3.006a1.922,1.922,0,0,1,2.458-.675h0l.177.122a1.519,1.519,0,0,1,.6,1.277,2.256,2.256,0,0,1-.362,1.278l-2.053,2.995A1.653,1.653,0,0,1,4271.913,714.665Zm2.228-5.55a1.146,1.146,0,0,0-.808.442l-2.074,3.006a.586.586,0,0,0,.151.81l.177.122a.583.583,0,0,0,.81-.151l2.054-2.995a1.187,1.187,0,0,0,.174-.654.544.544,0,0,0-.141-.416l-.177-.122A.291.291,0,0,0,4274.14,709.115Z" transform="translate(-4257.263 -699.909)"/>
            <path id="Path_588" data-name="Path 588" d="M4109.66,654.114a1.875,1.875,0,0,1-1.871-1.8l-.165-4.5a2.261,2.261,0,0,1,.461-1.412,1.783,1.783,0,0,1,1.334-.752l.255-.009a1.777,1.777,0,0,1,1.4.707,2.439,2.439,0,0,1,.563,1.408l.146,4.418a1.876,1.876,0,0,1-1.8,1.938l-.255.009Zm.068-7.413h-.013l-.256.009a.728.728,0,0,0-.519.327,1.213,1.213,0,0,0-.248.73l.165,4.5a.783.783,0,0,0,.833.774l.256-.009a.809.809,0,0,0,.775-.833l-.146-4.418a1.356,1.356,0,0,0-.318-.763A.763.763,0,0,0,4109.728,646.7Zm-.288-.524h0Z" transform="translate(-4103.479 -640.826)"/>
            <path id="Path_589" data-name="Path 589" d="M4168.94,676.765a1.758,1.758,0,0,1-.331-.032l-.229-.044a1.754,1.754,0,0,1-1.39-2.05l.732-3.932a2.292,2.292,0,0,1,.721-1.223,1.666,1.666,0,0,1,1.407-.461l.229.044a1.589,1.589,0,0,1,1.117.93,2.255,2.255,0,0,1,.191,1.369l-.726,3.973A1.757,1.757,0,0,1,4168.94,676.765Zm.658-6.7a.734.734,0,0,0-.443.213,1.227,1.227,0,0,0-.383.625l-.732,3.932a.686.686,0,0,0,.542.8l.229.044a.684.684,0,0,0,.8-.542l.726-3.973a1.2,1.2,0,0,0-.1-.708c-.044-.092-.167-.308-.354-.344l-.229-.044A.269.269,0,0,0,4169.6,670.068Z" transform="translate(-4159.644 -662.944)"/>
            <path id="Path_590" data-name="Path 590" d="M4218.653,695.713a1.743,1.743,0,0,1-.621-.115l-.218-.083a1.753,1.753,0,0,1-1.014-2.26l1.437-3.754a2.262,2.262,0,0,1,.9-1.071,1.639,1.639,0,0,1,1.453-.21l.219.084a1.655,1.655,0,0,1,.914.888,1.949,1.949,0,0,1,.051,1.481l-1.48,3.911A1.757,1.757,0,0,1,4218.653,695.713Zm1.444-6.514a.766.766,0,0,0-.389.134,1.209,1.209,0,0,0-.473.549l-1.437,3.754a.684.684,0,0,0,.4.88l.219.084a.684.684,0,0,0,.881-.4l1.48-3.911a.9.9,0,0,0-.026-.664.61.61,0,0,0-.319-.328l-.219-.083A.318.318,0,0,0,4220.1,689.2Z" transform="translate(-4206.713 -681.054)"/>
            <path id="Path_591" data-name="Path 591" d="M4032.267,565.2a1.948,1.948,0,0,1-1.354-.658,2.954,2.954,0,0,1-.5-3.483l.057-.1a6.471,6.471,0,0,1,1.078-1.357c.337-.378.784-.884,1.387-1.575a6.074,6.074,0,0,1,5.85-2.267.534.534,0,0,1-.186,1.052,5.027,5.027,0,0,0-4.858,1.917c-.607.7-1.056,1.2-1.4,1.584a5.737,5.737,0,0,0-.938,1.159l-.064.115a1.88,1.88,0,0,0,.334,2.21c.282.289.563.379.682.314a2.928,2.928,0,0,0,.64-.567c.62-.819-.346-1.906-.356-1.917a.534.534,0,0,1,.793-.716,2.661,2.661,0,0,1,.395,3.3,4,4,0,0,1-.969.84A1.257,1.257,0,0,1,4032.267,565.2Z" transform="translate(-4030.05 -555.665)"/>
          </g>
        </g>
      </g>
      <path id="Path_592" data-name="Path 592" d="M4285.213,195.122a.65.65,0,0,1-.583-.36,5.806,5.806,0,0,0-2.621-2.289,6.143,6.143,0,0,1-.606-.349,5.581,5.581,0,0,1-1.909-2.172l-.04-.076a4.155,4.155,0,0,1-.344-2.285c0-.005,0-.01,0-.016a3.661,3.661,0,0,1,2.181-2.7,3.587,3.587,0,0,1,2.875-.017,2.892,2.892,0,0,1,.974.778,2.824,2.824,0,0,1,.934-.789,3.546,3.546,0,0,1,2.868-.037,3.655,3.655,0,0,1,2.228,2.658,4.165,4.165,0,0,1-.3,2.306c0,.011-.031.062-.036.073a5.6,5.6,0,0,1-1.894,2.222,6.248,6.248,0,0,1-.575.344,5.833,5.833,0,0,0-2.565,2.322.628.628,0,0,1-.527.38Zm-.415-.756h0Zm.772-.11.009.016A.061.061,0,0,0,4285.571,194.256Zm-5.4-6.522a3.067,3.067,0,0,0,.26,1.7,4.589,4.589,0,0,0,1.565,1.8,5.7,5.7,0,0,0,.518.3,2.726,2.726,0,0,0,5.333-.046c.207-.115.385-.214.489-.29a4.567,4.567,0,0,0,1.549-1.831,3.064,3.064,0,0,0,.234-1.724,2.6,2.6,0,0,0-1.526-1.816,2.541,2.541,0,0,0-2.023-.023,1.964,1.964,0,0,0-.9,1.068.534.534,0,0,1-1.021.018,2.041,2.041,0,0,0-.961-1.068,2.644,2.644,0,0,0-3.521,1.915Z" transform="translate(-235.719)"/>
    </g>
  </g>
</svg>
