<svg xmlns="http://www.w3.org/2000/svg" width="29.53" height="32.46" viewBox="0 0 29.53 32.46">
  <g id="surface1" transform="translate(-23)">
    <path id="Path_491" data-name="Path 491" d="M45.122,14.052V7.909a.711.711,0,0,0-.2-.467L38.039.21A.686.686,0,0,0,37.545,0H26.626A3.638,3.638,0,0,0,23,3.66V24.308a3.615,3.615,0,0,0,3.626,3.633h8.619a9.3,9.3,0,1,0,9.877-13.889Zm-6.9-11.677,4.621,4.864h-3a1.634,1.634,0,0,1-1.624-1.63Zm-11.6,24.213a2.267,2.267,0,0,1-2.273-2.28V3.66a2.285,2.285,0,0,1,2.273-2.307H36.869V5.608a2.983,2.983,0,0,0,2.977,2.983h3.924v5.284c-.2-.007-.365-.027-.541-.027a9.44,9.44,0,0,0-6.17,2.327H28.466a.676.676,0,1,0,0,1.353H35.8a10.764,10.764,0,0,0-1.191,2.1H28.466a.677.677,0,1,0,0,1.353h5.7a9.285,9.285,0,0,0,.406,5.615H26.626Zm16.6,4.526a7.949,7.949,0,1,1,7.949-7.949A7.957,7.957,0,0,1,43.221,31.113Z" fill="#8e1a1d"/>
    <path id="Path_492" data-name="Path 492" d="M99.228,203.037h6.853a.677.677,0,1,0,0-1.353H99.228a.677.677,0,1,0,0,1.353Z" transform="translate(-70.761 -188.898)" fill="#8e1a1d"/>
    <path id="Path_493" data-name="Path 493" d="M276.776,288.278l-2.78,3v-7.388a.677.677,0,0,0-1.353,0v7.388l-2.8-3a.683.683,0,0,0-.961-.034.674.674,0,0,0-.034.954l3.958,4.255a.671.671,0,0,0,.988,0l3.965-4.255a.673.673,0,1,0-.981-.92Z" transform="translate(-230.091 -265.256)" fill="#8e1a1d"/>
  </g>
</svg>
