<svg xmlns="http://www.w3.org/2000/svg" width="60" height="60" viewBox="0 0 60 60">
  <g id="Group_768" data-name="Group 768" transform="translate(-529 -4992)">
    <circle id="Ellipse_28" data-name="Ellipse 28" cx="30" cy="30" r="30" transform="translate(529 4992)" fill="rgba(142,26,29,0.15)"/>
    <g id="Group_712" data-name="Group 712" transform="translate(-2279.032 985.059)">
      <path id="Path_542" data-name="Path 542" d="M2821.228,4359.432a.58.58,0,0,1-.532-.348l-1.765-4.051a.579.579,0,1,1,1.063-.463l1.765,4.051a.579.579,0,0,1-.531.811Z" transform="translate(0 -313.208)"/>
      <path id="Path_543" data-name="Path 543" d="M2865.339,4300.576a2.3,2.3,0,0,1-2.1-1.378l-1.278-2.934a2.292,2.292,0,0,1,1.188-3.018l2.4-1.046a.579.579,0,0,1,.463,1.063l-2.4,1.046a1.133,1.133,0,0,0-.587,1.492l1.278,2.934a1.133,1.133,0,0,0,1.493.587l2.817-1.227a.579.579,0,0,1,.463,1.063l-2.818,1.227A2.287,2.287,0,0,1,2865.339,4300.576Z" transform="translate(-40.399 -254.734)"/>
      <path id="Path_544" data-name="Path 544" d="M2914.956,4412.651a.579.579,0,0,1-.48-.254l-2.639-3.881a.579.579,0,0,1,.958-.651l2.317,3.408.874-.58-2.127-3.1a.579.579,0,1,1,.955-.655l2.46,3.584a.579.579,0,0,1-.157.811l-1.842,1.221A.573.573,0,0,1,2914.956,4412.651Z" transform="translate(-87.474 -362.633)"/>
      <path id="Path_545" data-name="Path 545" d="M3287.285,4362.829a.593.593,0,0,1-.1-.008l-2.088-.352a.579.579,0,1,1,.192-1.143l2.089.352a.58.58,0,0,1-.1,1.151Z" transform="translate(-438.75 -319.894)"/>
      <g id="Group_711" data-name="Group 711" transform="translate(2824.429 4027.751)">
        <path id="Path_546" data-name="Path 546" d="M3108.614,4140.915c-.625,0-1.493-.373-2.613-1.685a21.361,21.361,0,0,1-4.339-10.457c-.186-2.313.51-3.1,1.125-3.359,1.883-.781,4.462,2.688,6.049,6.511s2.213,8.1.339,8.88A1.459,1.459,0,0,1,3108.614,4140.915Zm-5.259-14.453a.316.316,0,0,0-.124.022c-.276.114-.523.851-.415,2.2a17.947,17.947,0,0,0,1.38,5.169h0a17.926,17.926,0,0,0,2.686,4.626c.877,1.026,1.576,1.372,1.848,1.257.606-.251.815-3.079-.965-7.365C3106.092,4128.338,3104.091,4126.462,3103.355,4126.462Z" transform="translate(-3090.796 -4125.304)"/>
        <path id="Path_547" data-name="Path 547" d="M3036.548,4201.915c-.631,0-1.335-.484-2.1-1.446a16.744,16.744,0,0,1-2.179-3.876,15.245,15.245,0,0,1-1.148-4.266c-.169-1.872.4-2.518.915-2.729a.579.579,0,0,1,.444,1.07c-.066.027-.31.391-.2,1.556a14.279,14.279,0,0,0,1.065,3.926,15.738,15.738,0,0,0,2.015,3.6c.742.933,1.162,1.029,1.216,1a.579.579,0,1,1,.444,1.07A1.2,1.2,0,0,1,3036.548,4201.915Z" transform="translate(-3024.342 -4185.832)"/>
        <path id="Path_548" data-name="Path 548" d="M2975.962,4252.431c-1.2,0-2.62-1.908-3.495-4.016a11.925,11.925,0,0,1-.891-3.3c-.143-1.526.342-2.06.774-2.24a.579.579,0,0,1,.467,1.061c-.223.281-.174,1.882.721,4.04.95,2.291,2.13,3.3,2.421,3.3h0a.566.566,0,0,1,.743.316.59.59,0,0,1-.327.761A1.072,1.072,0,0,1,2975.962,4252.431Z" transform="translate(-2968.252 -4236.019)"/>
        <path id="Path_549" data-name="Path 549" d="M2918.373,4148.874c-1.413,0-2.249-.785-3.106-2.849-.976-2.355-.867-3.478.436-4.45l10.337-8.829a.579.579,0,1,1,.752.881l-10.366,8.852c-.662.5-1,.9-.088,3.1.923,2.225,1.576,2.177,2.262,2.126l13.833-1.06a.579.579,0,1,1,.088,1.155l-13.834,1.06C2918.578,4148.87,2918.474,4148.874,2918.373,4148.874Z" transform="translate(-2914.617 -4132.186)"/>
      </g>
      <path id="Path_550" data-name="Path 550" d="M3167.287,4136.779a.579.579,0,0,1-.3-1.075l3.449-2.079a1.15,1.15,0,0,0,.391-1.575.579.579,0,1,1,.992-.6,2.309,2.309,0,0,1-.785,3.165l-3.45,2.079A.575.575,0,0,1,3167.287,4136.779Z" transform="translate(-327.672 -103.08)"/>
      <path id="Path_551" data-name="Path 551" d="M3282.278,4246.7a.571.571,0,0,1-.2-.036.579.579,0,0,1-.342-.745,1.141,1.141,0,0,0-1.487-1.457l-1.067.421a.579.579,0,1,1-.426-1.077l1.067-.422a2.3,2.3,0,0,1,3,2.937A.58.58,0,0,1,3282.278,4246.7Z" transform="translate(-432.883 -208.638)"/>
      <path id="Path_552" data-name="Path 552" d="M3195.257,4267.856a.579.579,0,0,1-.213-1.118l3.154-1.247a.579.579,0,1,1,.426,1.077l-3.154,1.247A.582.582,0,0,1,3195.257,4267.856Z" transform="translate(-354.023 -229.581)"/>
      <path id="Path_553" data-name="Path 553" d="M3312.928,4027.751a.856.856,0,0,1-.848-.948l.122-1.094-.831-.719a.853.853,0,0,1,.387-1.481l1.076-.222.428-1.014a.854.854,0,0,1,1.528-.09l.544.956,1.095.094a.853.853,0,0,1,.558,1.426l-.74.813.25,1.071a.853.853,0,0,1-1.183.971l-1-.454-.941.568A.847.847,0,0,1,3312.928,4027.751Zm2.862-1.294Zm-3.193-1.939.594.515a.578.578,0,0,1,.2.5l-.087.781.672-.406a.579.579,0,0,1,.538-.032l.716.324-.178-.765a.578.578,0,0,1,.136-.521l.53-.581-.783-.067a.579.579,0,0,1-.454-.291l-.389-.683-.306.724a.58.58,0,0,1-.417.342Z" transform="translate(-463.677)"/>
      <path id="Path_554" data-name="Path 554" d="M3365.777,4306.086a.86.86,0,0,1-.247-.037.849.849,0,0,1-.6-.675l-.184-1.084-1-.462a.853.853,0,0,1-.037-1.53l.974-.51.132-1.092a.854.854,0,0,1,1.444-.509l.787.77,1.079-.212a.854.854,0,0,1,.93,1.217l-.488.985.535.96a.854.854,0,0,1-.87,1.26h0l-1.087-.16-.749.806A.848.848,0,0,1,3365.777,4306.086Zm-.977-3.049.712.331a.579.579,0,0,1,.328.428l.131.775.535-.575a.577.577,0,0,1,.509-.179l.777.114-.383-.687a.58.58,0,0,1-.012-.539l.349-.7-.771.152a.582.582,0,0,1-.517-.154l-.562-.55-.094.779a.577.577,0,0,1-.307.444Z" transform="translate(-512.835 -262.076)"/>
    </g>
  </g>
</svg>
