<svg xmlns="http://www.w3.org/2000/svg" width="60" height="60" viewBox="0 0 60 60">
  <g id="Group_767" data-name="Group 767" transform="translate(-147 -3934)">
    <circle id="Ellipse_29" data-name="Ellipse 29" cx="30" cy="30" r="30" transform="translate(147 3934)" fill="rgba(101,178,232,0.15)"/>
    <g id="Group_675" data-name="Group 675" transform="translate(151.397 3942.992)">
      <path id="Path_513" data-name="Path 513" d="M233.9,265.038V264h-.951v.951H232v1.426a1.428,1.428,0,0,0,1.426,1.426.476.476,0,0,1,.475.475v.475h-.475a.476.476,0,0,1-.475-.475V267.8H232v.475a1.424,1.424,0,0,0,.951,1.338v1.038h.951V269.7h.951v-1.426a1.428,1.428,0,0,0-1.426-1.426.476.476,0,0,1-.475-.475V265.9h.475a.476.476,0,0,1,.475.475v.475h.951v-.475A1.424,1.424,0,0,0,233.9,265.038Z" transform="translate(-210.692 -240.79)"/>
      <path id="Path_514" data-name="Path 514" d="M36.518,8.951H25.111A.952.952,0,0,0,24.16,8H21.308a.952.952,0,0,0-.951.951H8.951A.952.952,0,0,0,8,9.9V29.864a.952.952,0,0,0,.951.951h8.662L15.28,35.092h2.408l1.226,2.452,3.176-5.823a4.718,4.718,0,0,0,1.289,0l3.176,5.823,1.226-2.452h2.408l-2.333-4.278h8.662a.952.952,0,0,0,.951-.951V9.9A.952.952,0,0,0,36.518,8.951Zm0,.951V22.259H25.731a5.273,5.273,0,0,0-.62-.374v-.577H35.567V10.852H25.111V9.9Zm-8.58,17.111h8.58v.951H27.76A5.183,5.183,0,0,0,27.938,27.012Zm0-.951a5.143,5.143,0,0,0-.179-.951h8.758v.951Zm-.553-1.9a5.235,5.235,0,0,0-.621-.951h9.754v.951Zm7.231-10.5A2.384,2.384,0,0,1,32.764,11.8h1.853ZM31.8,11.8a3.329,3.329,0,0,0,2.814,2.814v2.928A3.329,3.329,0,0,0,31.8,20.358H25.737a5.224,5.224,0,0,0,0-8.555Zm2.814,6.7v1.853H32.764A2.384,2.384,0,0,1,34.617,18.5Zm-7.6-2.425a4.274,4.274,0,0,1-1.9,3.549v-7.1A4.274,4.274,0,0,1,27.012,16.08ZM24.16,8.951v12.56a5.122,5.122,0,0,0-2.852,0V8.951ZM10.852,18.5A2.384,2.384,0,0,1,12.7,20.358H10.852Zm2.814,1.853a3.329,3.329,0,0,0-2.814-2.814V14.616A3.329,3.329,0,0,0,13.666,11.8h6.065a5.224,5.224,0,0,0,0,8.555Zm-2.814-6.7V11.8H12.7A2.384,2.384,0,0,1,10.852,13.656Zm9.506,5.974a4.263,4.263,0,0,1,0-7.1Zm0-9.728v.951H9.9V21.308H20.358v.577a5.209,5.209,0,0,0-.62.374H8.951V9.9ZM17.53,26.061H8.951v-.951h8.758A5.19,5.19,0,0,0,17.53,26.061Zm0,.951a5.144,5.144,0,0,0,.179.951H8.951v-.951Zm.553-2.852H8.951V23.21H18.7A5.235,5.235,0,0,0,18.083,24.16Zm-9.132,5.7v-.951h9.132a5.239,5.239,0,0,0,.292.5l-.243.447Zm10,5.628-.675-1.35H16.881l2.142-3.927a5.238,5.238,0,0,0,2.1,1.294Zm-.494-8.955a4.278,4.278,0,1,1,4.278,4.278A4.283,4.283,0,0,1,18.457,26.537Zm8.737,7.6-.675,1.35-2.173-3.983a5.231,5.231,0,0,0,2.1-1.294l2.142,3.927Zm.144-4.278-.244-.447a5.24,5.24,0,0,0,.292-.5h9.133v.951Z" transform="translate(0 0)"/>
    </g>
  </g>
</svg>
