<svg xmlns="http://www.w3.org/2000/svg" width="38.736" height="38.46" viewBox="0 0 38.736 38.46">
  <g id="Group_868" data-name="Group 868" transform="translate(0.287 -1.586)">
    <path id="Path_674" data-name="Path 674" d="M148.2,384.256a.559.559,0,0,0-.838.74l1.8,2.044v5.872a.559.559,0,1,0,1.118,0v-6.084a.559.559,0,0,0-.14-.37Z" transform="translate(-136.236 -353.676)" fill="#8e1a1d" stroke="#8e1a1d" stroke-width="0.5"/>
    <path id="Path_675" data-name="Path 675" d="M75.433,217.986a5.824,5.824,0,0,1-.882-6.4l.755-1.566a.559.559,0,1,0-1.007-.485l-.755,1.566a6.94,6.94,0,0,0,1.051,7.622l2.335,2.645a.559.559,0,1,0,.838-.74Z" transform="translate(-67.417 -191.874)" fill="#8e1a1d" stroke="#8e1a1d" stroke-width="0.5"/>
    <path id="Path_676" data-name="Path 676" d="M124.91,95.549a2.667,2.667,0,0,0-1.854.748,2.672,2.672,0,0,0-4.265-.68,2.673,2.673,0,0,0-4.231-.632,2.676,2.676,0,0,0-5.035,1.266v2.342a3.8,3.8,0,0,0-3.307,1.675.559.559,0,0,0,.926.625,2.684,2.684,0,0,1,3.5-.862l6.706,3.6a1.069,1.069,0,0,1,0,1.884l-.88.473a4.38,4.38,0,0,1-4.023.062l-2.033-1.014a.559.559,0,0,0-.5,1l2.033,1.014a5.5,5.5,0,0,0,5.051-.078l.067-.036,1.115,1.342a3.429,3.429,0,0,1,.79,2.187v3.218a.559.559,0,1,0,1.118,0v-3.218a4.55,4.55,0,0,0-1.048-2.9l-.977-1.177a2.181,2.181,0,0,0,.756-2.749,2.668,2.668,0,0,0,3.75-.053,2.673,2.673,0,0,0,3.521,1.09v1.332a.559.559,0,0,0,1.118,0v-2.371a2.66,2.66,0,0,0,.372-1.359V98.225a2.68,2.68,0,0,0-2.677-2.677ZM110.643,98.81V96.251a1.559,1.559,0,1,1,3.118,0v4.182l-2.583-1.387A3.89,3.89,0,0,0,110.643,98.81Zm4.236,2.223V96.89a1.559,1.559,0,1,1,3.118,0v4.815a1.559,1.559,0,0,1-.261.862Zm5.795,2.232a1.561,1.561,0,0,1-1.559-1.559v-4.19a1.559,1.559,0,0,1,3.118,0v4.19A1.561,1.561,0,0,1,120.674,103.265Zm4.236.572a1.561,1.561,0,0,1-1.559-1.559V98.225a1.559,1.559,0,0,1,3.118,0v4.052A1.561,1.561,0,0,1,124.91,103.837Z" transform="translate(-98.206 -84.854)" fill="#8e1a1d" stroke="#8e1a1d" stroke-width="0.5"/>
    <path id="Path_677" data-name="Path 677" d="M353.522,284.672a.559.559,0,0,0-.559.559V290.3a4.73,4.73,0,0,1-.647,2.387l-.847,1.447a1.381,1.381,0,0,0-.189.7v6.107a.559.559,0,0,0,1.118,0v-6.107a.261.261,0,0,1,.036-.132l.847-1.447a5.848,5.848,0,0,0,.8-2.952v-5.064A.559.559,0,0,0,353.522,284.672Z" transform="translate(-325.073 -261.696)" fill="#8e1a1d" stroke="#8e1a1d" stroke-width="0.5"/>
    <path id="Path_678" data-name="Path 678" d="M336.756,7.237a.559.559,0,0,0,.772-.167l2.786-4.329a.559.559,0,0,0-.94-.6l-2.786,4.33A.559.559,0,0,0,336.756,7.237Z" transform="translate(-311.395 0)" fill="#8e1a1d" stroke="#8e1a1d" stroke-width="0.5"/>
    <path id="Path_679" data-name="Path 679" d="M414.2,13.577a.559.559,0,0,0,.785-.095l6.195-7.9a.559.559,0,0,0-.879-.69l-6.195,7.9A.559.559,0,0,0,414.2,13.577Z" transform="translate(-383.101 -2.594)" fill="#8e1a1d" stroke="#8e1a1d" stroke-width="0.5"/>
    <path id="Path_680" data-name="Path 680" d="M466.472,197.816l-2.486,1.382a.559.559,0,1,0,.543.977l2.486-1.382a.559.559,0,1,0-.543-.977Z" transform="translate(-429.105 -181.254)" fill="#8e1a1d" stroke="#8e1a1d" stroke-width="0.5"/>
    <path id="Path_681" data-name="Path 681" d="M466.956,317.915l-2.41-1.454a.559.559,0,1,0-.577.957l2.41,1.454a.559.559,0,1,0,.577-.957Z" transform="translate(-429.104 -291.039)" fill="#8e1a1d" stroke="#8e1a1d" stroke-width="0.5"/>
    <path id="Path_682" data-name="Path 682" d="M405.644,383.972a.559.559,0,1,0-.85.726l.9,1.048a.559.559,0,1,0,.85-.726Z" transform="translate(-374.471 -353.407)" fill="#8e1a1d" stroke="#8e1a1d" stroke-width="0.5"/>
    <path id="Path_683" data-name="Path 683" d="M439.022,423.037a.559.559,0,0,0-.85.726l3.119,3.651a.559.559,0,0,0,.85-.726Z" transform="translate(-405.358 -389.557)" fill="#8e1a1d" stroke="#8e1a1d" stroke-width="0.5"/>
    <path id="Path_684" data-name="Path 684" d="M277.523,17.152a.558.558,0,0,0,.707-.354l.617-1.856a.559.559,0,1,0-1.061-.353l-.617,1.856A.559.559,0,0,0,277.523,17.152Z" transform="translate(-256.464 -11.409)" fill="#8e1a1d" stroke="#8e1a1d" stroke-width="0.5"/>
    <path id="Path_685" data-name="Path 685" d="M126.048,7.069a.559.559,0,1,0,.94-.6L124.2,2.135a.559.559,0,1,0-.94.6Z" transform="translate(-113.983)" fill="#8e1a1d" stroke="#8e1a1d" stroke-width="0.5"/>
    <path id="Path_686" data-name="Path 686" d="M6.466,12.561a.559.559,0,1,0,.874-.7L1,3.894a.559.559,0,1,0-.875.7Z" transform="translate(0 -1.67)" fill="#8e1a1d" stroke="#8e1a1d" stroke-width="0.5"/>
    <path id="Path_687" data-name="Path 687" d="M2.934,200.182a.559.559,0,1,0,.519-.99L.819,197.81a.559.559,0,0,0-.519.99Z" transform="translate(0 -181.254)" fill="#8e1a1d" stroke="#8e1a1d" stroke-width="0.5"/>
    <path id="Path_688" data-name="Path 688" d="M6.458,316.651a.559.559,0,0,0-.767-.19l-2.41,1.454a.559.559,0,1,0,.577.957l2.41-1.454a.559.559,0,0,0,.19-.767Z" transform="translate(-2.786 -291.039)" fill="#8e1a1d" stroke="#8e1a1d" stroke-width="0.5"/>
    <path id="Path_689" data-name="Path 689" d="M84.167,383.91a.559.559,0,0,0-.788.062l-.9,1.048a.559.559,0,1,0,.85.726l.9-1.048A.559.559,0,0,0,84.167,383.91Z" transform="translate(-76.206 -353.406)" fill="#8e1a1d" stroke="#8e1a1d" stroke-width="0.5"/>
    <path id="Path_690" data-name="Path 690" d="M23.207,422.974a.559.559,0,0,0-.788.062L19.3,426.687a.559.559,0,1,0,.85.726l3.12-3.651A.559.559,0,0,0,23.207,422.974Z" transform="translate(-17.736 -389.556)" fill="#8e1a1d" stroke="#8e1a1d" stroke-width="0.5"/>
    <path id="Path_691" data-name="Path 691" d="M212.252,16.8a.559.559,0,1,0,1.061-.353L212.7,14.59a.559.559,0,1,0-1.061.353Z" transform="translate(-195.819 -11.408)" fill="#8e1a1d" stroke="#8e1a1d" stroke-width="0.5"/>
  </g>
</svg>
