<svg id="Artwork_16" data-name="Artwork 16" xmlns="http://www.w3.org/2000/svg" xmlns:xlink="http://www.w3.org/1999/xlink" width="21.295" height="21.295" viewBox="0 0 21.295 21.295">
  <defs>
    <clipPath id="clip-path">
      <rect id="Rectangle_521" data-name="Rectangle 521" width="21.295" height="21.295" fill="none"/>
    </clipPath>
  </defs>
  <g id="Group_201" data-name="Group 201">
    <g id="Group_200" data-name="Group 200" clip-path="url(#clip-path)">
      <g id="Group_199" data-name="Group 199">
        <g id="Group_198" data-name="Group 198" clip-path="url(#clip-path)">
          <path id="Path_413" data-name="Path 413" d="M1025.213,706.688c2.843,0,3.18.011,4.3.062a5.891,5.891,0,0,1,1.977.366,3.529,3.529,0,0,1,2.021,2.021,5.886,5.886,0,0,1,.367,1.977c.051,1.123.062,1.46.062,4.3s-.01,3.18-.062,4.3a5.889,5.889,0,0,1-.367,1.977,3.525,3.525,0,0,1-2.021,2.02,5.885,5.885,0,0,1-1.977.367c-1.122.051-1.459.062-4.3.062s-3.18-.011-4.3-.062a5.889,5.889,0,0,1-1.977-.367,3.526,3.526,0,0,1-2.021-2.02,5.908,5.908,0,0,1-.367-1.977c-.051-1.123-.062-1.46-.062-4.3s.011-3.179.062-4.3a5.905,5.905,0,0,1,.367-1.977,3.53,3.53,0,0,1,2.021-2.021,5.9,5.9,0,0,1,1.977-.366c1.123-.051,1.46-.062,4.3-.062m0-1.919c-2.892,0-3.254.012-4.39.064a7.823,7.823,0,0,0-2.584.495,5.448,5.448,0,0,0-3.114,3.114,7.807,7.807,0,0,0-.495,2.584c-.052,1.136-.064,1.5-.064,4.39s.012,3.255.064,4.39a7.811,7.811,0,0,0,.495,2.585,5.446,5.446,0,0,0,3.114,3.114,7.821,7.821,0,0,0,2.584.5c1.136.052,1.5.064,4.39.064s3.255-.012,4.39-.064a7.824,7.824,0,0,0,2.585-.5,5.444,5.444,0,0,0,3.114-3.114,7.817,7.817,0,0,0,.495-2.585c.052-1.135.064-1.5.064-4.39s-.012-3.254-.064-4.39a7.814,7.814,0,0,0-.495-2.584,5.446,5.446,0,0,0-3.114-3.114,7.826,7.826,0,0,0-2.585-.495c-1.135-.052-1.5-.064-4.39-.064" transform="translate(-1014.566 -704.769)" fill="#fff"/>
          <path id="Path_414" data-name="Path 414" d="M1030.925,715.66a5.468,5.468,0,1,0,5.468,5.468,5.468,5.468,0,0,0-5.468-5.468m0,9.017a3.549,3.549,0,1,1,3.549-3.549,3.549,3.549,0,0,1-3.549,3.549" transform="translate(-1020.277 -710.48)" fill="#fff"/>
          <path id="Path_415" data-name="Path 415" d="M1048.772,713.8a1.278,1.278,0,1,1-1.278-1.277,1.278,1.278,0,0,1,1.278,1.277" transform="translate(-1031.164 -708.834)" fill="#fff"/>
        </g>
      </g>
    </g>
  </g>
</svg>
