<svg id="Group_489" data-name="Group 489" xmlns="http://www.w3.org/2000/svg" width="19.453" height="19.453" viewBox="0 0 19.453 19.453">
  <path id="Path_458" data-name="Path 458" d="M19.447,8.077a.306.306,0,0,0-.006-.057c0-.008-.007-.015-.01-.022a.318.318,0,0,0-.019-.042.326.326,0,0,0-.04-.06.4.4,0,0,0-.03-.032.317.317,0,0,0-.065-.043L19.245,7.8a.324.324,0,0,0-.116-.022h-2.27V3.518a.981.981,0,0,0-.283-.689L14.039.286A.973.973,0,0,0,13.348,0H3.566a.973.973,0,0,0-.973.973V7.781H.324A.325.325,0,0,0,.208,7.8l-.032.018a.317.317,0,0,0-.065.043.4.4,0,0,0-.03.032.317.317,0,0,0-.04.06A.3.3,0,0,0,.022,8c0,.008-.008.014-.01.022a.3.3,0,0,0-.006.057A.271.271,0,0,0,0,8.105V19.129a.324.324,0,0,0,.324.324h18.8a.324.324,0,0,0,.324-.324V8.105A.277.277,0,0,0,19.447,8.077Zm-18.8.594,6.1,3.575-6.1,6.1Zm6.679,3.914L9.564,13.9a.324.324,0,0,0,.327,0l2.237-1.311L18.346,18.8H1.107Zm5.38-.339,6.1-3.575v9.675ZM17.935,8.43l-1.075.631V8.43ZM3.566.648h9.726v2.27a.973.973,0,0,0,.973.973h1.3V3.242h-1.3a.324.324,0,0,1-.324-.324V1.107l2.172,2.176a.339.339,0,0,1,.1.234V9.44l-6.484,3.8L3.242,9.44V.973A.324.324,0,0,1,3.566.648ZM2.594,8.43V9.06L1.518,8.43Z" transform="translate(0 0)" fill="#65b2e8"/>
  <g id="Group_488" data-name="Group 488" transform="translate(4.539 1.945)">
    <path id="Path_459" data-name="Path 459" d="M112,48h.648v.648H112Z" transform="translate(-112 -48)" fill="#65b2e8"/>
    <path id="Path_460" data-name="Path 460" d="M144,48h5.836v.648H144Z" transform="translate(-142.703 -48)" fill="#65b2e8"/>
    <path id="Path_461" data-name="Path 461" d="M112,96h7.133v.648H112Z" transform="translate(-112 -94.055)" fill="#65b2e8"/>
    <path id="Path_462" data-name="Path 462" d="M112,144h10.375v.648H112Z" transform="translate(-112 -140.109)" fill="#65b2e8"/>
    <path id="Path_463" data-name="Path 463" d="M112,192h10.375v.648H112Z" transform="translate(-112 -186.164)" fill="#65b2e8"/>
  </g>
</svg>
