<svg xmlns="http://www.w3.org/2000/svg" width="60" height="60" viewBox="0 0 60 60">
  <g id="Group_769" data-name="Group 769" transform="translate(-1153 -3934)">
    <circle id="Ellipse_31" data-name="Ellipse 31" cx="30" cy="30" r="30" transform="translate(1153 3934)" fill="rgba(101,178,232,0.15)"/>
    <path id="Path_512" data-name="Path 512" d="M218.85,256.611a3.125,3.125,0,0,0-3.121,3.121,3.185,3.185,0,0,0,.045.458l-3.065,1a8.97,8.97,0,0,0-7.99-5.642v-3.383a3.121,3.121,0,1,0-1.031,0v3.4a8.973,8.973,0,0,0-7.667,5.73l-3.388-1.1a3.048,3.048,0,0,0,.046-.458,3.165,3.165,0,1,0-.367,1.437l3.4,1.1a8.871,8.871,0,0,0,2.89,9.054l-2.062,2.84a3.078,3.078,0,0,0-1.385-.339,3.131,3.131,0,1,0,2.224.937l2.045-2.815a8.91,8.91,0,0,0,9.676.153l1.934,2.662a3.118,3.118,0,1,0,2.224-.937,3.078,3.078,0,0,0-1.385.339l-1.929-2.655a8.887,8.887,0,0,0,3.09-9.347l3.064-1a3.115,3.115,0,1,0,2.754-4.559Zm-29.293,5.212a2.091,2.091,0,1,1,2.09-2.091A2.094,2.094,0,0,1,189.557,261.823Zm5.595,17.218a2.091,2.091,0,1,1,2.09-2.09A2.093,2.093,0,0,1,195.152,279.041Zm20.194-2.09a2.091,2.091,0,1,1-2.091-2.091A2.093,2.093,0,0,1,215.346,276.951Zm-13.233-27.86a2.091,2.091,0,1,1,2.09,2.09A2.093,2.093,0,0,1,202.113,249.091Zm-.371,22.872v-2.271h-1.031v1.824a7.946,7.946,0,0,1-1.418-.949v-2.107a.945.945,0,0,1,.613-.89l3.752-1.086v-.879a2.307,2.307,0,0,0,1.448,0v.879l3.729,1.077a.954.954,0,0,1,.639.9v2.107a7.948,7.948,0,0,1-1.418.949v-1.824h-1.031v2.271a7.784,7.784,0,0,1-5.283,0Zm4.575-9.859,0,.049a2.4,2.4,0,0,1-.336.75l-.08.128v.15a1.513,1.513,0,0,1-3.025,0v-.245l-.191-.156c-.134-.107-.2-.289-.228-.627l0-.048.236-.063v-.708a1.483,1.483,0,0,1,1.483-1.482h.431a1.483,1.483,0,0,1,1.483,1.482v.708Zm4.188,7.428v-1.07a1.992,1.992,0,0,0-1.358-1.881l-3.01-.87v-.692a2.533,2.533,0,0,0,.785-1.686,2.976,2.976,0,0,0,.418-1.092l.018-.2a.85.85,0,0,0-.245-.673v-.034a2.516,2.516,0,0,0-2.514-2.513h-.431a2.516,2.516,0,0,0-2.514,2.513v.034a.855.855,0,0,0-.245.674l.018.2a1.954,1.954,0,0,0,.425,1.168,2.535,2.535,0,0,0,.777,1.6v.7l-3.035.879a1.985,1.985,0,0,0-1.331,1.873v1.07a7.933,7.933,0,1,1,12.243,0Zm8.345-7.709a2.091,2.091,0,1,1,2.09-2.091A2.093,2.093,0,0,1,218.85,261.823Z" transform="translate(978.575 3699.03)"/>
  </g>
</svg>
