<svg xmlns="http://www.w3.org/2000/svg" width="21.634" height="17.578" viewBox="0 0 21.634 17.578">
  <g id="Group_746" data-name="Group 746" transform="translate(-217 -1372)">
    <path id="Path_599" data-name="Path 599" d="M237.958,1372H221.733a.676.676,0,0,0-.676.676v14.2a1.352,1.352,0,0,1-2.7,0v-10.817h.676a.676.676,0,0,0,0-1.352h-1.352a.676.676,0,0,0-.676.676v11.493a2.707,2.707,0,0,0,2.7,2.7H235.93a2.707,2.707,0,0,0,2.7-2.7v-14.2A.676.676,0,0,0,237.958,1372Zm-.676,14.874a1.354,1.354,0,0,1-1.352,1.352H222.045a2.685,2.685,0,0,0,.363-1.352v-13.521h14.874Z" transform="translate(0 0)" fill="#fff"/>
    <path id="Path_600" data-name="Path 600" d="M294.676,1420.761h4.056a.676.676,0,0,0,.676-.676v-5.409a.676.676,0,0,0-.676-.676h-4.056a.676.676,0,0,0-.676.676v5.409A.675.675,0,0,0,294.676,1420.761Zm.676-5.408h2.7v4.056h-2.7Z" transform="translate(-69.563 -37.944)" fill="#fff"/>
    <path id="Path_601" data-name="Path 601" d="M364.676,1415.352h2.7a.676.676,0,0,0,0-1.352h-2.7a.676.676,0,0,0,0,1.352Z" transform="translate(-132.803 -37.944)" fill="#fff"/>
    <path id="Path_602" data-name="Path 602" d="M364.676,1443.352h2.7a.676.676,0,0,0,0-1.352h-2.7a.676.676,0,0,0,0,1.352Z" transform="translate(-132.803 -63.239)" fill="#fff"/>
    <path id="Path_603" data-name="Path 603" d="M364.676,1471.352h2.7a.676.676,0,0,0,0-1.352h-2.7a.676.676,0,0,0,0,1.352Z" transform="translate(-132.803 -88.535)" fill="#fff"/>
    <path id="Path_604" data-name="Path 604" d="M294.676,1499.352h9.465a.676.676,0,1,0,0-1.352h-9.465a.676.676,0,1,0,0,1.352Z" transform="translate(-69.563 -113.831)" fill="#fff"/>
  </g>
</svg>
