<svg xmlns="http://www.w3.org/2000/svg" width="60" height="60" viewBox="0 0 60 60">
  <g id="Group_768" data-name="Group 768" transform="translate(-778 -3934)">
    <path id="Path_597" data-name="Path 597" d="M30,0A30,30,0,1,1,0,30,30,30,0,0,1,30,0Z" transform="translate(778 3934)" fill="rgba(101,178,232,0.15)"/>
    <g id="Group_679" data-name="Group 679" transform="translate(47.41 219.676)">
      <g id="Group_678" data-name="Group 678" transform="translate(747 3727.362)">
        <path id="Path_520" data-name="Path 520" d="M67.441,21.113A12.015,12.015,0,0,0,56.088,6.949V4.792h.661a3.193,3.193,0,0,0,3.19-3.19V.721A.722.722,0,0,0,59.218,0h-.881a3.2,3.2,0,0,0-3.091,2.4A3.182,3.182,0,0,0,52.9,1.37h-.881a.722.722,0,0,0-.722.721v.881a3.193,3.193,0,0,0,3.19,3.19h.661v.787A11.983,11.983,0,0,0,43.794,21.113a1.667,1.667,0,0,0-.275,3.295l.9.2A1.613,1.613,0,0,0,44.24,27a1.559,1.559,0,0,0,.609.377,1.569,1.569,0,0,0,1.373,2.3,1.567,1.567,0,0,0,2.3,1.372,1.6,1.6,0,0,0,1.487,1.067,1.564,1.564,0,0,0,1.109-.459L52.274,30.5a12.082,12.082,0,0,0,6.686,0l1.159,1.158a1.569,1.569,0,0,0,2.6-.609,1.567,1.567,0,0,0,2.3-1.372,1.558,1.558,0,0,0,1.094-.459,1.59,1.59,0,0,0,.279-1.84A1.561,1.561,0,0,0,66.995,27a1.628,1.628,0,0,0-.182-2.4l.9-.2a1.667,1.667,0,0,0-.275-3.295ZM56.088,3.19A2.251,2.251,0,0,1,58.337.941H59V1.6a2.251,2.251,0,0,1-2.136,2.246l.682-.6a.471.471,0,0,0-.624-.7l-.832.737Zm-1.758.548a.471.471,0,0,0-.666.665l.817.817a2.251,2.251,0,0,1-2.244-2.249V2.311H52.9a2.251,2.251,0,0,1,2.249,2.244ZM43.719,23.489a.726.726,0,0,1,.29-1.422,12,12,0,0,0,.553,1.6Zm1.186,2.85a.633.633,0,0,1,0-.887l1.863-1.863a.627.627,0,0,1,.887.887l-1.863,1.863a.633.633,0,0,1-.887,0Zm.887,2.218a.628.628,0,0,1,0-.887l3.194-3.194a.631.631,0,0,1,.887,0h0a.633.633,0,0,1,0,.887L46.68,28.557A.633.633,0,0,1,45.793,28.557Zm2.44,1.553a.627.627,0,1,1-.887-.887l3.194-3.194a.627.627,0,1,1,.887.887Zm4.081-.976L50.45,31a.627.627,0,0,1-.887-.887l1.863-1.863a.627.627,0,0,1,.887.887Zm.665-1.553a1.561,1.561,0,0,0-.609-.378A1.567,1.567,0,0,0,51,24.9a1.569,1.569,0,0,0-2.3-1.373,1.558,1.558,0,0,0-.377-.609h0a1.568,1.568,0,0,0-2.218,0l-.586.586a11.072,11.072,0,0,1,.908-10.726,5.04,5.04,0,0,1,1.99,2.479,4.075,4.075,0,0,1,.09,1.668,11.018,11.018,0,0,0,.157,3.293,9.836,9.836,0,0,0,.416,1.553.471.471,0,0,0,.886-.318,8.939,8.939,0,0,1-.377-1.412A10.059,10.059,0,0,1,49.443,17a4.923,4.923,0,0,0-.129-2.021,5.9,5.9,0,0,0-2.33-2.959,11.1,11.1,0,0,1,5.858-3.793c.271,1.141.493,2.368.68,3.565.3,1.93.538,3.455,1.693,3.827a2.117,2.117,0,0,0,1.732-.391,2.084,2.084,0,0,1,1.444-.409c.817.158,1.351,1.459,2.1,2.073A6.051,6.051,0,0,0,64.8,18.024a.471.471,0,1,0-.078-.938,5.174,5.174,0,0,1-3.632-.917c-.935-.768-1.137-2-2.516-2.27a2.928,2.928,0,0,0-2.086.514c-.44.249-.723.4-.981.314-.6-.194-.821-1.594-1.052-3.076-.189-1.213-.416-2.46-.689-3.616A11.08,11.08,0,0,1,65.718,23.509l-.586-.586a1.568,1.568,0,0,0-2.218,0h0a1.559,1.559,0,0,0-.377.609,1.567,1.567,0,0,0-.788-.179c-1.059-.96-3.223-2.827-4.769-2.086-.813.389-.937,1.2-1.081,2.13a8.588,8.588,0,0,1-.6,2.293,6.637,6.637,0,0,1-1.947,2.5,1.552,1.552,0,0,0-.377-.61Zm5.277,0a1.57,1.57,0,0,0-.062,2.152,11.162,11.162,0,0,1-5.152,0,1.562,1.562,0,0,0,.2-.289,7.858,7.858,0,0,0,2.92-3.377,9.5,9.5,0,0,0,.665-2.528c.13-.844.208-1.257.557-1.425.865-.414,2.453.818,3.383,1.626a1.56,1.56,0,0,0-.533,1.163,1.567,1.567,0,0,0-1.372,2.3A1.562,1.562,0,0,0,58.256,27.581ZM61.672,31a.628.628,0,0,1-.887,0l-1.863-1.863a.628.628,0,0,1,0-.887h0a.631.631,0,0,1,.887,0l1.863,1.863A.634.634,0,0,1,61.672,31Zm2.218-.887a.628.628,0,0,1-.887,0l-3.194-3.194a.627.627,0,1,1,.887-.887l3.194,3.194A.628.628,0,0,1,63.89,30.109Zm1.553-1.553a.634.634,0,0,1-.887,0l-3.194-3.194a.632.632,0,0,1,0-.887h0a.631.631,0,0,1,.887,0c1,1.014,2.234,2.234,3.194,3.194A.628.628,0,0,1,65.442,28.557Zm.887-2.218a.628.628,0,0,1-.887,0l-1.863-1.863a.628.628,0,0,1,0-.887h0a.633.633,0,0,1,.887,0c.366.366,1.475,1.479,1.863,1.863A.634.634,0,0,1,66.33,26.338Zm1.187-2.85-.843.183a12,12,0,0,0,.553-1.6.726.726,0,0,1,.29,1.422Z" transform="translate(-42.205)"/>
      </g>
    </g>
  </g>
</svg>
