<svg xmlns="http://www.w3.org/2000/svg" width="60" height="60" viewBox="0 0 60 60">
  <g id="Group_767" data-name="Group 767" transform="translate(-139 -4992)">
    <circle id="Ellipse_29" data-name="Ellipse 29" cx="30" cy="30" r="30" transform="translate(139 4992)" fill="rgba(142,26,29,0.15)"/>
    <g id="Group_727" data-name="Group 727" transform="translate(-3887.689 873.896)">
      <g id="Group_713" data-name="Group 713" transform="translate(4036.855 4136.909)">
        <path id="Path_555" data-name="Path 555" d="M4052.1,4150.109a1.939,1.939,0,0,1-.814-.164l-8.483-4.046a.856.856,0,0,1-.561-.778.832.832,0,0,1,.556-.752l15.969-7.282h0a2.639,2.639,0,0,1,1.665-.08l9.712,2.988a.836.836,0,0,1,.681.719.82.82,0,0,1-.551.8L4053,4149.921A2.106,2.106,0,0,1,4052.1,4150.109Zm-8.4-4.974,8.047,3.841a1.11,1.11,0,0,0,.78-.021l16.694-8.12-9.1-2.8a1.6,1.6,0,0,0-.905.031Z" transform="translate(-4041.957 -4136.909)"/>
        <path id="Path_556" data-name="Path 556" d="M4423.8,4264.478a.537.537,0,0,1-.234-1.02l5.964-2.878a.537.537,0,0,1,.466.967l-5.963,2.878A.535.535,0,0,1,4423.8,4264.478Z" transform="translate(-4402.53 -4253.895)"/>
        <path id="Path_557" data-name="Path 557" d="M4046.713,4332.009a1.923,1.923,0,0,1-.815-.165l-8.482-4.044a.855.855,0,0,1-.561-.778.834.834,0,0,1,.556-.753.537.537,0,0,1,.723.682l8.227,3.925a1.107,1.107,0,0,0,.78-.02l5.895-2.868a.537.537,0,1,1,.469.965l-5.895,2.868A2.111,2.111,0,0,1,4046.713,4332.009Z" transform="translate(-4036.855 -4316.063)"/>
        <path id="Path_558" data-name="Path 558" d="M4052.1,4381.125a1.939,1.939,0,0,1-.814-.164l-8.483-4.045a.856.856,0,0,1-.561-.778.834.834,0,0,1,.556-.753.537.537,0,0,1,.723.682l8.227,3.926a1.108,1.108,0,0,0,.78-.021l5.587-2.717a.536.536,0,1,1,.469.965l-5.587,2.718A2.106,2.106,0,0,1,4052.1,4381.125Z" transform="translate(-4041.957 -4362.543)"/>
        <path id="Path_559" data-name="Path 559" d="M4052.1,4430.3a1.94,1.94,0,0,1-.814-.164l-8.483-4.046a.855.855,0,0,1-.561-.777.833.833,0,0,1,.555-.753.536.536,0,0,1,.723.681l8.227,3.926a1.1,1.1,0,0,0,.78-.021l6.708-3.251a.537.537,0,0,1,.469.966l-6.708,3.25A2.089,2.089,0,0,1,4052.1,4430.3Z" transform="translate(-4041.957 -4409.078)"/>
        <path id="Path_560" data-name="Path 560" d="M4144.434,4248.636a.546.546,0,0,1-.224-.049l-3.145-1.447a.536.536,0,0,1,0-.973.878.878,0,0,0,.175-.1.914.914,0,0,0-.2-.113.537.537,0,0,1-.011-.976l2.625-1.237a.536.536,0,1,1,.458.97l-1.882.888a.978.978,0,0,1,.123.46.968.968,0,0,1-.108.448l2.2,1.012a4.324,4.324,0,0,1,2.627-.045l2.186-1.022a.536.536,0,1,1,.455.971l-2.392,1.12a.533.533,0,0,1-.445,0,3.1,3.1,0,0,0-2.211.041A.525.525,0,0,1,4144.434,4248.636Z" transform="translate(-4135.149 -4237.955)"/>
        <path id="Path_561" data-name="Path 561" d="M4290.106,4185.687a.536.536,0,0,1-.234-1.02l2.084-1a.879.879,0,0,1-.075-.782l-2.5-.8a4.993,4.993,0,0,1-2.725.12l-1.85.853a.537.537,0,0,1-.45-.975l2.032-.937a.532.532,0,0,1,.4-.021,3.8,3.8,0,0,0,2.348-.1.534.534,0,0,1,.39-.024l3.517,1.127a.537.537,0,0,1,.067,1,1.063,1.063,0,0,0-.112.061,1.42,1.42,0,0,0,.166.066.537.537,0,0,1,.063.992l-2.89,1.394A.532.532,0,0,1,4290.106,4185.687Z" transform="translate(-4270.787 -4178.608)"/>
        <path id="Path_562" data-name="Path 562" d="M4168.7,4192.809a.534.534,0,0,1-.232-.054l-9.429-4.536a.536.536,0,0,1,.012-.973l4.695-2.113a.537.537,0,0,1,.452,0l9.323,4.445a.537.537,0,1,1-.462.969l-9.1-4.339-3.417,1.538,8.39,4.037a.537.537,0,0,1-.233,1.021Z" transform="translate(-4152.2 -4182.5)"/>
        <path id="Path_563" data-name="Path 563" d="M4422.808,4275.242a.538.538,0,0,1-.537-.53l-.024-2.2a.536.536,0,0,1,.53-.542h.006a.536.536,0,0,1,.536.53l.025,2.2a.536.536,0,0,1-.53.543Z" transform="translate(-4401.569 -4264.727)"/>
        <path id="Path_564" data-name="Path 564" d="M4334.5,4318.779a.536.536,0,0,1-.537-.536v-7.853a.537.537,0,0,1,1.073,0v7.853A.536.536,0,0,1,4334.5,4318.779Z" transform="translate(-4318.023 -4300.575)"/>
      </g>
      <g id="Group_726" data-name="Group 726" transform="translate(4055.331 4141.239)">
        <g id="Group_717" data-name="Group 717" transform="translate(0 6.125)">
          <g id="Group_716" data-name="Group 716">
            <g id="Group_714" data-name="Group 714" transform="translate(0 4.178)">
              <path id="Path_565" data-name="Path 565" d="M4387.3,4414.939c-3.025,0-6.087-.831-6.087-2.42v-2.354a.536.536,0,1,1,1.073,0v2.354c0,.4,1.706,1.346,5.014,1.346a13.022,13.022,0,0,0,2.689-.226.537.537,0,1,1,.218,1.051A14.018,14.018,0,0,1,4387.3,4414.939Z" transform="translate(-4381.211 -4409.629)"/>
            </g>
            <g id="Group_715" data-name="Group 715">
              <path id="Path_566" data-name="Path 566" d="M4387.3,4336.6c-3.025,0-6.087-.831-6.087-2.42s3.062-2.42,6.087-2.42a15.294,15.294,0,0,1,2.848.256.536.536,0,1,1-.2,1.053,14.18,14.18,0,0,0-2.643-.235c-3.308,0-5.014.944-5.014,1.347s1.706,1.347,5.014,1.347a14.05,14.05,0,0,0,2.7-.247.536.536,0,1,1,.209,1.052A15.121,15.121,0,0,1,4387.3,4336.6Z" transform="translate(-4381.211 -4331.758)"/>
              <path id="Path_567" data-name="Path 567" d="M4387.3,4372.166c-3.025,0-6.087-.831-6.087-2.42v-2.354a.536.536,0,0,1,1.073,0v2.354c0,.4,1.706,1.347,5.014,1.347a14.193,14.193,0,0,0,2.641-.235.537.537,0,0,1,.2,1.054A15.269,15.269,0,0,1,4387.3,4372.166Z" transform="translate(-4381.211 -4364.974)"/>
            </g>
          </g>
        </g>
        <g id="Group_725" data-name="Group 725" transform="translate(8.343 0)">
          <g id="Group_718" data-name="Group 718" transform="translate(0 11.464)">
            <path id="Path_568" data-name="Path 568" d="M4542.8,4434.289c-3.025,0-6.086-.852-6.086-2.481a.537.537,0,1,1,1.073,0c0,.5,1.9,1.409,5.013,1.409s5.014-.913,5.014-1.409a.537.537,0,1,1,1.073,0C4548.883,4433.437,4545.821,4434.289,4542.8,4434.289Z" transform="translate(-4536.709 -4431.27)"/>
            <path id="Path_569" data-name="Path 569" d="M4542.8,4436.72c-3.025,0-6.086-.853-6.086-2.482v-2.431a.537.537,0,1,1,1.073,0v2.431c0,.5,1.9,1.409,5.013,1.409s5.014-.912,5.014-1.409v-2.431a.537.537,0,1,1,1.073,0v2.431C4548.883,4435.868,4545.821,4436.72,4542.8,4436.72Z" transform="translate(-4536.709 -4431.27)"/>
          </g>
          <g id="Group_721" data-name="Group 721" transform="translate(0 6.722)">
            <g id="Group_719" data-name="Group 719" transform="translate(0 2.371)">
              <path id="Path_570" data-name="Path 570" d="M4542.8,4390.108c-3.025,0-6.086-.854-6.086-2.481a.537.537,0,1,1,1.073,0c0,.5,1.9,1.408,5.013,1.408s5.014-.911,5.014-1.408a.537.537,0,1,1,1.073,0C4548.883,4389.255,4545.821,4390.108,4542.8,4390.108Z" transform="translate(-4536.709 -4387.09)"/>
              <path id="Path_571" data-name="Path 571" d="M4542.8,4392.54c-3.025,0-6.086-.854-6.086-2.482v-2.431a.537.537,0,1,1,1.073,0v2.431c0,.5,1.9,1.409,5.013,1.409s5.014-.912,5.014-1.409v-2.431a.537.537,0,1,1,1.073,0v2.431C4548.883,4391.687,4545.821,4392.54,4542.8,4392.54Z" transform="translate(-4536.709 -4387.09)"/>
            </g>
            <g id="Group_720" data-name="Group 720">
              <path id="Path_572" data-name="Path 572" d="M4542.8,4345.919c-3.025,0-6.086-.853-6.086-2.482a.537.537,0,0,1,1.073,0c0,.5,1.9,1.409,5.013,1.409s5.014-.912,5.014-1.409a.537.537,0,0,1,1.073,0C4548.883,4345.066,4545.821,4345.919,4542.8,4345.919Z" transform="translate(-4536.709 -4342.9)"/>
              <path id="Path_573" data-name="Path 573" d="M4542.8,4348.35c-3.025,0-6.086-.852-6.086-2.481v-2.432a.537.537,0,0,1,1.073,0v2.432c0,.5,1.9,1.409,5.013,1.409s5.014-.912,5.014-1.409v-2.432a.537.537,0,0,1,1.073,0v2.432C4548.883,4347.5,4545.821,4348.35,4542.8,4348.35Z" transform="translate(-4536.709 -4342.9)"/>
            </g>
          </g>
          <g id="Group_724" data-name="Group 724">
            <g id="Group_722" data-name="Group 722" transform="translate(0 4.316)">
              <path id="Path_574" data-name="Path 574" d="M4542.8,4301.065c-3.025,0-6.086-.852-6.086-2.481a.537.537,0,0,1,1.073,0c0,.5,1.9,1.408,5.013,1.408s5.014-.912,5.014-1.408a.537.537,0,0,1,1.073,0C4548.883,4300.213,4545.821,4301.065,4542.8,4301.065Z" transform="translate(-4536.709 -4298.047)"/>
              <path id="Path_575" data-name="Path 575" d="M4542.8,4303.5c-3.025,0-6.086-.853-6.086-2.481v-2.432a.537.537,0,0,1,1.073,0v2.432c0,.5,1.9,1.408,5.013,1.408s5.014-.912,5.014-1.408v-2.432a.537.537,0,0,1,1.073,0v2.432C4548.883,4302.644,4545.821,4303.5,4542.8,4303.5Z" transform="translate(-4536.709 -4298.047)"/>
            </g>
            <g id="Group_723" data-name="Group 723">
              <path id="Path_576" data-name="Path 576" d="M4542.8,4222.571c-3.025,0-6.086-.854-6.086-2.481s3.062-2.482,6.086-2.482,6.087.853,6.087,2.482S4545.821,4222.571,4542.8,4222.571Zm0-3.892c-3.109,0-5.013.913-5.013,1.41s1.9,1.408,5.013,1.408,5.014-.912,5.014-1.408S4545.906,4218.68,4542.8,4218.68Z" transform="translate(-4536.709 -4217.607)"/>
              <path id="Path_577" data-name="Path 577" d="M4542.8,4259.317c-3.025,0-6.086-.853-6.086-2.482V4254.4a.537.537,0,1,1,1.073,0v2.431c0,.5,1.9,1.409,5.013,1.409s5.014-.912,5.014-1.409V4254.4a.537.537,0,1,1,1.073,0v2.431C4548.883,4258.464,4545.821,4259.317,4542.8,4259.317Z" transform="translate(-4536.709 -4251.921)"/>
            </g>
          </g>
        </g>
      </g>
    </g>
  </g>
</svg>
