<svg xmlns="http://www.w3.org/2000/svg" width="60" height="60" viewBox="0 0 60 60">
  <g id="Group_682" data-name="Group 682" transform="translate(-165 -3924)">
    <circle id="Ellipse_28" data-name="Ellipse 28" cx="30" cy="30" r="30" transform="translate(165 3924)" fill="rgba(101,178,232,0.15)"/>
    <g id="Group_681" data-name="Group 681" transform="translate(172.914 3937.44)">
      <g id="Group_680" data-name="Group 680" transform="translate(0)">
        <path id="Path_521" data-name="Path 521" d="M100.155,27.333A27.148,27.148,0,0,0,111.3,5.53a.539.539,0,0,0-.547-.53,28.832,28.832,0,0,0-17.38,5.789,28.2,28.2,0,0,0-5.115,4.988,2.791,2.791,0,0,1-3.345-.377,3.9,3.9,0,0,0-5.384,0L74.109,20.57a.518.518,0,0,0-.005.749l.005.005,3.135,3a5.52,5.52,0,0,0,6.115.979l-.006.019a.519.519,0,0,0,.141.513l1.578,1.529-3.861.793a.524.524,0,0,0-.274.893l1.942,1.881a4.946,4.946,0,0,0-1.413-.549c-.158-.035-.317-.062-.471-.08a5.014,5.014,0,0,0-.579-.038,4.884,4.884,0,0,0-3.449,1.373,4.69,4.69,0,0,0-1.469,3.4.538.538,0,0,0,.533.53l.413.01a4.947,4.947,0,0,0-.935,3.708.542.542,0,0,0,.537.425h1.495a.53.53,0,1,0,0-1.06h-1a3.985,3.985,0,0,1,1.469-3.178.518.518,0,0,0,.049-.747.554.554,0,0,0-.4-.179l-1.036-.025A3.674,3.674,0,0,1,77.74,32.39a3.791,3.791,0,0,1,2.641-1.066h.029c.087,0,.174.005.262.011a2.441,2.441,0,0,0-1.224,1.813L79.134,35.6a.534.534,0,0,0,.476.591.57.57,0,0,0,.134,0l2.535-.3A2.538,2.538,0,0,0,84.151,34.7c.008.1.013.192.013.289a3.587,3.587,0,0,1-1.109,2.592.518.518,0,0,0-.011.749.56.56,0,0,0,.774.01l.011-.01A4.633,4.633,0,0,0,85.221,34.4a4.446,4.446,0,0,0-.079-.447,4.621,4.621,0,0,0-.572-1.39l1.9,1.841a.56.56,0,0,0,.774,0,.526.526,0,0,0,.144-.247l.932-3.651,1.419,1.375a.56.56,0,0,0,.527.138l.1-.026a5.1,5.1,0,0,0,.979,5.985l3.1,3.056a.575.575,0,0,0,.389.177h0a.575.575,0,0,0,.389-.177l5.337-5.255a3.618,3.618,0,0,0,0-5.222A2.584,2.584,0,0,1,100.155,27.333ZM110.2,6.065a25.543,25.543,0,0,1-.556,4.8,11.2,11.2,0,0,1-4.41-4.254A27.962,27.962,0,0,1,110.2,6.065ZM78.013,23.57l-2.741-2.622,5.026-4.8a2.777,2.777,0,0,1,3.839,0,3.9,3.9,0,0,0,3.052,1.06,27.138,27.138,0,0,0-3.334,6.511A4.39,4.39,0,0,1,78.013,23.57Zm5.343,10.261a1.429,1.429,0,0,1-1.212,1.007l-1.838.221.228-1.78A1.425,1.425,0,0,1,81.608,32.1a1.449,1.449,0,0,1,1.758,1.01,1.357,1.357,0,0,1-.009.726Zm3.2-.837-4.133-4L86,28.258l1.421,1.376Zm3.73-2.077-5.8-5.614q.146-.5.313-.993l.01-.009-.005-.005A27.044,27.044,0,0,1,101.777,7.536q1.16-.394,2.348-.683a12.278,12.278,0,0,0,5.264,5.079,26.764,26.764,0,0,1-19.1,18.985Zm9.49,4.107-4.95,4.866-2.707-2.655a4.06,4.06,0,0,1-.094-5.726,28.5,28.5,0,0,0,6.659-3.163A3.635,3.635,0,0,0,99.781,31.3a2.575,2.575,0,0,1,0,3.721Z" transform="translate(-71.885 -5)"/>
        <path id="Path_522" data-name="Path 522" d="M131.566,384.728a4.171,4.171,0,0,1-.972.112h-.946a.6.6,0,0,0,0,1.2h.946a5.376,5.376,0,0,0,1.251-.145.6.6,0,1,0-.28-1.168Z" transform="translate(-122.337 -351.529)"/>
        <path id="Path_523" data-name="Path 523" d="M390.253,240.351a.6.6,0,0,0,.383-.138c.428-.354.852-.725,1.261-1.1a.6.6,0,0,0-.805-.891l-.009.008c-.393.363-.8.72-1.213,1.061a.6.6,0,0,0,.383,1.063Z" transform="translate(-358.952 -217.451)"/>
        <path id="Path_524" data-name="Path 524" d="M428.332,102.648a.6.6,0,0,0-.749.4h0a29.728,29.728,0,0,1-1.948,4.85c-.288.567-.6,1.132-.923,1.68-.4.674-.83,1.34-1.281,1.982a30.073,30.073,0,0,1-2.33,2.908.6.6,0,0,0,.889.808,31.28,31.28,0,0,0,2.423-3.025c.469-.667.918-1.36,1.332-2.061.338-.57.661-1.159.96-1.748a30.938,30.938,0,0,0,2.026-5.047A.6.6,0,0,0,428.332,102.648Z" transform="translate(-387.8 -94.376)"/>
        <path id="Path_528" data-name="Path 528" d="M60.563,218.141a.6.6,0,0,0,.425-.176l.893-.893a.6.6,0,0,0-.842-.856l-.007.007-.893.893a.6.6,0,0,0,.425,1.025Z" transform="translate(-59.3 -197.367)"/>
        <path id="Path_530" data-name="Path 530" d="M57.5,231.992a.6.6,0,0,0-.849,0l-3.126,3.125a.6.6,0,1,0,.842.856l.007-.007,3.126-3.126A.6.6,0,0,0,57.5,231.992Z" transform="translate(-53.348 -211.892)"/>
        <path id="Path_531" data-name="Path 531" d="M207.179,425.67l-.46.46a.6.6,0,1,0,.849.849h0l.46-.46a.6.6,0,0,0-.849-.849Z" transform="translate(-192.662 -388.233)"/>
        <path id="Path_532" data-name="Path 532" d="M226.352,392.132l-2.055,2.055a.6.6,0,1,0,.837.861l.012-.012,2.055-2.055a.6.6,0,0,0-.849-.849Z" transform="translate(-208.673 -358.054)"/>
        <path id="Path_534" data-name="Path 534" d="M252.587,409.553a.6.6,0,0,0,.849,0h0l.893-.893a.6.6,0,1,0-.849-.849l-.893.893C252.438,408.912,252.545,409.268,252.587,409.553Z" transform="translate(-234.408 -372.158)"/>
        <path id="Path_537" data-name="Path 537" d="M395.854,329.536a3.366,3.366,0,0,1-2.115-2.122.6.6,0,0,0-1.139,0,3.366,3.366,0,0,1-2.115,2.122.6.6,0,0,0,0,1.139A3.366,3.366,0,0,1,392.6,332.8a.6.6,0,0,0,1.139,0,3.366,3.366,0,0,1,2.115-2.122.6.6,0,0,0,0-1.139Zm-2.685,1.739a4.6,4.6,0,0,0-1.168-1.17,4.6,4.6,0,0,0,1.168-1.17,4.6,4.6,0,0,0,1.168,1.17A4.6,4.6,0,0,0,393.169,331.275Z" transform="translate(-360.019 -299.596)"/>
        <ellipse id="Ellipse_27" data-name="Ellipse 27" cx="1.099" cy="1.101" rx="1.099" ry="1.101" transform="translate(5.535 3.803)"/>
        <path id="Path_539" data-name="Path 539" d="M297.3,107.968a4.389,4.389,0,1,0,3.1,7.495h0a4.39,4.39,0,0,0-3.1-7.495Zm2.255,6.646a3.19,3.19,0,1,1,0-4.511h0A3.193,3.193,0,0,1,299.551,114.614Z" transform="translate(-271.464 -99.083)"/>
      </g>
    </g>
  </g>
</svg>
