<svg id="Group_197" data-name="Group 197" xmlns="http://www.w3.org/2000/svg" xmlns:xlink="http://www.w3.org/1999/xlink" width="26.47" height="21.512" viewBox="0 0 26.47 21.512">
  <defs>
    <clipPath id="clip-path">
      <rect id="Rectangle_519" data-name="Rectangle 519" width="26.47" height="21.512" fill="none"/>
    </clipPath>
  </defs>
  <g id="Group_196" data-name="Group 196" clip-path="url(#clip-path)">
    <g id="Group_195" data-name="Group 195">
      <g id="Group_194" data-name="Group 194" clip-path="url(#clip-path)">
        <path id="Path_412" data-name="Path 412" d="M951.133,704.769a5.445,5.445,0,0,0-5.291,6.669,15.41,15.41,0,0,1-11.193-5.674,5.436,5.436,0,0,0,1.679,7.25,5.425,5.425,0,0,1-2.459-.679v.069a5.43,5.43,0,0,0,4.357,5.323,5.423,5.423,0,0,1-2.454.093,5.438,5.438,0,0,0,5.073,3.773,10.894,10.894,0,0,1-6.743,2.325,11.348,11.348,0,0,1-1.3-.076A15.445,15.445,0,0,0,956.58,710.83c0-.235,0-.468-.015-.7a11.048,11.048,0,0,0,2.709-2.812,10.89,10.89,0,0,1-3.119.856,5.455,5.455,0,0,0,2.389-3.006,10.855,10.855,0,0,1-3.45,1.319,5.414,5.414,0,0,0-3.962-1.716" transform="translate(-932.805 -704.769)" fill="#fff"/>
      </g>
    </g>
  </g>
</svg>
