<svg xmlns="http://www.w3.org/2000/svg" xmlns:xlink="http://www.w3.org/1999/xlink" width="1705" height="797.229" viewBox="0 0 1705 797.229">
  <defs>
    <filter id="Path_621" x="252.219" y="192.275" width="341" height="316.015" filterUnits="userSpaceOnUse">
      <feOffset input="SourceAlpha"/>
      <feGaussianBlur stdDeviation="12.5" result="blur"/>
      <feFlood flood-opacity="0.184"/>
      <feComposite operator="in" in2="blur"/>
      <feComposite in="SourceGraphic"/>
    </filter>
    <filter id="Path_621-2" x="730.5" y="543.337" width="272.438" height="253.892" filterUnits="userSpaceOnUse">
      <feOffset input="SourceAlpha"/>
      <feGaussianBlur stdDeviation="12.5" result="blur-2"/>
      <feFlood flood-opacity="0.184"/>
      <feComposite operator="in" in2="blur-2"/>
      <feComposite in="SourceGraphic"/>
    </filter>
    <filter id="Path_621-3" x="540.5" y="254.337" width="272.438" height="253.892" filterUnits="userSpaceOnUse">
      <feOffset input="SourceAlpha"/>
      <feGaussianBlur stdDeviation="12.5" result="blur-3"/>
      <feFlood flood-opacity="0.184"/>
      <feComposite operator="in" in2="blur-3"/>
      <feComposite in="SourceGraphic"/>
    </filter>
    <filter id="Path_621-4" x="258.5" y="455.337" width="272.438" height="253.892" filterUnits="userSpaceOnUse">
      <feOffset input="SourceAlpha"/>
      <feGaussianBlur stdDeviation="12.5" result="blur-4"/>
      <feFlood flood-opacity="0.184"/>
      <feComposite operator="in" in2="blur-4"/>
      <feComposite in="SourceGraphic"/>
    </filter>
    <filter id="Path_621-5" x="0" y="334.386" width="305.438" height="283.793" filterUnits="userSpaceOnUse">
      <feOffset input="SourceAlpha"/>
      <feGaussianBlur stdDeviation="12.5" result="blur-5"/>
      <feFlood flood-opacity="0.184"/>
      <feComposite operator="in" in2="blur-5"/>
      <feComposite in="SourceGraphic"/>
    </filter>
    <filter id="Path_621-6" x="478" y="455.386" width="305.438" height="283.793" filterUnits="userSpaceOnUse">
      <feOffset input="SourceAlpha"/>
      <feGaussianBlur stdDeviation="12.5" result="blur-6"/>
      <feFlood flood-opacity="0.184"/>
      <feComposite operator="in" in2="blur-6"/>
      <feComposite in="SourceGraphic"/>
    </filter>
    <filter id="Path_621-7" x="67.787" y="564" width="237.863" height="222.566" filterUnits="userSpaceOnUse">
      <feOffset input="SourceAlpha"/>
      <feGaussianBlur stdDeviation="12.5" result="blur-7"/>
      <feFlood flood-opacity="0.184"/>
      <feComposite operator="in" in2="blur-7"/>
      <feComposite in="SourceGraphic"/>
    </filter>
    <filter id="Path_621-8" x="1294" y="339.275" width="341" height="316.015" filterUnits="userSpaceOnUse">
      <feOffset input="SourceAlpha"/>
      <feGaussianBlur stdDeviation="12.5" result="blur-8"/>
      <feFlood flood-opacity="0.184"/>
      <feComposite operator="in" in2="blur-8"/>
      <feComposite in="SourceGraphic"/>
    </filter>
    <filter id="Path_621-9" x="1076.281" y="339.337" width="272.438" height="253.892" filterUnits="userSpaceOnUse">
      <feOffset input="SourceAlpha"/>
      <feGaussianBlur stdDeviation="12.5" result="blur-9"/>
      <feFlood flood-opacity="0.184"/>
      <feComposite operator="in" in2="blur-9"/>
      <feComposite in="SourceGraphic"/>
    </filter>
    <filter id="Path_621-10" x="1397.568" y="170" width="237.863" height="222.566" filterUnits="userSpaceOnUse">
      <feOffset input="SourceAlpha"/>
      <feGaussianBlur stdDeviation="12.5" result="blur-10"/>
      <feFlood flood-opacity="0.184"/>
      <feComposite operator="in" in2="blur-10"/>
      <feComposite in="SourceGraphic"/>
    </filter>
    <filter id="Path_621-11" x="1467.137" y="0" width="237.863" height="222.566" filterUnits="userSpaceOnUse">
      <feOffset input="SourceAlpha"/>
      <feGaussianBlur stdDeviation="12.5" result="blur-11"/>
      <feFlood flood-opacity="0.184"/>
      <feComposite operator="in" in2="blur-11"/>
      <feComposite in="SourceGraphic"/>
    </filter>
    <filter id="Path_621-12" x="926" y="45" width="237.863" height="222.566" filterUnits="userSpaceOnUse">
      <feOffset input="SourceAlpha"/>
      <feGaussianBlur stdDeviation="12.5" result="blur-12"/>
      <feFlood flood-opacity="0.184"/>
      <feComposite operator="in" in2="blur-12"/>
      <feComposite in="SourceGraphic"/>
    </filter>
    <filter id="Path_621-13" x="1110" y="78.275" width="341" height="316.015" filterUnits="userSpaceOnUse">
      <feOffset input="SourceAlpha"/>
      <feGaussianBlur stdDeviation="12.5" result="blur-13"/>
      <feFlood flood-opacity="0.184"/>
      <feComposite operator="in" in2="blur-13"/>
      <feComposite in="SourceGraphic"/>
    </filter>
  </defs>
  <g id="Group_4825" data-name="Group 4825" transform="translate(-107.5 -233.21)">
    <g id="Group_864" data-name="Group 864">
      <g id="Group_776" data-name="Group 776" transform="translate(-19174.781 2151)">
        <g transform="matrix(1, 0, 0, 1, 19282.28, -1917.79)" filter="url(#Path_621)">
          <path id="Path_621-14" data-name="Path 621" d="M32,0,132.064-1.015,232,0a32,32,0,0,1,32,32l1,89.776L264,207a32,32,0,0,1-32,32l-97.8,1L32,239A32,32,0,0,1,0,207l-1-82.713L0,32A32,32,0,0,1,32,0Z" transform="translate(290.72 230.79)" fill="#fff"/>
        </g>
        <g id="Group_775" data-name="Group 775" transform="translate(19056.518 -2987.485)">
          <path id="Path_619" data-name="Path 619" d="M723.713,1370.427a9.713,9.713,0,1,0-9.713-9.713A9.724,9.724,0,0,0,723.713,1370.427Zm0-16.189a6.476,6.476,0,1,1-6.476,6.476A6.482,6.482,0,0,1,723.713,1354.238Z" transform="translate(-69.956)" fill="#003a70"/>
          <path id="Path_620" data-name="Path 620" d="M673.184,1443.665h-1.619v-6.476a11.346,11.346,0,0,0-11.332-11.332H648.9a1.619,1.619,0,1,0,0,3.238h11.332a8.1,8.1,0,0,1,8.094,8.094v6.476h-29.14v-8.094a1.619,1.619,0,1,0-3.238,0v8.094h-3.238v-12.359l3.279-1.822a5.015,5.015,0,1,0-1.579-2.825l-10.58,5.878a1.619,1.619,0,0,0,.787,3.034,1.6,1.6,0,0,0,.784-.2l4.071-2.262v10.56h-4.857a1.618,1.618,0,0,0-1.619,1.619V1455a1.618,1.618,0,0,0,1.619,1.619h48.567A1.618,1.618,0,0,0,674.8,1455v-9.713A1.618,1.618,0,0,0,673.184,1443.665Zm-33.05-16.53a1.659,1.659,0,0,0,.254-.217A1.583,1.583,0,0,1,640.134,1427.135Zm.631-1.073a1.594,1.594,0,0,0,.025-.287c0,.029.017.053.017.082A1.518,1.518,0,0,1,640.765,1426.062Zm-.2.6a1.6,1.6,0,0,0,.138-.271A1.532,1.532,0,0,1,640.56,1426.662Zm.165-1.2a1.571,1.571,0,0,0-.1-.306A1.6,1.6,0,0,1,640.726,1425.458Zm-.261-.549a1.638,1.638,0,0,0-.214-.251A1.6,1.6,0,0,1,640.464,1424.909Zm-1.083-.632a1.606,1.606,0,0,0-.272-.023c.027,0,.05-.016.078-.016A1.519,1.519,0,0,1,639.381,1424.277Zm.606.2a1.634,1.634,0,0,0-.261-.133A1.574,1.574,0,0,1,639.987,1424.48Zm-1.5-.064a1.587,1.587,0,0,1,.3-.1A1.533,1.533,0,0,0,638.483,1424.416Zm33.082,28.962H626.236V1446.9h45.329Z" transform="translate(0 -53.811)" fill="#003a70"/>
        </g>
        <text id="Professional_Clinics_Legal_Accounting_Marketing" data-name="Professional Clinics 
Legal Accounting 
Marketing" transform="translate(19572 -1568)" fill="#003a70" font-size="18" font-family="Avenir-Medium, Avenir" font-weight="500"><tspan x="55.159" y="18">Professional Clinics </tspan><tspan x="62.134" y="43">Legal Accounting </tspan><tspan x="91.177" y="68">Marketing</tspan></text>
      </g>
      <g id="Group_777" data-name="Group 777" transform="translate(-18730.781 2488)">
        <g transform="matrix(1, 0, 0, 1, 18838.28, -2254.79)" filter="url(#Path_621-2)">
          <path id="Path_621-15" data-name="Path 621" d="M23.494-.262l74.272-.753,74.177.753A23.752,23.752,0,0,1,195.7,23.49l.742,66.636-.742,63.257a23.752,23.752,0,0,1-23.752,23.752l-72.592.742-75.858-.742A23.752,23.752,0,0,1-.258,153.383L-1,91.99l.742-68.5A23.752,23.752,0,0,1,23.494-.262Z" transform="translate(769 581.85)" fill="#fff"/>
        </g>
        <text id="Procurement_Training_Classes" data-name="Procurement 
Training Classes" transform="translate(19606 -1573)" fill="#003a70" font-size="18" font-family="Avenir-Medium, Avenir" font-weight="500"><tspan x="46.629" y="18">Procurement </tspan><tspan x="34.173" y="43">Training Classes</tspan></text>
        <g id="Group_784" data-name="Group 784" transform="translate(19678.734 -1641.6)">
          <g id="Group_779" data-name="Group 779" transform="translate(39.334 32.508)">
            <g id="Group_778" data-name="Group 778">
              <path id="Path_622" data-name="Path 622" d="M385.487,270.613a.769.769,0,0,0-.769.769.976.976,0,0,1-1.952,0,.769.769,0,0,0-1.538,0,2.514,2.514,0,1,0,5.027,0A.769.769,0,0,0,385.487,270.613Z" transform="translate(-381.228 -270.613)" fill="#003a70" stroke="#003a70" stroke-width="1"/>
            </g>
          </g>
          <g id="Group_781" data-name="Group 781" transform="translate(0 5.115)">
            <g id="Group_780" data-name="Group 780">
              <path id="Path_623" data-name="Path 623" d="M50.809,32.634l-2.164-.693a.905.905,0,0,1-.584-.592A13.951,13.951,0,0,0,46.015,27.3a14.846,14.846,0,0,0-1.366-1.612,19.069,19.069,0,0,0,.47-4.355c-.032-1.959-.424-3.108-1.2-3.513-.416-.218-1.683-.882-8.541,2.258a2.5,2.5,0,0,0-.454.271c-.462-.124-.935-.239-1.41-.342l-.174-.036a10.473,10.473,0,0,0,.941-3.894.769.769,0,0,0-1.536-.069,8.945,8.945,0,0,1-5.852,8,22.294,22.294,0,0,0-6.188,0A8.952,8.952,0,1,1,31.8,11.581a.769.769,0,0,0,1.373-.691A10.494,10.494,0,1,0,18.233,24.5h0q-.717.186-1.422.421a.769.769,0,0,0,.488,1.458,20.632,20.632,0,0,1,13,0,.769.769,0,0,0,.488-1.458q-.7-.235-1.422-.421h0a10.483,10.483,0,0,0,3.191-3.12c.212.041.422.084.63.129q.414.09.823.192c-.009.033-.017.067-.024.1a9.169,9.169,0,0,0,.072,4.677A5.566,5.566,0,0,0,36.1,29.348a6.467,6.467,0,0,0,3.784,1.2,5.073,5.073,0,0,0,2.452-.567,4.682,4.682,0,0,0,1.807-2.567q.332.388.629.795a12.414,12.414,0,0,1,1.821,3.6,2.445,2.445,0,0,0,1.582,1.595l2.164.693a1.361,1.361,0,0,1,.949,1.3v3.588a1.361,1.361,0,0,1-.949,1.3L46.854,41.4a2.375,2.375,0,0,0-1.329,1.079,15.323,15.323,0,0,1-6.4,5.822,1.2,1.2,0,0,0-.632.849l-1.117,5.912a.346.346,0,0,1-.339.281h-3.63a.346.346,0,0,1-.339-.281L32.448,51.8a1.208,1.208,0,0,0-1.374-.972,32.137,32.137,0,0,1-4.789.356,30.65,30.65,0,0,1-3.523-.2,1.218,1.218,0,0,0-1.332.977l-.588,3.1a.346.346,0,0,1-.339.281h-3.63a.346.346,0,0,1-.34-.284l-1.075-5.584a1.207,1.207,0,0,0-.62-.839,13.578,13.578,0,0,1-7.5-12.652A14.779,14.779,0,0,1,9.2,28.475a13.413,13.413,0,0,1,5-4.878.769.769,0,0,0-.77-1.331A14.633,14.633,0,0,0,6,33.2H6l-.222-.021a3.828,3.828,0,0,0-.282-1.534A3.149,3.149,0,0,0,3.16,29.6a2.125,2.125,0,0,0-2,.891A2.025,2.025,0,0,0,.775,32.7c.387.8,1.383,1.362,3.034,1.717q-.068.1-.15.2a3.772,3.772,0,0,1-2.872,1.52.807.807,0,0,0-.787.8v0a.805.805,0,0,0,.771.8q.083,0,.173,0a4.994,4.994,0,0,0,3.918-2.175,4.385,4.385,0,0,0,.561-.907q.218.025.418.043h0c-.026.417-.041.839-.041,1.269a15.843,15.843,0,0,0,2.268,8.484,15.543,15.543,0,0,0,5.907,5.451l1.045,5.429a1.884,1.884,0,0,0,1.85,1.533H20.5a1.884,1.884,0,0,0,1.85-1.533l.531-2.807a32.4,32.4,0,0,0,3.4.176,33.775,33.775,0,0,0,4.71-.328l.56,2.96a1.885,1.885,0,0,0,1.85,1.533h3.63a1.885,1.885,0,0,0,1.85-1.533L39.973,49.6a16.762,16.762,0,0,0,6.882-6.343.84.84,0,0,1,.467-.385l3.486-1.117a2.9,2.9,0,0,0,2.018-2.765V35.4A2.894,2.894,0,0,0,50.809,32.634ZM43.466,23.5c-.3,2.531-1.09,4.7-1.887,5.147a4.7,4.7,0,0,1-4.571-.537c-1.573-1.151-2.1-3.22-1.514-5.985h0a.928.928,0,0,1,.528-.642c3.849-1.762,6.068-2.338,6.892-2.338a.8.8,0,0,1,.279.037C43.44,19.443,43.765,20.943,43.466,23.5ZM2.159,32.032c-.08-.164.108-.452.227-.61a.613.613,0,0,1,.494-.3.577.577,0,0,1,.077.005,1.676,1.676,0,0,1,1.111,1.088,2.334,2.334,0,0,1,.161.725C3.165,32.721,2.338,32.4,2.159,32.032Z" transform="translate(0 -5.115)" fill="#003a70" stroke="#003a70" stroke-width="1"/>
            </g>
          </g>
          <g id="Group_783" data-name="Group 783" transform="translate(20.929 10.051)">
            <g id="Group_782" data-name="Group 782">
              <path id="Path_624" data-name="Path 624" d="M206.464,57.635V54.884c.949.068,1.3.5,1.626.5.407,0,.6-.515.6-.772,0-.664-1.3-.949-2.223-.976v-.366c0-.163-.2-.312-.407-.312a.358.358,0,0,0-.393.312v.393a2.516,2.516,0,0,0-2.575,2.521c0,1.735,1.355,2.223,2.575,2.656v3.185c-1.382-.108-1.748-1.057-2.2-1.057-.339,0-.623.447-.623.773,0,.664,1.138,1.572,2.819,1.6h0v.42a.358.358,0,0,0,.393.312c.2,0,.407-.149.407-.312V63.3a2.626,2.626,0,0,0,2.467-2.792C208.93,58.665,207.643,58.068,206.464,57.635Zm-.718-.257c-.718-.271-1.3-.556-1.3-1.328,0-.7.542-1.044,1.3-1.138ZM206.382,62v-2.86a1.585,1.585,0,0,1,1.193,1.518A1.289,1.289,0,0,1,206.382,62Z" transform="translate(-202.845 -52.959)" fill="#003a70" stroke="#003a70" stroke-width="1"/>
            </g>
          </g>
        </g>
      </g>
      <g id="Group_800" data-name="Group 800" transform="translate(-18920.781 2199)">
        <g transform="matrix(1, 0, 0, 1, 19028.28, -1965.79)" filter="url(#Path_621-3)">
          <path id="Path_621-16" data-name="Path 621" d="M23.494-.262l74.272-.753,74.177.753A23.752,23.752,0,0,1,195.7,23.49l.742,66.636-.742,63.257a23.752,23.752,0,0,1-23.752,23.752l-72.592.742-75.858-.742A23.752,23.752,0,0,1-.258,153.383L-1,91.99l.742-68.5A23.752,23.752,0,0,1,23.494-.262Z" transform="translate(579 292.85)" fill="#fff"/>
        </g>
        <text id="StartRight_Business_Plan_Competition" data-name="StartRight!
Business Plan Competition" transform="translate(19606 -1587)" fill="#003a70" font-size="18" font-family="Avenir-Medium, Avenir" font-weight="500"><tspan x="55.341" y="18">StartRight!</tspan><tspan x="44.496" y="43">Business Plan </tspan><tspan x="47.817" y="68">Competition</tspan></text>
        <g id="Group_801" data-name="Group 801" transform="translate(18249 -2588.789)">
          <path id="Path_631" data-name="Path 631" d="M1570.6,1033.948l-4.507-4.507a1.5,1.5,0,0,0-2.124,0l-16.525,16.526a1.5,1.5,0,0,0-.44,1.062v4.507a1.5,1.5,0,0,0,1.5,1.5h4.507a1.5,1.5,0,0,0,1.062-.44l16.525-16.526A1.5,1.5,0,0,0,1570.6,1033.948Zm-18.209,16.085H1550v-2.382l10.516-10.516,2.383,2.382Zm12.64-12.641-2.383-2.383,2.383-2.382,2.383,2.382Z" transform="translate(-87.963 -65.973)" fill="#003a70"/>
          <path id="Path_632" data-name="Path 632" d="M1469.553,990.07H1438V960.023h10.516a1.5,1.5,0,0,0,1.5-1.5V948h18.028v15.023a1.5,1.5,0,1,0,3,0V946.5a1.5,1.5,0,0,0-1.5-1.5h-21.032a1.512,1.512,0,0,0-1.064.442l-12.015,12.015a1.508,1.508,0,0,0-.442,1.064v33.051a1.5,1.5,0,0,0,1.5,1.5h33.051a1.5,1.5,0,1,0,0-3Zm-29.424-33.051,6.89-6.889v6.889Z" fill="#003a70"/>
          <path id="Path_633" data-name="Path 633" d="M1526.512,1001H1520.5a1.5,1.5,0,1,0,0,3h6.009a1.5,1.5,0,0,0,0-3Z" transform="translate(-65.972 -43.981)" fill="#003a70"/>
          <path id="Path_634" data-name="Path 634" d="M1493.526,1029H1478.5a1.5,1.5,0,0,0,0,3h15.023a1.5,1.5,0,1,0,0-3Z" transform="translate(-32.986 -65.972)" fill="#003a70"/>
          <path id="Path_635" data-name="Path 635" d="M1495.028,1058.5a1.5,1.5,0,0,0-1.5-1.5H1478.5a1.5,1.5,0,0,0,0,3h15.023A1.5,1.5,0,0,0,1495.028,1058.5Z" transform="translate(-32.986 -87.963)" fill="#003a70"/>
          <path id="Path_636" data-name="Path 636" d="M1487.516,1085H1478.5a1.5,1.5,0,0,0,0,3h9.014a1.5,1.5,0,1,0,0-3Z" transform="translate(-32.986 -109.954)" fill="#003a70"/>
          <path id="Path_637" data-name="Path 637" d="M1487.516,1113H1478.5a1.5,1.5,0,0,0,0,3h9.014a1.5,1.5,0,0,0,0-3Z" transform="translate(-32.986 -131.944)" fill="#003a70"/>
        </g>
      </g>
      <g id="Group_802" data-name="Group 802" transform="translate(-19202.781 2400)">
        <g transform="matrix(1, 0, 0, 1, 19310.28, -2166.79)" filter="url(#Path_621-4)">
          <path id="Path_621-17" data-name="Path 621" d="M23.494-.262l74.272-.753,74.177.753A23.752,23.752,0,0,1,195.7,23.49l.742,66.636-.742,63.257a23.752,23.752,0,0,1-23.752,23.752l-72.592.742-75.858-.742A23.752,23.752,0,0,1-.258,153.383L-1,91.99l.742-68.5A23.752,23.752,0,0,1,23.494-.262Z" transform="translate(297 493.85)" fill="#fff"/>
        </g>
        <text id="Training_Program_Long-Term_Short-Term" data-name="Training Program
Long-Term 
Short-Term" transform="translate(19606 -1587)" fill="#003a70" font-size="18" font-family="Avenir-Medium, Avenir" font-weight="500"><tspan x="29.313" y="18">Training Program</tspan><tspan x="55.467" y="43">Long-Term </tspan><tspan x="53.973" y="68">Short-Term</tspan></text>
        <g id="Group_803" data-name="Group 803" transform="translate(18241.799 -3421.676)">
          <path id="Path_638" data-name="Path 638" d="M1526.05,1785.1a7.05,7.05,0,1,0-7.05-7.05A7.057,7.057,0,0,0,1526.05,1785.1Zm0-10.575a3.525,3.525,0,1,1-3.525,3.525A3.53,3.53,0,0,1,1526.05,1774.525Z" transform="translate(-62.849)" fill="#003a70"/>
          <path id="Path_639" data-name="Path 639" d="M1489.64,1849.863h-5.288V1848.1a1.762,1.762,0,0,0-1.763-1.762H1477.3v-3.525a8.823,8.823,0,0,0-8.813-8.813h-10.575a8.823,8.823,0,0,0-8.813,8.813v3.525h-5.288a1.762,1.762,0,0,0-1.763,1.762v1.763h-5.288a1.762,1.762,0,0,0-1.763,1.762v14.1a1.763,1.763,0,1,0,3.525,0v-12.338h3.525v12.338a1.763,1.763,0,1,0,3.525,0v-15.863h35.251v15.863a1.763,1.763,0,1,0,3.525,0v-12.338h3.525v12.338a1.763,1.763,0,1,0,3.525,0v-14.1A1.762,1.762,0,0,0,1489.64,1849.863Zm-37.014-7.05a5.294,5.294,0,0,1,5.288-5.288h10.575a5.294,5.294,0,0,1,5.288,5.288v3.525h-21.151Z" transform="translate(0 -47.137)" fill="#003a70"/>
          <path id="Path_640" data-name="Path 640" d="M1515.575,1918A10.587,10.587,0,0,0,1505,1928.575a1.763,1.763,0,0,0,3.525,0,7.05,7.05,0,0,1,14.1,0,1.763,1.763,0,0,0,3.525,0A10.587,10.587,0,0,0,1515.575,1918Z" transform="translate(-52.374 -109.986)" fill="#003a70"/>
        </g>
      </g>
      <g id="Group_799" data-name="Group 799" transform="translate(-709.781 184)">
        <g id="Group_785" data-name="Group 785" transform="translate(-18717.219 2109.111)">
          <g transform="matrix(1, 0, 0, 1, 19534.5, -2059.9)" filter="url(#Path_621-5)">
            <path id="Path_621-18" data-name="Path 621" d="M27.588-.136l86.686-.879,86.575.879a27.722,27.722,0,0,1,27.722,27.722l.866,77.774-.866,73.83a27.722,27.722,0,0,1-27.722,27.722l-84.725.866-88.537-.866A27.722,27.722,0,0,1-.134,179.19L-1,107.535l.866-79.949A27.722,27.722,0,0,1,27.588-.136Z" transform="translate(38.5 372.9)" fill="#fff"/>
          </g>
          <text id="Childcare_Provider_Business_Training_Counseling" data-name="Childcare Provider 
Business Training 
&amp; Counseling" transform="translate(19572.219 -1584.111)" fill="#003a70" font-size="18" font-family="Avenir-Medium, Avenir" font-weight="500"><tspan x="39.814" y="18">Childcare Provider </tspan><tspan x="45.502" y="43">Business Training </tspan><tspan x="60.487" y="68">&amp; Counseling</tspan></text>
        </g>
        <g id="Group_798" data-name="Group 798" transform="translate(857.445 463.206)">
          <g id="Group_787" data-name="Group 787" transform="translate(107.149 49.514)">
            <g id="Group_786" data-name="Group 786" transform="translate(0)">
              <path id="Path_625" data-name="Path 625" d="M216.978,478.631a1.035,1.035,0,0,0-1.345.576,1.209,1.209,0,0,1-1.121.741h-3.78a1.209,1.209,0,0,1-1.121-.741,1.035,1.035,0,1,0-1.921.77,3.253,3.253,0,0,0,3.042,2.04h3.78a3.253,3.253,0,0,0,3.041-2.04A1.035,1.035,0,0,0,216.978,478.631Z" transform="translate(-207.616 -478.556)" fill="#003a70" stroke="#003a70" stroke-width="1"/>
            </g>
          </g>
          <g id="Group_789" data-name="Group 789" transform="translate(95.555)">
            <g id="Group_788" data-name="Group 788" transform="translate(0)">
              <path id="Path_626" data-name="Path 626" d="M128.662,44.258a5.1,5.1,0,0,0-2.45-3.444,5.141,5.141,0,0,0,1.839-4.759,13.044,13.044,0,0,0-7.235-9.811A11.867,11.867,0,0,0,115.394,6.7a4.476,4.476,0,0,0,1.048-2.89A3.819,3.819,0,0,0,112.627,0h0a3.465,3.465,0,0,0-2.239.777,2.824,2.824,0,0,0-1.02,2.192,1.035,1.035,0,0,0,2.069,0,.766.766,0,0,1,.284-.61,1.4,1.4,0,0,1,.906-.29h0a1.748,1.748,0,0,1,1.746,1.746,2.441,2.441,0,0,1-2.441,2.441h0c-.025,0-.05,0-.075,0a11.868,11.868,0,0,0-8.363,19.985,13.045,13.045,0,0,0-7.235,9.811A5.141,5.141,0,0,0,98.1,40.814a5.107,5.107,0,0,0-1.458,7.564l2.216,2.831a4.612,4.612,0,0,0,3.634,1.759,4.564,4.564,0,0,0,2.287-.611,4.62,4.62,0,0,0,1.966-5.7L105.4,43.321a5.1,5.1,0,0,0-.314-.642h7.589a1.035,1.035,0,1,0,0-2.069h-9.556V38.429a.51.51,0,0,1,.509-.509h17.058a.51.51,0,0,1,.509.509v2.324a5.1,5.1,0,0,0-2.281,2.568l-1.344,3.334a4.62,4.62,0,0,0,1.966,5.7,4.564,4.564,0,0,0,2.287.611,4.613,4.613,0,0,0,3.634-1.759l2.216-2.831A5.1,5.1,0,0,0,128.662,44.258ZM102.35,18.13a9.805,9.805,0,1,1,9.805,9.805A9.817,9.817,0,0,1,102.35,18.13Zm1.129,25.964,1.344,3.335a2.529,2.529,0,0,1-4.338,2.5L98.27,47.1a3.038,3.038,0,1,1,5.21-3.008Zm17.212-10.314a1.035,1.035,0,0,0-1.035,1.035V35.85h-15V34.816a1.035,1.035,0,1,0-2.069,0v1.252a2.582,2.582,0,0,0-1.544,2.361V39.89a3.083,3.083,0,0,1-2.742-3.527,10.924,10.924,0,0,1,6.9-8.609,11.848,11.848,0,0,0,13.894,0,10.924,10.924,0,0,1,6.9,8.609,3.083,3.083,0,0,1-2.742,3.527V38.429a2.582,2.582,0,0,0-1.537-2.358V34.816A1.035,1.035,0,0,0,120.691,33.781Zm5.35,13.321-2.216,2.831a2.529,2.529,0,0,1-4.338-2.5l1.344-3.334a3.038,3.038,0,1,1,5.209,3.008Z" transform="translate(-95.555)" fill="#003a70" stroke="#003a70" stroke-width="1"/>
            </g>
          </g>
          <g id="Group_791" data-name="Group 791" transform="translate(115.747 40.61)">
            <g id="Group_790" data-name="Group 790">
              <path id="Path_627" data-name="Path 627" d="M292.486,392.8a1.034,1.034,0,1,0,.3.731A1.042,1.042,0,0,0,292.486,392.8Z" transform="translate(-290.72 -392.5)" fill="#003a70" stroke="#003a70" stroke-width="1"/>
            </g>
          </g>
          <g id="Group_793" data-name="Group 793" transform="translate(108.919 21.433)">
            <g id="Group_792" data-name="Group 792">
              <path id="Path_628" data-name="Path 628" d="M230.814,207.382a1.035,1.035,0,0,0-1.455.152,1.8,1.8,0,0,1-2.795,0,1.035,1.035,0,0,0-1.608,1.3,3.866,3.866,0,0,0,6.01,0A1.035,1.035,0,0,0,230.814,207.382Z" transform="translate(-224.726 -207.151)" fill="#003a70" stroke="#003a70" stroke-width="1"/>
            </g>
          </g>
          <g id="Group_795" data-name="Group 795" transform="translate(105.833 16.695)">
            <g id="Group_794" data-name="Group 794" transform="translate(0)">
              <path id="Path_629" data-name="Path 629" d="M198.605,162.061a2.41,2.41,0,0,0-3.4,0,1.035,1.035,0,0,0,1.463,1.463.339.339,0,0,1,.478,0,1.035,1.035,0,0,0,1.463-1.463Z" transform="translate(-194.898 -161.357)" fill="#003a70" stroke="#003a70" stroke-width="1"/>
            </g>
          </g>
          <g id="Group_797" data-name="Group 797" transform="translate(114.467 16.695)">
            <g id="Group_796" data-name="Group 796" transform="translate(0)">
              <path id="Path_630" data-name="Path 630" d="M282.048,162.06a2.41,2.41,0,0,0-3.4,0,1.035,1.035,0,1,0,1.463,1.463.339.339,0,0,1,.478,0,1.035,1.035,0,0,0,1.463-1.463Z" transform="translate(-278.34 -161.357)" fill="#003a70" stroke="#003a70" stroke-width="1"/>
            </g>
          </g>
        </g>
      </g>
      <g id="Group_807" data-name="Group 807" transform="translate(-231.781 305)">
        <g id="Group_785-2" data-name="Group 785" transform="translate(-18717.219 2109.111)">
          <g transform="matrix(1, 0, 0, 1, 19056.5, -2180.9)" filter="url(#Path_621-6)">
            <path id="Path_621-19" data-name="Path 621" d="M27.588-.136l86.686-.879,86.575.879a27.722,27.722,0,0,1,27.722,27.722l.866,77.774-.866,73.83a27.722,27.722,0,0,1-27.722,27.722l-84.725.866-88.537-.866A27.722,27.722,0,0,1-.134,179.19L-1,107.535l.866-79.949A27.722,27.722,0,0,1,27.588-.136Z" transform="translate(516.5 493.9)" fill="#fff"/>
          </g>
          <text id="Hosting_of_Trade_Delegations" data-name="Hosting of Trade Delegations" transform="translate(19572.219 -1574.111)" fill="#003a70" font-size="18" font-family="Avenir-Medium, Avenir" font-weight="500"><tspan x="46.807" y="18">Hosting of Trade </tspan><tspan x="66.157" y="43">Delegations</tspan></text>
          <g id="Group_814" data-name="Group 814" transform="translate(19654.438 -1679.875)">
            <g id="Group_809" data-name="Group 809" transform="translate(57.71 48.627)">
              <g id="Group_808" data-name="Group 808" transform="translate(0 0)">
                <path id="Path_642" data-name="Path 642" d="M452.874,85.544a1.283,1.283,0,1,0,.374.905A1.287,1.287,0,0,0,452.874,85.544Z" transform="translate(-450.688 -85.169)" fill="#003a70"/>
              </g>
            </g>
            <g id="Group_811" data-name="Group 811" transform="translate(28.299 78.786)">
              <g id="Group_810" data-name="Group 810">
                <path id="Path_643" data-name="Path 643" d="M223.185,321.07a1.283,1.283,0,1,0,.374.905A1.287,1.287,0,0,0,223.185,321.07Z" transform="translate(-220.999 -320.695)" fill="#003a70"/>
              </g>
            </g>
            <g id="Group_813" data-name="Group 813" transform="translate(0 43.261)">
              <g id="Group_812" data-name="Group 812">
                <path id="Path_644" data-name="Path 644" d="M63,53.255a1.281,1.281,0,1,0-2.226,1.266,17.2,17.2,0,0,1-2.793,20.614l-.971.971a4.8,4.8,0,0,0-1.093-1.688L42.757,61.261a8.848,8.848,0,0,0,2.354-1.686l2.524-2.524a1.281,1.281,0,0,0-1.811-1.811L43.3,57.764A6.236,6.236,0,0,1,38.861,59.6H33.816a1.281,1.281,0,0,0-.906.375l-3.862,3.862a2.941,2.941,0,0,1-4.16-4.16l8.817-8.817a17.234,17.234,0,0,1,20.455-2.882,1.281,1.281,0,0,0,1.242-2.24,19.866,19.866,0,0,0-12.179-2.293A19.516,19.516,0,0,0,32.79,48.209,19.724,19.724,0,0,0,5.777,76.933l.483.483a1.281,1.281,0,0,0,.276.208,4.815,4.815,0,0,0,4.808,4.448c.064,0,.128,0,.193,0,0,.065,0,.13,0,.195a4.822,4.822,0,0,0,4.826,4.823c.064,0,.128,0,.193,0,0,.065,0,.13,0,.195A4.822,4.822,0,0,0,21.37,92.1c.065,0,.13,0,.195,0A4.824,4.824,0,0,0,29.8,95.7l1.79-1.79L34,96.329a4.823,4.823,0,0,0,8.229-3.654c.08,0,.161.006.242.006a4.817,4.817,0,0,0,4.819-5.016c.065,0,.13,0,.195,0a4.821,4.821,0,0,0,4.819-5.018c.065,0,.13,0,.195,0a4.823,4.823,0,0,0,4.459-2.982,1.279,1.279,0,0,0,.345-.245l2.483-2.483A19.769,19.769,0,0,0,63,53.255ZM11.343,79.513a2.265,2.265,0,0,1-1.6-3.866l2.207-2.207a2.265,2.265,0,0,1,3.2,3.2L12.944,78.85A2.25,2.25,0,0,1,11.343,79.513Zm3.413,4.35a2.264,2.264,0,0,1,0-3.2l2.207-2.207h0a2.265,2.265,0,1,1,3.2,3.2l-2.207,2.207A2.267,2.267,0,0,1,14.756,83.864Zm5.013,5.013a2.264,2.264,0,0,1,0-3.2l2.207-2.207h0a2.265,2.265,0,0,1,3.2,3.2l-2.207,2.207A2.267,2.267,0,0,1,19.769,88.877Zm10.423,2.807-2.207,2.207a2.265,2.265,0,0,1-3.2-3.2l2.207-2.207h0a2.265,2.265,0,0,1,3.2,3.2ZM54.1,79.432a2.264,2.264,0,0,1-3.2,0l-5.33-5.33h0l-5.013-5.013A1.281,1.281,0,1,0,38.746,70.9L49.09,81.243a2.265,2.265,0,1,1-3.2,3.2L35.543,74.1a1.281,1.281,0,0,0-1.811,1.811l5.013,5.012h0l5.33,5.33a2.265,2.265,0,1,1-3.2,3.2l-5.33-5.33a1.278,1.278,0,0,0-.327-.237l-1.52-1.52a1.281,1.281,0,0,0-1.811,1.811l7.133,7.132a2.265,2.265,0,1,1-3.2,3.2L33.1,91.8a4.827,4.827,0,0,0-4.509-6.547c-.065,0-.13,0-.195,0a4.821,4.821,0,0,0-4.819-5.018c-.065,0-.13,0-.195,0a4.821,4.821,0,0,0-4.819-5.018c-.065,0-.13,0-.195,0a4.823,4.823,0,0,0-8.231-3.6L7.931,73.836a4.824,4.824,0,0,0-.711.905A17.164,17.164,0,0,1,30.948,50l-7.869,7.869a5.5,5.5,0,0,0,7.782,7.782l3.487-3.487h4.514a8.97,8.97,0,0,0,1.106-.071L54.1,76.229A2.268,2.268,0,0,1,54.1,79.432Z" transform="translate(0 -43.261)" fill="#003a70"/>
              </g>
            </g>
          </g>
        </g>
      </g>
      <g id="Group_805" data-name="Group 805" transform="translate(-691.781 -59)">
        <g id="Group_806" data-name="Group 806">
          <g id="Group_804" data-name="Group 804" transform="translate(-18719 2552)">
            <g transform="matrix(1, 0, 0, 1, 19518.28, -2259.79)" filter="url(#Path_621-7)">
              <path id="Path_621-20" data-name="Path 621" d="M19.2-.394l61.266-.621,61.187.621A19.593,19.593,0,0,1,161.251,19.2l.612,54.967-.612,52.18a19.593,19.593,0,0,1-19.593,19.593l-59.88.612L19.2,145.939A19.593,19.593,0,0,1-.388,126.346L-1,75.7l.612-56.5A19.593,19.593,0,0,1,19.2-.394Z" transform="translate(106.29 602.51)" fill="#fff"/>
            </g>
            <text id="Training_Program_Long-Term_Short-Term-2" data-name="Training Program
Long-Term 
Short-Term" transform="translate(19624 -1591)" fill="#003a70" font-size="18" font-family="Avenir-Medium, Avenir" font-weight="500"><tspan x="11.313" y="18">Training Program</tspan><tspan x="37.467" y="43">Long-Term </tspan><tspan x="35.973" y="68">Short-Term</tspan></text>
          </g>
          <path id="Path_641" data-name="Path 641" d="M46.355,18.406a1.208,1.208,0,0,1-.279-.97l.25-1.652a.617.617,0,1,1,1.22.185h0L47.3,17.593h.662a.617.617,0,1,1,0,1.234h-.69A1.207,1.207,0,0,1,46.355,18.406Zm.785,3.982a3.656,3.656,0,0,0,2.829-1.179.617.617,0,0,0-.93-.811l-.022.026a2.781,2.781,0,0,1-3.755,0,.617.617,0,0,0-.952.784,3.658,3.658,0,0,0,2.83,1.18Zm7.173,11.327a.617.617,0,0,0-.853.18h0l-.147.226a.617.617,0,1,0,1.035.672h0l.147-.226A.617.617,0,0,0,54.313,33.714Zm13.056,5.361v5.436a.617.617,0,0,1-.617.617H27.617A.617.617,0,0,1,27,44.511V39.075a8.563,8.563,0,0,1,6.271-8.215,20.435,20.435,0,0,1,4.087-.549l.726-.049c.366-.026.8-.06,1.224-.109l.06,0a2.842,2.842,0,0,0,.906-.157,2.066,2.066,0,0,0,1.032-.783,1.785,1.785,0,0,0,.3-.749l.34-2.656a8.328,8.328,0,0,1-2.488-3.349,16.444,16.444,0,0,1-.8-3.013c-.018-.09-.035-.178-.055-.268a2.965,2.965,0,0,1-.568.058,3.015,3.015,0,0,1-1.047-5.844,1.308,1.308,0,0,1-.2-.7v-2.6H35.766a2.618,2.618,0,0,1-1.8-4.517l1.625-1.542a.617.617,0,1,1,.85.895L34.813,6.469a1.384,1.384,0,0,0,.952,2.388h21.2a1.851,1.851,0,0,0,1.719-2.536,8.036,8.036,0,0,0-7.5-5.088H45.693a13.438,13.438,0,0,0-7.01,1.974.617.617,0,0,1-.66-1.042l.017-.01A14.667,14.667,0,0,1,45.693,0h5.488A9.264,9.264,0,0,1,59.83,5.865a3.077,3.077,0,0,1-2.245,4.158v2.669a1.312,1.312,0,0,1-.219.725,3.016,3.016,0,0,1-1.121,5.817,2.923,2.923,0,0,1-.483-.044c-.017.085-.035.168-.051.253a16.481,16.481,0,0,1-.8,3.011A8.333,8.333,0,0,1,52.426,25.8l.341,2.663a1.743,1.743,0,0,0,.2.608c.029.052.06.1.091.149a1.7,1.7,0,0,0,.965.739,5.691,5.691,0,0,0,1.013.194l.27.035c.552.053.7.061.879.079.831.059,1.461.117,1.914.153a16.163,16.163,0,0,1,3,.433,8.55,8.55,0,0,1,6.264,8.03c0,.063.008.125.008.188Zm-2.334-3.835H60.692a.441.441,0,0,0-.441.441v.044a.441.441,0,0,0,.441.441h.86a1.677,1.677,0,0,1,1.675,1.675.441.441,0,0,0,.441.441h2.419a7.388,7.388,0,0,0-.838-2.68C65.181,35.48,65.109,35.362,65.034,35.241ZM43.745,32.232l3.395,2.521.57-.423,4.974-3.7a2.884,2.884,0,0,1-.407-.392l-.5.1a22.827,22.827,0,0,1-9.185,0l-.525-.106a3.246,3.246,0,0,1-.448.416ZM56.622,14.473a19.315,19.315,0,0,1-.606,3.512,1.733,1.733,0,0,0,.229.016,1.784,1.784,0,0,0,.377-3.527Zm-.271-4.381H54.423V12.78h1.84a.088.088,0,0,0,.088-.088ZM53.189,12.78V10.092H51.112V12.78Zm-6.622,0V10.092H44.49V12.78Zm-3.311-2.688H41.18V12.78h2.077ZM47.8,12.78h2.077V10.092H47.8Zm-9.784-2.688v2.6a.089.089,0,0,0,.088.088h1.84V10.092Zm.332,7.881a20.279,20.279,0,0,1-.6-3.516A1.784,1.784,0,0,0,38.036,18a1.759,1.759,0,0,0,.314-.028Zm4.542,7.008a.606.606,0,0,1,.133.1,7.125,7.125,0,0,0,8.318,0,.613.613,0,0,1,.132-.1,7.1,7.1,0,0,0,2.3-2.989,15.568,15.568,0,0,0,.728-2.785c.061-.31.122-.618.188-.922v0l.539-2.461a7.21,7.21,0,0,0,.163-1.516v-.29H52.508a1.469,1.469,0,1,1-2.891,0H44.752a1.431,1.431,0,0,1,.024.235,1.469,1.469,0,0,1-2.938,0,1.433,1.433,0,0,1,.024-.235H38.979a8.344,8.344,0,0,0,.163,1.8l.262,1.2.27,1.231c.071.315.132.635.2.957a15.532,15.532,0,0,0,.729,2.787,7.086,7.086,0,0,0,2.294,2.988Zm.2,1.6-.261,2.042a2.93,2.93,0,0,1-.116.484l.128.026a21.584,21.584,0,0,0,8.691,0l.121-.025a2.814,2.814,0,0,1-.109-.487l-.261-2.041a8.391,8.391,0,0,1-8.193,0Zm-3.881,4.824,3.539,5.449,3.189-1.461L41.782,32.31l-1.42-1.055a4.186,4.186,0,0,1-.941.128l-.213.023ZM28.717,36.49h6.63a.138.138,0,0,0,.138-.138v-.429a.138.138,0,0,0-.138-.138H32.586a1.375,1.375,0,0,1-1.373-1.373.138.138,0,0,0-.138-.138H30.05A7.13,7.13,0,0,0,28.791,36.3C28.766,36.361,28.742,36.425,28.717,36.49Zm-.483,7.4h5.112V39.355a.617.617,0,0,1,1.234,0v1.09h3.027a1.375,1.375,0,0,1,1.372,1.372.138.138,0,0,0,.138.138h2.762a1.375,1.375,0,0,1,1.372,1.372v.43a1.364,1.364,0,0,1-.014.138h3.286V36.483L42.777,38.2A.617.617,0,0,1,42,37.974l-4.193-6.455-.37.025a19.217,19.217,0,0,0-3.843.506,7.244,7.244,0,0,0-2.206,1.03,1.372,1.372,0,0,1,1.058,1.332.138.138,0,0,0,.138.138h2.762a1.375,1.375,0,0,1,1.372,1.372v.429a1.375,1.375,0,0,1-1.371,1.373H28.367a7.218,7.218,0,0,0-.132,1.352Zm13.644,0a.138.138,0,0,0,.138-.138v-.43a.138.138,0,0,0-.138-.138H39.117a1.375,1.375,0,0,1-1.372-1.372.138.138,0,0,0-.138-.138H34.58v2.215Zm13.436,0V40.633a.463.463,0,0,0-.463-.463h-.044a.463.463,0,0,0-.463.463,1.7,1.7,0,0,1-1.7,1.7h-.043a.463.463,0,0,0-.463.463v1.1Zm10.82,0V39.516H63.666a1.677,1.677,0,0,1-1.675-1.675.441.441,0,0,0-.441-.441h-.86a1.677,1.677,0,0,1-1.675-1.675v-.044a1.677,1.677,0,0,1,1.675-1.675h3.377a7.257,7.257,0,0,0-3.3-1.958A15.026,15.026,0,0,0,58,31.656l-.564-.047c-.313-.027-.63-.052-.948-.076h-.022l-.684,1.052a.617.617,0,1,1-1.035-.672l.328-.5-.2-.026a8.545,8.545,0,0,1-.921-.156l-5.612,4.168,3.189,1.461.488-.75a.617.617,0,0,1,1.035.672l-.778,1.2a.617.617,0,0,1-.776.225l-3.748-1.717v7.411h3.152v-1.1a1.7,1.7,0,0,1,1.7-1.7h.044a.463.463,0,0,0,.463-.463,1.7,1.7,0,0,1,1.7-1.7h.044a1.7,1.7,0,0,1,1.7,1.7v3.261h3.239V39.355a.617.617,0,0,1,1.234,0h0v4.539ZM44.893,6.225a.617.617,0,0,1-.253-.5V2.952a.617.617,0,0,1,.617-.617h3.856a.617.617,0,0,1,.617.617V5.727a.617.617,0,0,1-.253.5l-1.928,1.41a.618.618,0,0,1-.729,0Zm.981-.811,1.31.96,1.311-.96V3.568H45.873Z" transform="translate(939.135 912.727)" fill="#003a70" stroke="#003a70" stroke-width="1"/>
        </g>
      </g>
    </g>
    <g id="Group_865" data-name="Group 865">
      <g id="Group_815" data-name="Group 815" transform="translate(-18133 2298)">
        <g transform="matrix(1, 0, 0, 1, 18240.5, -2064.79)" filter="url(#Path_621-8)">
          <path id="Path_621-21" data-name="Path 621" d="M32,0,132.064-1.015,232,0a32,32,0,0,1,32,32l1,89.776L264,207a32,32,0,0,1-32,32l-97.8,1L32,239A32,32,0,0,1,0,207l-1-82.713L0,32A32,32,0,0,1,32,0Z" transform="translate(1332.5 377.79)" fill="#fff"/>
        </g>
        <g id="Group_775-2" data-name="Group 775" transform="translate(19053.658 -2978.344)">
          <path id="Path_619-2" data-name="Path 619" d="M724.786,1372.571A10.786,10.786,0,1,0,714,1361.786,10.8,10.8,0,0,0,724.786,1372.571Zm0-17.976a7.19,7.19,0,1,1-7.19,7.19A7.2,7.2,0,0,1,724.786,1354.6Z" transform="translate(-67.633 0)" fill="#8e1a1d"/>
          <path id="Path_620-2" data-name="Path 620" d="M678.724,1446.166h-1.8v-7.19a12.6,12.6,0,0,0-12.583-12.583H651.76a1.8,1.8,0,1,0,0,3.595h12.583a9,9,0,0,1,8.988,8.988v7.19H640.974v-8.988a1.8,1.8,0,0,0-3.6,0v8.988h-3.6v-13.723l3.641-2.023a5.568,5.568,0,1,0-1.753-3.137l-11.748,6.526a1.8,1.8,0,0,0,.874,3.369,1.777,1.777,0,0,0,.871-.226l4.52-2.511v11.726H624.8a1.8,1.8,0,0,0-1.8,1.8v10.786a1.8,1.8,0,0,0,1.8,1.8h53.928a1.8,1.8,0,0,0,1.8-1.8v-10.786A1.8,1.8,0,0,0,678.724,1446.166Zm-36.7-18.354a1.833,1.833,0,0,0,.282-.241A1.753,1.753,0,0,1,642.025,1427.812Zm.7-1.192a1.754,1.754,0,0,0,.027-.318c0,.032.019.059.019.091A1.672,1.672,0,0,1,642.726,1426.62Zm-.227.667a1.77,1.77,0,0,0,.153-.3A1.7,1.7,0,0,1,642.5,1427.287Zm.183-1.338a1.752,1.752,0,0,0-.108-.34A1.778,1.778,0,0,1,642.682,1425.95Zm-.29-.609a1.813,1.813,0,0,0-.237-.279A1.782,1.782,0,0,1,642.392,1425.34Zm-1.2-.7a1.794,1.794,0,0,0-.3-.026c.03,0,.056-.018.086-.018A1.676,1.676,0,0,1,641.19,1424.639Zm.673.225a1.819,1.819,0,0,0-.29-.148A1.749,1.749,0,0,1,641.863,1424.864Zm-1.671-.071a1.768,1.768,0,0,1,.33-.106A1.7,1.7,0,0,0,640.192,1424.793Zm36.734,32.159H626.594v-7.19h50.332Z" transform="translate(0 -52.024)" fill="#8e1a1d"/>
        </g>
        <text id="Professional_Clinics_IT_Finance_Insurance" data-name="Professional Clinics 
IT Finance Insurance" transform="translate(19572 -1553)" fill="#8e1a1d" font-size="18" font-family="Avenir-Medium, Avenir" font-weight="500"><tspan x="55.159" y="18">Professional Clinics </tspan><tspan x="50.128" y="43">IT Finance Insurance</tspan></text>
      </g>
      <g id="Group_819" data-name="Group 819" transform="translate(-18385 2284)">
        <g transform="matrix(1, 0, 0, 1, 18492.5, -2050.79)" filter="url(#Path_621-9)">
          <path id="Path_621-22" data-name="Path 621" d="M23.494-.262l74.272-.753,74.177.753A23.752,23.752,0,0,1,195.7,23.49l.742,66.636-.742,63.257a23.752,23.752,0,0,1-23.752,23.752l-72.592.742-75.858-.742A23.752,23.752,0,0,1-.258,153.383L-1,91.99l.742-68.5A23.752,23.752,0,0,1,23.494-.262Z" transform="translate(1114.78 377.85)" fill="#fff"/>
        </g>
        <text id="International_Training_Classes" data-name="International
Training Classes" transform="translate(19606 -1573)" fill="#8e1a1d" font-size="18" font-family="Avenir-Medium, Avenir" font-weight="500"><tspan x="47.484" y="18">International</tspan><tspan x="34.173" y="43">Training Classes</tspan></text>
        <g id="Group_820" data-name="Group 820" transform="translate(19630 -1637.908)">
          <path id="Path_655" data-name="Path 655" d="M65.553,32.577c-.121,0-.252.009-.393.009A5.494,5.494,0,0,0,61.5,34.034,4.565,4.565,0,0,0,60,37.391a4.626,4.626,0,0,0,1.513,3.389,5.341,5.341,0,0,0,3.637,1.409h5.822a.83.83,0,1,1,0,1.657H65.146a7.173,7.173,0,0,1-4.894-1.895,6.108,6.108,0,0,1-.014-9.089,7.253,7.253,0,0,1,3.8-1.832,2.7,2.7,0,0,1-.645-1.745v-3.3a2.746,2.746,0,0,1,.894-2.008,3.146,3.146,0,0,1,1.923-.824,2.708,2.708,0,0,1-.03-.407V20.575a1.9,1.9,0,0,1,.619-1.391,2.184,2.184,0,0,1,1.489-.576h3.14a.86.86,0,0,1,.887.83v3.311a2.709,2.709,0,0,1-.03.407,3.138,3.138,0,0,1,1.923.824,3.055,3.055,0,0,1,.558.708,25.342,25.342,0,0,1,2.6-1.438,27.82,27.82,0,0,1,3.227-1.3,23.218,23.218,0,0,0-4.941-6.562A25.464,25.464,0,0,0,62.06,8.9c-.514,1.431-1.089,3.016-1.62,4.441-.467,1.256-.874,2.318-1.129,2.929a7.806,7.806,0,0,1-2.155,3.182,6.234,6.234,0,0,1-3.644,1.281,11.067,11.067,0,0,0-1.735.238.891.891,0,0,1-1.076-.6.824.824,0,0,1,.639-1.005,12.662,12.662,0,0,1,2.03-.288,4.51,4.51,0,0,0,2.619-.88,6.3,6.3,0,0,0,1.667-2.534c.276-.658.669-1.688,1.109-2.866.457-1.231,1-2.706,1.5-4.112-.719-.056-1.445-.088-2.182-.088a26.684,26.684,0,0,0-6.252.736,25.781,25.781,0,0,0-5.456,1.989,2.818,2.818,0,0,1-.813,1.353A3.153,3.153,0,0,1,44.3,13.4v4.282a2.741,2.741,0,0,1-.894,2.008,3.164,3.164,0,0,1-2.155.833H39.955a3.157,3.157,0,0,1-2.155-.833,2.869,2.869,0,0,1-.5-.62,22.334,22.334,0,0,0-2.716,5.159c-.114.3-.218.611-.319.921h7.063c2.091,0,3.392-.99,4.814-2.371.451-.442.914-.877,1.4-1.29a.931.931,0,0,1,1.254.05.788.788,0,0,1-.051,1.168c-.457.392-.894.8-1.321,1.219-1.8,1.745-3.456,2.881-6.081,2.881H33.8a21.8,21.8,0,0,0,2.007,15.241h7.533a2.662,2.662,0,0,1-.279-1.184v-3.3a2.741,2.741,0,0,1,.894-2.008,3.151,3.151,0,0,1,1.923-.827,2.663,2.663,0,0,1-.03-.4V32.144a1.894,1.894,0,0,1,.619-1.388,2.169,2.169,0,0,1,1.489-.576H51.1a.862.862,0,0,1,.891.83v3.311a2.662,2.662,0,0,1-.034.4,3.143,3.143,0,0,1,1.923.827,2.741,2.741,0,0,1,.894,2.008v3.3a2.746,2.746,0,0,1-.894,2.008,3.125,3.125,0,0,1-1.264.708V46.12A9.254,9.254,0,0,0,54.1,47.4a3.372,3.372,0,0,0,1.835.573,7.557,7.557,0,0,1,1.778.2.821.821,0,0,1,.639,1,.894.894,0,0,1-1.079.6,6.3,6.3,0,0,0-1.351-.147,5.146,5.146,0,0,1-2.827-.864c-.181-.119-.36-.244-.528-.376a2.8,2.8,0,0,1-.844,1.485,3.157,3.157,0,0,1-2.155.833H48.271a3.158,3.158,0,0,1-2.155-.833,2.741,2.741,0,0,1-.894-2.008V43.7H36.785a23.7,23.7,0,0,0,3.725,4.435,25.713,25.713,0,0,0,17.574,6.781,26.724,26.724,0,0,0,3.062-.175c-.087-.213-.171-.42-.255-.62-.195-.473-.363-.868-.494-1.153a11.088,11.088,0,0,0-.645-1.244.8.8,0,0,1,.333-1.127.917.917,0,0,1,1.207.31,12.28,12.28,0,0,1,.74,1.422c.148.323.319.73.514,1.2.118.282.249.6.39.949a25.4,25.4,0,0,0,12.72-6.339,23.7,23.7,0,0,0,3.631-4.288H75a.83.83,0,1,1,0-1.657h5.281a21.785,21.785,0,0,0,1.015-18.717,25.685,25.685,0,0,0-3.109,1.25A23.343,23.343,0,0,0,75.1,26.488v2.8a2.74,2.74,0,0,1-.894,2.008A3.094,3.094,0,0,1,72.945,32v4.285a2.739,2.739,0,0,1-.894,2,3.157,3.157,0,0,1-2.155.833H68.6a3.157,3.157,0,0,1-2.155-.833,2.739,2.739,0,0,1-.894-2ZM46.772,36.361a4.187,4.187,0,0,1-.659.016,1.325,1.325,0,0,0-.9.348,1.15,1.15,0,0,0-.373.836v3.3a1.151,1.151,0,0,0,.373.836,1.325,1.325,0,0,0,.9.348.858.858,0,0,1,.887.827v4.989a1.151,1.151,0,0,0,.373.836,1.325,1.325,0,0,0,.9.348h1.294a1.326,1.326,0,0,0,.9-.348,1.15,1.15,0,0,0,.373-.836V42.869a.859.859,0,0,1,.891-.827,1.318,1.318,0,0,0,.894-.348,1.138,1.138,0,0,0,.373-.836v-3.3a1.138,1.138,0,0,0-.373-.836,1.317,1.317,0,0,0-.894-.348c-.212,0-.471.016-.672,0a3.222,3.222,0,0,1-4.282-.013Zm3.056-1.19a1.159,1.159,0,0,0,.38-.849V31.838H47.959a.323.323,0,0,0-.329.307v2.177a1.159,1.159,0,0,0,.38.849,1.345,1.345,0,0,0,1.819,0ZM43.67,4.141a2.736,2.736,0,0,1-.03.407,3.13,3.13,0,0,1,1.923.824,2.741,2.741,0,0,1,.894,2.008V9.44a27.44,27.44,0,0,1,4.928-1.694,28.457,28.457,0,0,1,6.7-.8,27.558,27.558,0,0,1,18.828,7.267,23.634,23.634,0,0,1,0,35.089,28.029,28.029,0,0,1-37.659,0,23.913,23.913,0,0,1-7.8-17.543A23.315,23.315,0,0,1,32.9,23.685a24.325,24.325,0,0,1,4.01-6.959V13.4a3.106,3.106,0,0,1-1.264-.711,2.731,2.731,0,0,1-.9-2.008v-3.3a2.731,2.731,0,0,1,.9-2.008,3.122,3.122,0,0,1,1.923-.824,2.738,2.738,0,0,1-.034-.407V1.967A1.908,1.908,0,0,1,38.15.576,2.2,2.2,0,0,1,39.643,0h3.14a.86.86,0,0,1,.887.83Zm-.935,2.052a3.218,3.218,0,0,1-4.279-.013,4.23,4.23,0,0,1-.662.016,1.317,1.317,0,0,0-.894.348,1.137,1.137,0,0,0-.373.836v3.3a1.138,1.138,0,0,0,.373.836,1.316,1.316,0,0,0,.894.348.861.861,0,0,1,.891.827v4.99a1.138,1.138,0,0,0,.373.836,1.325,1.325,0,0,0,.9.348h1.294a1.317,1.317,0,0,0,.894-.348,1.141,1.141,0,0,0,.377-.836v-4.99a.858.858,0,0,1,.887-.827,1.325,1.325,0,0,0,.9-.348,1.15,1.15,0,0,0,.373-.836v-3.3a1.15,1.15,0,0,0-.373-.836,1.325,1.325,0,0,0-.9-.348C43.2,6.2,42.94,6.211,42.735,6.192Zm-1.223-1.2a1.159,1.159,0,0,0,.38-.849V1.657H39.643a.322.322,0,0,0-.329.31V4.141a1.169,1.169,0,0,0,.377.849,1.349,1.349,0,0,0,1.822,0ZM67.1,24.791a4.616,4.616,0,0,1-.659.012,1.313,1.313,0,0,0-.9.351,1.144,1.144,0,0,0-.373.833v3.3a1.151,1.151,0,0,0,.373.836,1.31,1.31,0,0,0,.9.348.86.86,0,0,1,.887.83v4.989a1.149,1.149,0,0,0,.373.833,1.311,1.311,0,0,0,.9.348H69.9a1.311,1.311,0,0,0,.9-.348,1.149,1.149,0,0,0,.373-.833V31.3a.861.861,0,0,1,.891-.83,1.3,1.3,0,0,0,.894-.348,1.138,1.138,0,0,0,.373-.836v-3.3a1.131,1.131,0,0,0-.373-.833,1.311,1.311,0,0,0-.894-.351c-.212,0-.471.016-.672,0a3.227,3.227,0,0,1-4.282-.009ZM70.158,23.6a1.149,1.149,0,0,0,.38-.849V20.265H68.289a.324.324,0,0,0-.329.31v2.174a1.149,1.149,0,0,0,.38.849,1.345,1.345,0,0,0,1.819,0Z" transform="translate(16.466 -5.378)" fill="#8e1a1d" stroke="#8e1a1d" stroke-width="0.8"/>
        </g>
      </g>
      <g id="Group_821" data-name="Group 821" transform="translate(638 -453)">
        <g id="Group_806-2" data-name="Group 806">
          <g id="Group_804-2" data-name="Group 804" transform="translate(-18719 2552)">
            <g transform="matrix(1, 0, 0, 1, 18188.5, -1865.79)" filter="url(#Path_621-10)">
              <path id="Path_621-23" data-name="Path 621" d="M19.2-.394l61.266-.621,61.187.621A19.593,19.593,0,0,1,161.251,19.2l.612,54.967-.612,52.18a19.593,19.593,0,0,1-19.593,19.593l-59.88.612L19.2,145.939A19.593,19.593,0,0,1-.388,126.346L-1,75.7l.612-56.5A19.593,19.593,0,0,1,19.2-.394Z" transform="translate(1436.07 208.51)" fill="#fff"/>
            </g>
            <text id="Mentorship" transform="translate(19624 -1562)" fill="#8e1a1d" font-size="18" font-family="Avenir-Medium, Avenir" font-weight="500"><tspan x="34.173" y="18">Mentorship</tspan></text>
          </g>
          <g id="Group_822" data-name="Group 822" transform="translate(905.041 807.397)">
            <path id="Path_656" data-name="Path 656" d="M77.56,151.018l-4.488-1.3v-.97a3.891,3.891,0,0,0,1.181-2.545,4.513,4.513,0,0,0,.63-1.661l.025-.3a1.349,1.349,0,0,0-.368-1.048v-.024a3.862,3.862,0,0,0-3.858-3.856h-.649a3.862,3.862,0,0,0-3.858,3.856v.024a1.349,1.349,0,0,0-.368,1.048l.025.3a3.013,3.013,0,0,0,.644,1.781,3.88,3.88,0,0,0,1.169,2.416v.977l-4.53,1.31a3.061,3.061,0,0,0-2.051,2.886v4.9h1.69v-4.9a1.36,1.36,0,0,1,.874-1.276l5.708-1.649v-1.288a3.8,3.8,0,0,0,1.024.154,3.853,3.853,0,0,0,1.022-.152v1.286l5.664,1.636a1.367,1.367,0,0,1,.918,1.291v4.9h1.69v-4.9A3.071,3.071,0,0,0,77.56,151.018Zm-9.412-5.059v-.4l-.313-.253c-.157-.127-.27-.328-.319-.9l0-.017.351-.093v-1.122a2.17,2.17,0,0,1,2.168-2.166h.649a2.17,2.17,0,0,1,2.168,2.166v1.122l.351.093,0,.017a3.626,3.626,0,0,1-.5,1.1l-.133.21v.247a2.211,2.211,0,0,1-4.422,0Z" transform="translate(7.282 14.809)" fill="#8e1a1d" stroke="#8e1a1d" stroke-width="0.8"/>
            <rect id="Rectangle_596" data-name="Rectangle 596" width="1.69" height="3.041" transform="translate(81.556 170.584)" fill="#8e1a1d" stroke="#8e1a1d" stroke-width="0.8"/>
            <rect id="Rectangle_597" data-name="Rectangle 597" width="1.69" height="3.041" transform="translate(72.037 170.584)" fill="#8e1a1d" stroke="#8e1a1d" stroke-width="0.8"/>
            <path id="Path_657" data-name="Path 657" d="M91.3,151.018l-4.488-1.3v-.97a3.883,3.883,0,0,0,1.181-2.545,4.513,4.513,0,0,0,.63-1.661l.025-.3a1.343,1.343,0,0,0-.368-1.048v-.024a3.861,3.861,0,0,0-3.856-3.856h-.651a3.861,3.861,0,0,0-3.856,3.856v.025a1.339,1.339,0,0,0-.37,1.043l.025.308a3.024,3.024,0,0,0,.644,1.781,3.88,3.88,0,0,0,1.169,2.416v.977l-4.53,1.31a3.059,3.059,0,0,0-2.05,2.886v4.9H76.5v-4.9a1.358,1.358,0,0,1,.874-1.276l5.707-1.649v-1.288a3.8,3.8,0,0,0,1.024.154,3.853,3.853,0,0,0,1.022-.152v1.286l5.666,1.636a1.37,1.37,0,0,1,.918,1.291v4.9H93.4v-4.9A3.073,3.073,0,0,0,91.3,151.018Zm-9.411-5.059v-.4l-.314-.253c-.157-.127-.27-.328-.319-.894v-.02l.351-.093v-1.122a2.169,2.169,0,0,1,2.166-2.166h.651a2.169,2.169,0,0,1,2.166,2.166v1.122l.351.093,0,.017a3.584,3.584,0,0,1-.5,1.1l-.132.21v.247a2.211,2.211,0,0,1-4.422,0Z" transform="translate(16.761 14.809)" fill="#8e1a1d" stroke="#8e1a1d" stroke-width="0.8"/>
            <rect id="Rectangle_598" data-name="Rectangle 598" width="1.69" height="3.041" transform="translate(104.776 170.584)" fill="#8e1a1d" stroke="#8e1a1d" stroke-width="0.8"/>
            <rect id="Rectangle_599" data-name="Rectangle 599" width="1.69" height="3.041" transform="translate(95.258 170.584)" fill="#8e1a1d" stroke="#8e1a1d" stroke-width="0.8"/>
            <path id="Path_658" data-name="Path 658" d="M81.479,150.075l.468-1.624-3.332-.963v-.968a3.878,3.878,0,0,0,1.181-2.545,4.525,4.525,0,0,0,.632-1.661l.025-.3a1.346,1.346,0,0,0-.37-1.048v-.024a3.86,3.86,0,0,0-3.856-3.856h-.651a3.86,3.86,0,0,0-3.856,3.856v.024a1.345,1.345,0,0,0-.368,1.046l.025.3a3.019,3.019,0,0,0,.642,1.783,3.884,3.884,0,0,0,1.169,2.415v.977l-3.331.963.47,1.624,4.551-1.316v-1.286a3.48,3.48,0,0,0,2.046,0v1.286Zm-7.787-6.35v-.4l-.314-.252c-.155-.128-.27-.328-.318-.9l0-.019.351-.093v-1.12a2.169,2.169,0,0,1,2.166-2.166h.651a2.169,2.169,0,0,1,2.166,2.168l0,1.119.35.093v.019a3.7,3.7,0,0,1-.5,1.1l-.133.208v.247a2.211,2.211,0,1,1-4.422,0Z" transform="translate(13.348 13.269)" fill="#8e1a1d" stroke="#8e1a1d" stroke-width="0.8"/>
            <path id="Path_659" data-name="Path 659" d="M60.412,133.972v7.457H77.072v-1.69H62.1v-5.768Z" transform="translate(6.832 11.122)" fill="#8e1a1d" stroke="#8e1a1d" stroke-width="0.8"/>
            <path id="Path_660" data-name="Path 660" d="M112.057,117.849H65.345v4.85h1.9v13.226a24.867,24.867,0,0,1-4.73-.558v-.933a3.889,3.889,0,0,0,1.183-2.547,4.572,4.572,0,0,0,.63-1.661l.025-.3a1.342,1.342,0,0,0-.37-1.048v-.025A3.859,3.859,0,0,0,60.127,125h-.651a3.86,3.86,0,0,0-3.856,3.854v.025a1.348,1.348,0,0,0-.37,1.048l.027.3a3.01,3.01,0,0,0,.642,1.781,3.888,3.888,0,0,0,1.169,2.416v.977l-4.529,1.311a3.059,3.059,0,0,0-2.051,2.886v10.152a3.989,3.989,0,0,0,3.691,3.966v19.9h1.69V153.749h7.829v19.874h1.69V142.357a.641.641,0,0,1,.639-.64H78.985A4.023,4.023,0,0,0,83,137.7a1.719,1.719,0,0,0-1.717-1.717H70.636l-1.7-.02V122.7h39.534v28.163H94.537v1.69h15.621V122.7h1.9Zm-55.1,12.219.351-.093v-1.122a2.168,2.168,0,0,1,2.166-2.165h.651a2.168,2.168,0,0,1,2.166,2.165v1.122l.351.093v.017a3.692,3.692,0,0,1-.5,1.1l-.133.208v.247a2.211,2.211,0,0,1-4.422,0v-.4l-.314-.253c-.155-.127-.269-.326-.318-.9Zm24.355,7.63a2.331,2.331,0,0,1-2.329,2.329H66.046a2.331,2.331,0,0,0-2.329,2.33v9.7H55.888V140.871H54.2v11.158a2.3,2.3,0,0,1-2-2.276V139.6a1.361,1.361,0,0,1,.874-1.278l5.707-1.649v-1.286a3.519,3.519,0,0,0,2.046,0V136.7l.642.159a26.477,26.477,0,0,0,6.065.776Zm29.053-16.689H67.035v-1.47h43.332Z" transform="translate(0 0)" fill="#8e1a1d" stroke="#8e1a1d" stroke-width="0.8"/>
            <rect id="Rectangle_600" data-name="Rectangle 600" width="1.69" height="17.157" transform="translate(58.958 156.467)" fill="#8e1a1d" stroke="#8e1a1d" stroke-width="0.8"/>
            <rect id="Rectangle_601" data-name="Rectangle 601" width="1.69" height="1.69" transform="translate(85.638 142.876)" fill="#8e1a1d" stroke="#8e1a1d" stroke-width="0.8"/>
            <rect id="Rectangle_602" data-name="Rectangle 602" width="1.69" height="1.612" transform="translate(76.759 133.084)" fill="#8e1a1d" stroke="#8e1a1d" stroke-width="0.8"/>
            <rect id="Rectangle_603" data-name="Rectangle 603" width="1.69" height="3.224" transform="translate(81.199 131.472)" fill="#8e1a1d" stroke="#8e1a1d" stroke-width="0.8"/>
            <rect id="Rectangle_604" data-name="Rectangle 604" width="1.69" height="12.193" transform="translate(85.638 128.993)" fill="#8e1a1d" stroke="#8e1a1d" stroke-width="0.8"/>
            <rect id="Rectangle_605" data-name="Rectangle 605" width="1.69" height="1.69" transform="translate(90.078 142.876)" fill="#8e1a1d" stroke="#8e1a1d" stroke-width="0.8"/>
            <rect id="Rectangle_606" data-name="Rectangle 606" width="1.69" height="1.69" transform="translate(98.958 142.876)" fill="#8e1a1d" stroke="#8e1a1d" stroke-width="0.8"/>
            <rect id="Rectangle_607" data-name="Rectangle 607" width="1.69" height="9.875" transform="translate(90.078 131.311)" fill="#8e1a1d" stroke="#8e1a1d" stroke-width="0.8"/>
            <rect id="Rectangle_608" data-name="Rectangle 608" width="1.69" height="9.212" transform="translate(94.518 131.973)" fill="#8e1a1d" stroke="#8e1a1d" stroke-width="0.8"/>
            <rect id="Rectangle_609" data-name="Rectangle 609" width="1.69" height="6.498" transform="translate(98.958 134.688)" fill="#8e1a1d" stroke="#8e1a1d" stroke-width="0.8"/>
            <rect id="Rectangle_610" data-name="Rectangle 610" width="1.69" height="1.69" transform="translate(103.397 142.876)" fill="#8e1a1d" stroke="#8e1a1d" stroke-width="0.8"/>
            <rect id="Rectangle_611" data-name="Rectangle 611" width="1.69" height="11.404" transform="translate(103.397 129.782)" fill="#8e1a1d" stroke="#8e1a1d" stroke-width="0.8"/>
            <rect id="Rectangle_612" data-name="Rectangle 612" width="1.69" height="1.69" transform="translate(94.518 142.876)" fill="#8e1a1d" stroke="#8e1a1d" stroke-width="0.8"/>
            <rect id="Rectangle_613" data-name="Rectangle 613" width="1.69" height="1.69" transform="translate(76.759 142.876)" fill="#8e1a1d" stroke="#8e1a1d" stroke-width="0.8"/>
            <rect id="Rectangle_614" data-name="Rectangle 614" width="1.69" height="1.69" transform="translate(81.199 142.876)" fill="#8e1a1d" stroke="#8e1a1d" stroke-width="0.8"/>
          </g>
        </g>
      </g>
      <g id="Group_823" data-name="Group 823" transform="translate(707.568 -623)">
        <g id="Group_806-3" data-name="Group 806">
          <g id="Group_804-3" data-name="Group 804" transform="translate(-18719 2552)">
            <g transform="matrix(1, 0, 0, 1, 18118.93, -1695.79)" filter="url(#Path_621-11)">
              <path id="Path_621-24" data-name="Path 621" d="M19.2-.394l61.266-.621,61.187.621A19.593,19.593,0,0,1,161.251,19.2l.612,54.967-.612,52.18a19.593,19.593,0,0,1-19.593,19.593l-59.88.612L19.2,145.939A19.593,19.593,0,0,1-.388,126.346L-1,75.7l.612-56.5A19.593,19.593,0,0,1,19.2-.394Z" transform="translate(1505.64 38.51)" fill="#fff"/>
            </g>
            <text id="Investor_Pitch" data-name="Investor
Pitch" transform="translate(19624 -1574)" fill="#8e1a1d" font-size="18" font-family="Avenir-Medium, Avenir" font-weight="500"><tspan x="47.988" y="18">Investor</tspan><tspan x="60.831" y="43">Pitch</tspan></text>
            <g id="Group_860" data-name="Group 860" transform="translate(19559.688 -1751.02)">
              <g id="Group_859" data-name="Group 859" transform="translate(123.313 117.787)">
                <g id="Group_840" data-name="Group 840">
                  <g id="Group_831" data-name="Group 831">
                    <g id="Group_826" data-name="Group 826" transform="translate(5.504)">
                      <g id="Group_825" data-name="Group 825">
                        <g id="Group_824" data-name="Group 824">
                          <path id="Path_661" data-name="Path 661" d="M131.713,129.778a4.408,4.408,0,0,1-4.386-4.027,3.355,3.355,0,0,1-.744-2.027l-.031-.354a1.432,1.432,0,0,1,.431-1.149v-.082a4.357,4.357,0,0,1,4.351-4.352h.756a4.356,4.356,0,0,1,4.351,4.352v.082a1.433,1.433,0,0,1,.432,1.149l-.031.354a5.224,5.224,0,0,1-.732,1.9A4.409,4.409,0,0,1,131.713,129.778Zm-3.445-6.327.01.131c.053.613.17.929.419,1.13l.317.255v.407a2.7,2.7,0,1,0,5.4,0v-.249l.134-.209a4.335,4.335,0,0,0,.6-1.338l.01-.128-.419-.111v-1.2a2.652,2.652,0,0,0-2.648-2.65h-.756a2.652,2.652,0,0,0-2.648,2.65v1.2Z" transform="translate(-126.547 -117.787)" fill="#8e1a1d" stroke="#8e1a1d" stroke-width="1"/>
                        </g>
                      </g>
                    </g>
                    <g id="Group_828" data-name="Group 828" transform="translate(0 10.253)">
                      <g id="Group_827" data-name="Group 827">
                        <path id="Path_662" data-name="Path 662" d="M128.453,146.709h-.628a4.517,4.517,0,0,1-4.512-4.512V130.4a3.426,3.426,0,0,1,2.3-3.232l5.351-1.547v-1.808h1.7V126.9l-6.538,1.891a1.709,1.709,0,0,0-1.11,1.61v11.8a2.814,2.814,0,0,0,2.81,2.81h.628Z" transform="translate(-123.313 -123.811)" fill="#8e1a1d" stroke="#8e1a1d" stroke-width="1"/>
                      </g>
                    </g>
                    <g id="Group_830" data-name="Group 830" transform="translate(4.289 18.317)">
                      <g id="Group_829" data-name="Group 829">
                        <rect id="Rectangle_615" data-name="Rectangle 615" width="1.702" height="13.983" fill="#8e1a1d" stroke="#8e1a1d" stroke-width="1"/>
                      </g>
                    </g>
                  </g>
                  <g id="Group_833" data-name="Group 833" transform="translate(4.289 31.45)">
                    <g id="Group_832" data-name="Group 832">
                      <path id="Path_663" data-name="Path 663" d="M138.6,161.194h-1.7V137.966h-9.359v23.227h-1.7V136.264H138.6Z" transform="translate(-125.833 -136.264)" fill="#8e1a1d" stroke="#8e1a1d" stroke-width="1"/>
                    </g>
                  </g>
                  <g id="Group_835" data-name="Group 835" transform="translate(9.82 36.441)">
                    <g id="Group_834" data-name="Group 834">
                      <rect id="Rectangle_616" data-name="Rectangle 616" width="1.702" height="19.938" fill="#8e1a1d" stroke="#8e1a1d" stroke-width="1"/>
                    </g>
                  </g>
                  <g id="Group_837" data-name="Group 837" transform="translate(11.989 10.253)">
                    <g id="Group_836" data-name="Group 836">
                      <path id="Path_664" data-name="Path 664" d="M140.52,128.034h-4.785a7.4,7.4,0,0,1-1.76-.214l-3.619-.9v-3.113h1.7v1.78l2.325.575a5.659,5.659,0,0,0,1.351.165h4.785Z" transform="translate(-130.357 -123.811)" fill="#8e1a1d" stroke="#8e1a1d" stroke-width="1"/>
                    </g>
                  </g>
                  <g id="Group_839" data-name="Group 839" transform="translate(15.351 17.467)">
                    <g id="Group_838" data-name="Group 838">
                      <path id="Path_665" data-name="Path 665" d="M134.034,142.883h-1.7V129.792a1.744,1.744,0,0,1,1.743-1.743h3.7v1.7h-3.7Z" transform="translate(-132.332 -128.049)" fill="#8e1a1d" stroke="#8e1a1d" stroke-width="1"/>
                    </g>
                  </g>
                </g>
                <g id="Group_847" data-name="Group 847" transform="translate(24.51 8.904)">
                  <g id="Group_842" data-name="Group 842">
                    <g id="Group_841" data-name="Group 841">
                      <path id="Path_666" data-name="Path 666" d="M148.028,137.233v-3.966h-3.506v-1.7h5.208v2.36l5.326-3.807-5.326-3.8v2.23H137.713v-1.7h10.315v-3.832l9.958,7.1Z" transform="translate(-137.713 -123.018)" fill="#8e1a1d" stroke="#8e1a1d" stroke-width="1"/>
                    </g>
                  </g>
                  <g id="Group_844" data-name="Group 844" transform="translate(3.404 8.547)">
                    <g id="Group_843" data-name="Group 843">
                      <rect id="Rectangle_617" data-name="Rectangle 617" width="1.702" height="1.702" fill="#8e1a1d" stroke="#8e1a1d" stroke-width="1"/>
                    </g>
                  </g>
                  <g id="Group_846" data-name="Group 846" transform="translate(0 8.547)">
                    <g id="Group_845" data-name="Group 845">
                      <rect id="Rectangle_618" data-name="Rectangle 618" width="1.702" height="1.702" fill="#8e1a1d" stroke="#8e1a1d" stroke-width="1"/>
                    </g>
                  </g>
                </g>
                <g id="Group_854" data-name="Group 854" transform="translate(20.212 24.087)">
                  <g id="Group_849" data-name="Group 849">
                    <g id="Group_848" data-name="Group 848">
                      <path id="Path_667" data-name="Path 667" d="M145.5,143.513V140.22H142v-1.7H147.2v1.744l3.637-2.522L147.2,135.2v1.611H135.188v-1.7H145.5v-3.171l8.319,5.806Z" transform="translate(-135.188 -131.939)" fill="#8e1a1d" stroke="#8e1a1d" stroke-width="1"/>
                    </g>
                  </g>
                  <g id="Group_851" data-name="Group 851" transform="translate(3.404 6.58)">
                    <g id="Group_850" data-name="Group 850">
                      <rect id="Rectangle_619" data-name="Rectangle 619" width="1.702" height="1.702" fill="#8e1a1d" stroke="#8e1a1d" stroke-width="1"/>
                    </g>
                  </g>
                  <g id="Group_853" data-name="Group 853" transform="translate(0 6.58)">
                    <g id="Group_852" data-name="Group 852">
                      <rect id="Rectangle_620" data-name="Rectangle 620" width="1.702" height="1.702" fill="#8e1a1d" stroke="#8e1a1d" stroke-width="1"/>
                    </g>
                  </g>
                </g>
                <g id="Group_856" data-name="Group 856" transform="translate(31.318 17.451)">
                  <g id="Group_855" data-name="Group 855">
                    <rect id="Rectangle_621" data-name="Rectangle 621" width="1.702" height="1.702" fill="#8e1a1d" stroke="#8e1a1d" stroke-width="1"/>
                  </g>
                </g>
                <g id="Group_858" data-name="Group 858" transform="translate(0.851 55.528)">
                  <g id="Group_857" data-name="Group 857">
                    <rect id="Rectangle_622" data-name="Rectangle 622" width="42.467" height="1.702" fill="#8e1a1d" stroke="#8e1a1d" stroke-width="1"/>
                  </g>
                </g>
              </g>
            </g>
          </g>
        </g>
      </g>
      <g id="Group_861" data-name="Group 861" transform="translate(166.432 -578)">
        <g id="Group_806-4" data-name="Group 806">
          <g id="Group_804-4" data-name="Group 804" transform="translate(-18719 2552)">
            <g transform="matrix(1, 0, 0, 1, 18660.07, -1740.79)" filter="url(#Path_621-12)">
              <path id="Path_621-25" data-name="Path 621" d="M19.2-.394l61.266-.621,61.187.621A19.593,19.593,0,0,1,161.251,19.2l.612,54.967-.612,52.18a19.593,19.593,0,0,1-19.593,19.593l-59.88.612L19.2,145.939A19.593,19.593,0,0,1-.388,126.346L-1,75.7l.612-56.5A19.593,19.593,0,0,1,19.2-.394Z" transform="translate(964.5 83.51)" fill="#fff"/>
            </g>
            <text id="Bio_Tech" data-name="Bio/Tech" transform="translate(19624 -1555)" fill="#8e1a1d" font-size="18" font-family="Avenir-Medium, Avenir" font-weight="500"><tspan x="45.81" y="18">Bio/Tech</tspan></text>
            <g id="Group_862" data-name="Group 862" transform="translate(19657.059 -1643.232)">
              <path id="Path_668" data-name="Path 668" d="M116.355,115.95a.86.86,0,0,0,.859-.859v-3.232a.859.859,0,1,0-1.718,0v3.232A.859.859,0,0,0,116.355,115.95Z" transform="translate(-84.653 -80.709)" fill="#8e1a1d" stroke="#8e1a1d" stroke-width="0.5"/>
              <path id="Path_669" data-name="Path 669" d="M72.147,318.326a.859.859,0,0,0-.835-.647H49.665a.858.858,0,0,0-.835.647,12.028,12.028,0,1,0,23.314,0ZM60.49,331.588a10.321,10.321,0,0,1-10.309-10.309,10.2,10.2,0,0,1,.174-1.88H70.625a10.3,10.3,0,0,1-10.136,12.19Z" transform="translate(-25.844 -262.023)" fill="#8e1a1d" stroke="#8e1a1d" stroke-width="0.5"/>
              <path id="Path_670" data-name="Path 670" d="M76.315,72.51H73.094V70.424a.859.859,0,0,0-.859-.859h-.613V32.349h3.528a.859.859,0,0,0,.859-.859V28.544a.86.86,0,0,0-.859-.859H71.622v-3.56a.86.86,0,0,0-.859-.859H67.817a.86.86,0,0,0-.859.859v3.56H63.247V23.651A2.327,2.327,0,0,0,63.122,19H52.813a2.327,2.327,0,0,0-.121,4.651v4.034H51.34a.86.86,0,0,0-.859.859V31.49a.859.859,0,0,0,.859.859h1.352V54.528a5.277,5.277,0,0,0,10.555,0V32.349h3.711V69.564h-.615a.86.86,0,0,0-.859.859V72.51H41.6a14.966,14.966,0,0,0-.2-26.617V26.977a2.327,2.327,0,0,0-.121-4.651H28.02a2.327,2.327,0,0,0-.125,4.651V45.893a14.966,14.966,0,0,0-.2,26.617H19.859a.86.86,0,0,0-.859.859v2.946a.86.86,0,0,0,.859.859H76.315a.86.86,0,0,0,.859-.859V73.369A.86.86,0,0,0,76.315,72.51ZM68.676,24.984H69.9v2.7H68.676ZM52.2,21.332a.615.615,0,0,1,.614-.614H63.122a.614.614,0,0,1,0,1.227H52.813A.615.615,0,0,1,52.2,21.332Zm2.209,2.332h7.118v4.022H54.41ZM52.2,29.4H74.29v1.227H52.2Zm9.327,4.541H59.44a.859.859,0,1,0,0,1.718h2.088v1.6H59.44a.859.859,0,0,0,0,1.718h2.088v1.6H59.44a.859.859,0,0,0,0,1.718h2.088v1.6H59.44a.859.859,0,0,0,0,1.718h2.088v1.6H59.44a.859.859,0,0,0,0,1.718h2.088v5.61a3.559,3.559,0,0,1-7.118,0V32.349h7.118Zm7.148-1.6H69.9V69.564H68.674ZM67.2,71.283h4.173V72.51H67.2ZM27.407,24.658a.614.614,0,0,1,.614-.614H41.275a.614.614,0,1,1,0,1.227H28.02A.614.614,0,0,1,27.407,24.658Zm-6.016,34.6a13.291,13.291,0,0,1,7.723-12.042.859.859,0,0,0,.5-.781V26.989H39.678v1.951H37.593a.859.859,0,0,0,0,1.718h2.084v1.6H37.593a.859.859,0,0,0,0,1.718h2.084v1.6H37.593a.859.859,0,0,0,0,1.718h2.084v1.6H37.593a.859.859,0,0,0,0,1.718h2.084v1.6H37.593a.859.859,0,0,0,0,1.718h2.084v2.518a.859.859,0,0,0,.5.781A13.255,13.255,0,1,1,21.391,59.255Zm54.065,16.2H20.718V74.228H75.456Z" transform="translate(0 0)" fill="#8e1a1d" stroke="#8e1a1d" stroke-width="0.5"/>
              <path id="Path_671" data-name="Path 671" d="M111.88,359.168a2.332,2.332,0,1,0,2.332,2.332A2.332,2.332,0,0,0,111.88,359.168Zm0,2.946a.614.614,0,1,1,.614-.614A.614.614,0,0,1,111.88,362.113Z" transform="translate(-79.435 -298.419)" fill="#8e1a1d" stroke="#8e1a1d" stroke-width="0.5"/>
              <path id="Path_672" data-name="Path 672" d="M177.828,335.668A2.332,2.332,0,1,0,180.16,338,2.332,2.332,0,0,0,177.828,335.668Zm0,2.945a.614.614,0,1,1,.614-.614A.614.614,0,0,1,177.828,338.613Z" transform="translate(-137.289 -277.804)" fill="#8e1a1d" stroke="#8e1a1d" stroke-width="0.5"/>
              <path id="Path_673" data-name="Path 673" d="M121.548,252.884a2.332,2.332,0,1,0,2.332-2.332A2.332,2.332,0,0,0,121.548,252.884Zm2.332-.614a.614.614,0,1,1-.614.614A.614.614,0,0,1,123.88,252.27Z" transform="translate(-89.962 -203.134)" fill="#8e1a1d" stroke="#8e1a1d" stroke-width="0.5"/>
            </g>
          </g>
        </g>
      </g>
      <g id="Group_818" data-name="Group 818" transform="translate(129 -377)">
        <g transform="matrix(1, 0, 0, 1, -21.5, 610.21)" filter="url(#Path_621-13)">
          <path id="Path_621-26" data-name="Path 621" d="M32,0,132.064-1.015,232,0a32,32,0,0,1,32,32l1,89.776L264,207a32,32,0,0,1-32,32l-97.8,1L32,239A32,32,0,0,1,0,207l-1-82.713L0,32A32,32,0,0,1,32,0Z" transform="translate(1148.5 116.79)" fill="#fff"/>
        </g>
        <text id="Youth_Entrepreneurship_Training" data-name="Youth 
Entrepreneurship
Training" transform="translate(1126 856)" fill="#8e1a1d" font-size="18" font-family="Avenir-Medium, Avenir" font-weight="500"><tspan x="109.807" y="18">Youth </tspan><tspan x="62.323" y="43">Entrepreneurship</tspan><tspan x="100.834" y="68">Training</tspan></text>
        <g id="Group_817" data-name="Group 817" transform="translate(1213.414 766.414)">
          <path id="Path_645" data-name="Path 645" d="M74.186,16H44.6a.986.986,0,0,0-.986.986V33.058l-3-3.5a4.928,4.928,0,0,0-3.745-1.722H33.2a5.924,5.924,0,0,0,1.451-2.959h1.069a.987.987,0,0,0,.883-1.428l-1.869-3.736v-.753A2.962,2.962,0,0,0,31.779,16H25.862A2.962,2.962,0,0,0,22.9,18.959v4.719a6.261,6.261,0,0,0,1.582,4.157H22.9a4.937,4.937,0,0,0-4.931,4.931v8.876A4.88,4.88,0,0,0,18.984,44.6h-2a.986.986,0,0,0-.986.986v3.945a.986.986,0,0,0,.986.986h.986v3.945h1.972V50.517H49.531v1.972H51.5V50.517H74.186a.986.986,0,0,0,.986-.986V16.986A.986.986,0,0,0,74.186,16Zm-49.31,2.959a.987.987,0,0,1,.986-.986h5.917a.987.987,0,0,1,.986.986v.986a.988.988,0,0,0,.1.441L34.128,22.9h-.377a.986.986,0,0,0-.986.986,3.946,3.946,0,0,1-4.335,3.927,4.094,4.094,0,0,1-3.554-4.139Zm5.308,10.848-1.363,2.726-1.363-2.726ZM19.945,41.641V32.765A2.962,2.962,0,0,1,22.9,29.807h2.349l2.686,5.372a.986.986,0,0,0,1.764,0l2.685-5.372h4.479a2.956,2.956,0,0,1,2.247,1.033l4.737,5.527a.985.985,0,0,0,.711.344.959.959,0,0,0,.736-.288L50.517,31.2l2.55,2.55-6.375,6.376a2.965,2.965,0,0,1-4.184,0L39.381,37a.987.987,0,0,0-1.684.7v6.9H32.765V41.641a2.962,2.962,0,0,0-2.959-2.959H25.862V36.71H23.89v2.959a.986.986,0,0,0,.986.986h4.931a.987.987,0,0,1,.986.986V44.6H22.9a2.962,2.962,0,0,1-2.959-2.959ZM39.669,44.6V40.077l1.444,1.445a4.9,4.9,0,0,0,2.5,1.338V44.6ZM51.5,48.545H17.972V46.572H51.5Zm21.7,0H53.476V45.586a.986.986,0,0,0-.986-.986h-6.9V42.86a4.9,4.9,0,0,0,2.5-1.338l7.072-7.073a.985.985,0,0,0,0-1.394L52.9,30.793l5.22-5.22-1.394-1.394L51.5,29.4l-.289-.289a.985.985,0,0,0-1.394,0l-4.234,4.234V17.972H73.2Z" fill="#8e1a1d" stroke="#8e1a1d" stroke-width="0.8"/>
          <path id="Path_646" data-name="Path 646" d="M306.775,50.091l5.476,2.738a.976.976,0,0,0,.441.1.988.988,0,0,0,.441-.1l5.917-2.959-.883-1.764-5.475,2.738-5.476-2.738a.986.986,0,0,0-.883,0l-5.917,2.959.883,1.764Z" transform="translate(-249.355 -28.057)" fill="#8e1a1d" stroke="#8e1a1d" stroke-width="0.8"/>
          <path id="Path_647" data-name="Path 647" d="M360,136h11.834v1.972H360Z" transform="translate(-301.593 -105.207)" fill="#8e1a1d" stroke="#8e1a1d" stroke-width="0.8"/>
          <path id="Path_648" data-name="Path 648" d="M360,168h11.834v1.972H360Z" transform="translate(-301.593 -133.262)" fill="#8e1a1d" stroke="#8e1a1d" stroke-width="0.8"/>
          <path id="Path_649" data-name="Path 649" d="M360,200h11.834v1.972H360Z" transform="translate(-301.593 -161.317)" fill="#8e1a1d" stroke="#8e1a1d" stroke-width="0.8"/>
          <path id="Path_650" data-name="Path 650" d="M360,232h11.834v1.972H360Z" transform="translate(-301.593 -189.373)" fill="#8e1a1d" stroke="#8e1a1d" stroke-width="0.8"/>
          <path id="Path_651" data-name="Path 651" d="M40,341.807v5.917a.986.986,0,0,0,.986.986h9.862a.986.986,0,0,0,.986-.986v-5.917a5.911,5.911,0,0,0-2.847-5.048,4.931,4.931,0,1,0-6.14,0A5.911,5.911,0,0,0,40,341.807Zm2.959-8.876a2.959,2.959,0,1,1,2.959,2.959A2.962,2.962,0,0,1,42.959,332.931Zm-.986,8.876a3.945,3.945,0,1,1,7.89,0v4.931h-7.89Z" transform="translate(-21.041 -273.538)" fill="#8e1a1d" stroke="#8e1a1d" stroke-width="0.8"/>
          <path id="Path_652" data-name="Path 652" d="M152,341.807v5.917a.986.986,0,0,0,.986.986h9.862a.986.986,0,0,0,.986-.986v-5.917a5.911,5.911,0,0,0-2.847-5.048,4.931,4.931,0,1,0-6.14,0A5.911,5.911,0,0,0,152,341.807Zm2.959-8.876a2.959,2.959,0,1,1,2.959,2.959A2.962,2.962,0,0,1,154.959,332.931Zm-.986,8.876a3.945,3.945,0,1,1,7.89,0v4.931h-7.89Z" transform="translate(-119.235 -273.538)" fill="#8e1a1d" stroke="#8e1a1d" stroke-width="0.8"/>
          <path id="Path_653" data-name="Path 653" d="M264,341.807v5.917a.986.986,0,0,0,.986.986h9.862a.986.986,0,0,0,.986-.986v-5.917a5.911,5.911,0,0,0-2.847-5.048,4.931,4.931,0,1,0-6.14,0A5.911,5.911,0,0,0,264,341.807Zm2.959-8.876a2.959,2.959,0,1,1,2.959,2.959A2.962,2.962,0,0,1,266.959,332.931Zm-.986,8.876a3.945,3.945,0,0,1,7.89,0v4.931h-7.89Z" transform="translate(-217.428 -273.538)" fill="#8e1a1d" stroke="#8e1a1d" stroke-width="0.8"/>
          <path id="Path_654" data-name="Path 654" d="M376,341.807v5.917a.986.986,0,0,0,.986.986h9.862a.986.986,0,0,0,.986-.986v-5.917a5.911,5.911,0,0,0-2.847-5.048,4.931,4.931,0,1,0-6.14,0A5.911,5.911,0,0,0,376,341.807Zm2.959-8.876a2.959,2.959,0,1,1,2.959,2.959A2.962,2.962,0,0,1,378.959,332.931Zm-.986,8.876a3.945,3.945,0,0,1,7.89,0v4.931h-7.89Z" transform="translate(-315.621 -273.538)" fill="#8e1a1d" stroke="#8e1a1d" stroke-width="0.8"/>
        </g>
      </g>
    </g>
    <text id="Current_Projects_" data-name="Current Projects
" transform="translate(145 309)" fill="#003a70" font-size="60" font-family="Avenir-Book, Avenir"><tspan x="0" y="60">CURRENT PROJECTS</tspan></text>
    <text id="Future_Projects_" data-name="Future Projects
" transform="translate(1240 873)" fill="#8e1a1d" font-size="60" font-family="Avenir-Book, Avenir"><tspan x="0" y="60">FUTURE PROJECTS</tspan></text>
  </g>
</svg>
