<svg xmlns="http://www.w3.org/2000/svg" width="193.656" height="110" viewBox="0 0 193.656 110">
  <g id="Group_221" data-name="Group 221" transform="translate(-117.762 -239.099)">
    <g id="Group_215" data-name="Group 215" transform="translate(172.165 263.833)">
      <path id="Path_417" data-name="Path 417" d="M437.2,410.869l-.7-6.837-1.917.2.507,4.921-43.336,4.462h18.814Z" transform="translate(-351.011 -371.495)" fill="#fff"/>
      <path id="Path_418" data-name="Path 418" d="M276.545,313.578l12.946-1.333-.2-1.916-14.862,1.531,4.2,40.587h1.936Z" transform="translate(-274.431 -310.33)" fill="#fff"/>
    </g>
    <g id="Group_217" data-name="Group 217" transform="translate(117.762 319.142)">
      <g id="Group_216" data-name="Group 216">
        <path id="Path_419" data-name="Path 419" d="M117.762,470.406H121.4l2.512,7.119h.031l2.528-7.119h3.621v10.91h-2.4v-8.367h-.031l-2.866,8.367h-1.834l-2.757-8.367h-.032v8.367h-2.4Z" transform="translate(-117.762 -470.129)" fill="#fff"/>
        <path id="Path_420" data-name="Path 420" d="M165.571,470.406h1.988l4.746,10.91h-2.712l-.94-2.312h-4.237l-.91,2.312h-2.651Zm.925,3.174-1.325,3.391h2.665Z" transform="translate(-145.891 -470.129)" fill="#fff"/>
        <path id="Path_421" data-name="Path 421" d="M201.413,470.406h4.222a7.492,7.492,0,0,1,1.58.162,3.773,3.773,0,0,1,1.31.539,2.7,2.7,0,0,1,.894,1.017,3.457,3.457,0,0,1,.33,1.6,3.2,3.2,0,0,1-.6,1.965,2.706,2.706,0,0,1-1.757,1.024l2.774,4.608h-2.881L205,476.955h-1.187v4.361h-2.4Zm2.4,4.515h1.418c.216,0,.444-.007.685-.022a2.124,2.124,0,0,0,.655-.14,1.126,1.126,0,0,0,.485-.362,1.088,1.088,0,0,0,.194-.692,1.156,1.156,0,0,0-.17-.664,1.13,1.13,0,0,0-.432-.377,1.937,1.937,0,0,0-.6-.177,4.943,4.943,0,0,0-.662-.046h-1.573Z" transform="translate(-172.366 -470.129)" fill="#fff"/>
        <path id="Path_422" data-name="Path 422" d="M232.988,476.663l-4.1-6.257h2.989l2.312,4.084,2.451-4.084h2.851l-4.1,6.257v4.654h-2.4Z" transform="translate(-190.3 -470.129)" fill="#fff"/>
        <path id="Path_423" data-name="Path 423" d="M266.432,470.406h2.4V479.1h4.453v2.22h-6.857Z" transform="translate(-214.807 -470.129)" fill="#fff"/>
        <path id="Path_424" data-name="Path 424" d="M295.906,470.406h1.988l4.746,10.91h-2.712l-.94-2.312h-4.237l-.91,2.312h-2.65Zm.925,3.174-1.325,3.391h2.665Z" transform="translate(-230.969 -470.129)" fill="#fff"/>
        <path id="Path_425" data-name="Path 425" d="M331.752,470.406h3.268l4.639,7.582h.031v-7.582h2.4v10.91h-3.144l-4.761-7.767h-.032v7.767h-2.4Z" transform="translate(-257.445 -470.129)" fill="#fff"/>
        <path id="Path_426" data-name="Path 426" d="M372.358,470.406h3.606a10.292,10.292,0,0,1,2.489.293,5.718,5.718,0,0,1,2.058.948,4.655,4.655,0,0,1,1.393,1.7,5.711,5.711,0,0,1,.517,2.543,5.184,5.184,0,0,1-.5,2.335,5.015,5.015,0,0,1-1.348,1.695,5.983,5.983,0,0,1-1.958,1.041,7.624,7.624,0,0,1-2.327.354h-3.929Zm2.4,8.691h1.248a6.744,6.744,0,0,0,1.55-.168,3.31,3.31,0,0,0,1.24-.563,2.7,2.7,0,0,0,.825-1.032,3.682,3.682,0,0,0,.3-1.563,3.066,3.066,0,0,0-.3-1.395,2.79,2.79,0,0,0-.81-.978,3.517,3.517,0,0,0-1.194-.579,5.312,5.312,0,0,0-1.441-.192h-1.419Z" transform="translate(-283.951 -470.129)" fill="#fff"/>
        <path id="Path_427" data-name="Path 427" d="M424.767,470.406h2.62l1.742,7h.031l2.281-7h2.234l2.266,7.182h.031l1.834-7.182h2.434l-3.189,10.91h-2.142l-2.4-7.551h-.032l-2.4,7.551H428Z" transform="translate(-318.161 -470.129)" fill="#fff"/>
        <path id="Path_428" data-name="Path 428" d="M475.18,475.34a6.16,6.16,0,0,1,.439-2.373,5.2,5.2,0,0,1,1.225-1.812,5.388,5.388,0,0,1,1.866-1.147,7.13,7.13,0,0,1,4.715,0,5.394,5.394,0,0,1,1.865,1.147,5.209,5.209,0,0,1,1.225,1.812,6.634,6.634,0,0,1,0,4.746,5.212,5.212,0,0,1-1.225,1.812,5.417,5.417,0,0,1-1.865,1.148,7.148,7.148,0,0,1-4.715,0,5.411,5.411,0,0,1-1.866-1.148,5.2,5.2,0,0,1-1.225-1.812A6.162,6.162,0,0,1,475.18,475.34Zm2.5,0a4,4,0,0,0,.238,1.41,3.211,3.211,0,0,0,.685,1.109,3.139,3.139,0,0,0,1.072.733,3.838,3.838,0,0,0,2.788,0,3.138,3.138,0,0,0,1.071-.733,3.217,3.217,0,0,0,.686-1.109,4.245,4.245,0,0,0,0-2.812,3.208,3.208,0,0,0-.686-1.117,3.12,3.12,0,0,0-1.071-.732,3.843,3.843,0,0,0-2.788,0,3.121,3.121,0,0,0-1.072.732,3.2,3.2,0,0,0-.685,1.117A4.019,4.019,0,0,0,477.677,475.34Z" transform="translate(-351.069 -469.608)" fill="#fff"/>
        <path id="Path_429" data-name="Path 429" d="M518.225,470.406h3.637l2.513,7.119h.031l2.528-7.119h3.621v10.91h-2.405v-8.367h-.031l-2.866,8.367h-1.834l-2.758-8.367h-.032v8.367h-2.4Z" transform="translate(-379.166 -470.129)" fill="#fff"/>
        <path id="Path_430" data-name="Path 430" d="M564.826,470.406h7.412v2.22H567.23v2.033h4.73v2.22h-4.73V479.1h5.285v2.22h-7.689Z" transform="translate(-409.586 -470.129)" fill="#fff"/>
        <path id="Path_431" data-name="Path 431" d="M596.952,470.406h3.268l4.639,7.582h.031v-7.582h2.4v10.91h-3.144l-4.761-7.767h-.032v7.767h-2.4Z" transform="translate(-430.556 -470.129)" fill="#fff"/>
        <path id="Path_432" data-name="Path 432" d="M638.066,474.752h-1.973l1.141-4.346h2.218Z" transform="translate(-456.105 -470.129)" fill="#fff"/>
        <path id="Path_433" data-name="Path 433" d="M658.988,472.551a1.708,1.708,0,0,0-.794-.546,2.831,2.831,0,0,0-.948-.177,2.431,2.431,0,0,0-.539.061,2.048,2.048,0,0,0-.524.192,1.138,1.138,0,0,0-.4.347.959.959,0,0,0,.215,1.279,3.483,3.483,0,0,0,.933.446c.375.124.778.247,1.209.371a4.983,4.983,0,0,1,1.21.524,2.873,2.873,0,0,1,.932.908,2.773,2.773,0,0,1,.37,1.526,3.506,3.506,0,0,1-.339,1.587,3.207,3.207,0,0,1-.917,1.126,3.882,3.882,0,0,1-1.34.662,5.909,5.909,0,0,1-1.611.216,5.826,5.826,0,0,1-1.972-.323,4.955,4.955,0,0,1-1.7-1.048l1.711-1.88a2.5,2.5,0,0,0,.932.762,2.612,2.612,0,0,0,1.757.2,1.924,1.924,0,0,0,.539-.209,1.164,1.164,0,0,0,.384-.354.884.884,0,0,0,.146-.509.919.919,0,0,0-.377-.777,3.457,3.457,0,0,0-.948-.486q-.57-.2-1.233-.4a5.523,5.523,0,0,1-1.232-.539,2.967,2.967,0,0,1-.949-.894,2.561,2.561,0,0,1-.378-1.463,3.275,3.275,0,0,1,.347-1.541,3.347,3.347,0,0,1,.925-1.11,4.034,4.034,0,0,1,1.332-.67,5.5,5.5,0,0,1,1.557-.223,6.139,6.139,0,0,1,1.788.262,4.123,4.123,0,0,1,1.556.878Z" transform="translate(-466.997 -469.608)" fill="#fff"/>
        <path id="Path_434" data-name="Path 434" d="M165.534,523.66H169.6a10.267,10.267,0,0,1,1.425.1,3.888,3.888,0,0,1,1.286.4,2.457,2.457,0,0,1,.925.839,2.584,2.584,0,0,1,.354,1.434,2.285,2.285,0,0,1-.516,1.533,2.844,2.844,0,0,1-1.364.871v.031a3.106,3.106,0,0,1,.978.3,2.61,2.61,0,0,1,.755.57,2.448,2.448,0,0,1,.486.809,2.843,2.843,0,0,1,.169.985,2.618,2.618,0,0,1-.369,1.441,2.9,2.9,0,0,1-.956.932,4.153,4.153,0,0,1-1.317.509,7.038,7.038,0,0,1-1.458.155h-4.469Zm2.4,4.361h1.742a2.5,2.5,0,0,0,.548-.061,1.543,1.543,0,0,0,.485-.2,1.057,1.057,0,0,0,.347-.371,1.1,1.1,0,0,0,.131-.555,1,1,0,0,0-.146-.562,1.015,1.015,0,0,0-.378-.347,1.817,1.817,0,0,0-.524-.177,3.13,3.13,0,0,0-.57-.054h-1.634Zm0,4.515H170.1a2.7,2.7,0,0,0,.562-.062,1.463,1.463,0,0,0,.517-.216,1.2,1.2,0,0,0,.377-.4,1.159,1.159,0,0,0,.147-.6.969.969,0,0,0-.192-.624,1.254,1.254,0,0,0-.486-.362,2.54,2.54,0,0,0-.631-.169,4.74,4.74,0,0,0-.633-.046h-1.819Z" transform="translate(-148.945 -504.891)" fill="#fff"/>
        <path id="Path_435" data-name="Path 435" d="M207.929,530.364a5.267,5.267,0,0,1-.294,1.788,3.931,3.931,0,0,1-.87,1.417,4,4,0,0,1-1.441.941,6.055,6.055,0,0,1-3.992,0,3.981,3.981,0,0,1-1.441-.941,3.925,3.925,0,0,1-.871-1.417,5.267,5.267,0,0,1-.293-1.788v-6.7h2.4v6.611a2.633,2.633,0,0,0,.163.94,2.223,2.223,0,0,0,.454.747,2.038,2.038,0,0,0,.7.493,2.195,2.195,0,0,0,.886.178,2.14,2.14,0,0,0,.878-.178,2.049,2.049,0,0,0,.694-.493,2.223,2.223,0,0,0,.454-.747,2.633,2.633,0,0,0,.161-.94V523.66h2.405Z" transform="translate(-170.613 -504.891)" fill="#fff"/>
        <path id="Path_436" data-name="Path 436" d="M239.91,525.8a1.71,1.71,0,0,0-.794-.546,2.823,2.823,0,0,0-.947-.177,2.428,2.428,0,0,0-.539.061,2.027,2.027,0,0,0-.524.192,1.139,1.139,0,0,0-.4.347.96.96,0,0,0,.215,1.279,3.479,3.479,0,0,0,.934.446q.562.186,1.209.371a4.972,4.972,0,0,1,1.209.524,2.87,2.87,0,0,1,.932.908,2.769,2.769,0,0,1,.369,1.526,3.509,3.509,0,0,1-.339,1.587,3.2,3.2,0,0,1-.917,1.126,3.877,3.877,0,0,1-1.34.662,5.907,5.907,0,0,1-1.611.216A5.832,5.832,0,0,1,235.4,534a4.958,4.958,0,0,1-1.7-1.048l1.711-1.88a2.5,2.5,0,0,0,.932.762,2.616,2.616,0,0,0,1.757.2,1.927,1.927,0,0,0,.539-.209,1.16,1.16,0,0,0,.384-.354.885.885,0,0,0,.147-.509.919.919,0,0,0-.378-.777,3.472,3.472,0,0,0-.947-.486q-.571-.2-1.233-.4a5.542,5.542,0,0,1-1.232-.539,2.971,2.971,0,0,1-.949-.895,2.561,2.561,0,0,1-.377-1.463,3.273,3.273,0,0,1,.347-1.541,3.343,3.343,0,0,1,.925-1.111,4.034,4.034,0,0,1,1.332-.67,5.5,5.5,0,0,1,1.556-.223,6.126,6.126,0,0,1,1.788.262,4.122,4.122,0,0,1,1.557.878Z" transform="translate(-193.441 -504.37)" fill="#fff"/>
        <path id="Path_437" data-name="Path 437" d="M265.874,523.66h2.4v10.91h-2.4Z" transform="translate(-214.443 -504.891)" fill="#fff"/>
        <path id="Path_438" data-name="Path 438" d="M283.535,523.66H286.8l4.638,7.582h.031V523.66h2.4v10.91h-3.143l-4.761-7.767h-.032v7.767h-2.4Z" transform="translate(-225.971 -504.891)" fill="#fff"/>
        <path id="Path_439" data-name="Path 439" d="M324.409,523.66h7.412v2.22h-5.008v2.033h4.731v2.22h-4.731v2.218H332.1v2.22h-7.689Z" transform="translate(-252.652 -504.891)" fill="#fff"/>
        <path id="Path_440" data-name="Path 440" d="M360.394,525.8a1.709,1.709,0,0,0-.794-.546,2.823,2.823,0,0,0-.948-.177,2.43,2.43,0,0,0-.539.061,2.032,2.032,0,0,0-.524.192,1.142,1.142,0,0,0-.4.347.96.96,0,0,0,.215,1.279,3.489,3.489,0,0,0,.934.446q.562.186,1.209.371a4.966,4.966,0,0,1,1.209.524,2.867,2.867,0,0,1,.932.908,2.773,2.773,0,0,1,.369,1.526,3.508,3.508,0,0,1-.339,1.587,3.208,3.208,0,0,1-.917,1.126,3.881,3.881,0,0,1-1.341.662,5.9,5.9,0,0,1-1.611.216A5.832,5.832,0,0,1,355.88,534a4.96,4.96,0,0,1-1.7-1.048l1.711-1.88a2.5,2.5,0,0,0,.932.762,2.616,2.616,0,0,0,1.757.2,1.922,1.922,0,0,0,.539-.209,1.161,1.161,0,0,0,.385-.354.884.884,0,0,0,.146-.509.92.92,0,0,0-.377-.777,3.48,3.48,0,0,0-.948-.486q-.571-.2-1.233-.4a5.552,5.552,0,0,1-1.232-.539,2.97,2.97,0,0,1-.949-.895,2.559,2.559,0,0,1-.378-1.463,3.274,3.274,0,0,1,.347-1.541,3.34,3.34,0,0,1,.925-1.111,4.028,4.028,0,0,1,1.332-.67,5.5,5.5,0,0,1,1.556-.223,6.13,6.13,0,0,1,1.788.262,4.123,4.123,0,0,1,1.556.878Z" transform="translate(-272.088 -504.37)" fill="#fff"/>
        <path id="Path_441" data-name="Path 441" d="M390.305,525.8a1.709,1.709,0,0,0-.794-.546,2.824,2.824,0,0,0-.948-.177,2.432,2.432,0,0,0-.539.061,2.03,2.03,0,0,0-.524.192,1.139,1.139,0,0,0-.4.347.959.959,0,0,0,.215,1.279,3.481,3.481,0,0,0,.933.446q.563.186,1.21.371a4.976,4.976,0,0,1,1.209.524,2.869,2.869,0,0,1,.932.908,2.773,2.773,0,0,1,.37,1.526,3.5,3.5,0,0,1-.339,1.587,3.2,3.2,0,0,1-.917,1.126,3.879,3.879,0,0,1-1.34.662,5.907,5.907,0,0,1-1.611.216,5.829,5.829,0,0,1-1.972-.323,4.959,4.959,0,0,1-1.7-1.048l1.711-1.88a2.5,2.5,0,0,0,.932.762,2.616,2.616,0,0,0,1.757.2,1.93,1.93,0,0,0,.539-.209,1.163,1.163,0,0,0,.384-.354.885.885,0,0,0,.146-.509.92.92,0,0,0-.377-.777,3.47,3.47,0,0,0-.948-.486q-.57-.2-1.233-.4a5.542,5.542,0,0,1-1.232-.539,2.967,2.967,0,0,1-.949-.895,2.561,2.561,0,0,1-.378-1.463,3.273,3.273,0,0,1,.347-1.541,3.342,3.342,0,0,1,.925-1.111,4.035,4.035,0,0,1,1.332-.67,5.5,5.5,0,0,1,1.557-.223,6.128,6.128,0,0,1,1.788.262,4.123,4.123,0,0,1,1.556.878Z" transform="translate(-291.612 -504.37)" fill="#fff"/>
        <path id="Path_442" data-name="Path 442" d="M439.964,525.975a2.378,2.378,0,0,0-.871-.663,2.913,2.913,0,0,0-1.194-.23,2.984,2.984,0,0,0-2.257.994,3.392,3.392,0,0,0-.663,1.117,4.268,4.268,0,0,0,0,2.812,3.492,3.492,0,0,0,.655,1.109,2.978,2.978,0,0,0,.978.733,2.835,2.835,0,0,0,1.209.262,2.7,2.7,0,0,0,1.31-.309,2.606,2.606,0,0,0,.941-.863l2,1.495a4.175,4.175,0,0,1-1.757,1.433,5.444,5.444,0,0,1-2.188.463,6.738,6.738,0,0,1-2.358-.4,5.413,5.413,0,0,1-1.866-1.148,5.209,5.209,0,0,1-1.225-1.812,6.634,6.634,0,0,1,0-4.746,5.207,5.207,0,0,1,1.225-1.811,5.39,5.39,0,0,1,1.866-1.147,6.713,6.713,0,0,1,2.358-.4,5.737,5.737,0,0,1,.963.085,5.257,5.257,0,0,1,.987.269,4.458,4.458,0,0,1,.932.493,3.763,3.763,0,0,1,.8.755Z" transform="translate(-323.041 -504.37)" fill="#fff"/>
        <path id="Path_443" data-name="Path 443" d="M469.036,523.66h7.412v2.22H471.44v2.033h4.731v2.22H471.44v2.218h5.285v2.22h-7.689Z" transform="translate(-347.058 -504.891)" fill="#fff"/>
        <path id="Path_444" data-name="Path 444" d="M501.163,523.66h3.268l4.638,7.582h.031V523.66h2.4v10.91H508.36L503.6,526.8h-.032v7.767h-2.4Z" transform="translate(-368.029 -504.891)" fill="#fff"/>
        <path id="Path_445" data-name="Path 445" d="M542,525.787h-3.113V523.66h8.631v2.127H544.4v8.784H542Z" transform="translate(-392.651 -504.891)" fill="#fff"/>
        <path id="Path_446" data-name="Path 446" d="M571.944,523.66h7.412v2.22h-5.008v2.033h4.731v2.22h-4.731v2.218h5.285v2.22h-7.689Z" transform="translate(-414.232 -504.891)" fill="#fff"/>
        <path id="Path_447" data-name="Path 447" d="M604.071,523.66h4.222a7.486,7.486,0,0,1,1.58.162,3.765,3.765,0,0,1,1.31.539,2.7,2.7,0,0,1,.894,1.017,3.456,3.456,0,0,1,.33,1.6,3.2,3.2,0,0,1-.6,1.965,2.707,2.707,0,0,1-1.757,1.024l2.774,4.608h-2.881l-2.281-4.361h-1.187v4.361h-2.4Zm2.4,4.515h1.419c.216,0,.444-.007.685-.023a2.117,2.117,0,0,0,.655-.139,1.13,1.13,0,0,0,.485-.362,1.092,1.092,0,0,0,.194-.693,1.155,1.155,0,0,0-.17-.663,1.128,1.128,0,0,0-.432-.377,1.924,1.924,0,0,0-.6-.177,4.927,4.927,0,0,0-.662-.046h-1.573Z" transform="translate(-435.203 -504.891)" fill="#fff"/>
      </g>
    </g>
    <g id="Group_219" data-name="Group 219" transform="translate(191.543 239.099)">
      <g id="Group_218" data-name="Group 218" transform="translate(0 19.271)">
        <path id="Path_448" data-name="Path 448" d="M330.237,299.594l.2,1.916,50.826-5.234a18.241,18.241,0,0,1-2.487-1.681Z" transform="translate(-330.237 -294.595)" fill="#fff"/>
        <path id="Path_449" data-name="Path 449" d="M509.842,352.686l1.917-.2-2.249-21.728a11.088,11.088,0,0,1-1.874.607Z" transform="translate(-446.036 -318.202)" fill="#fff"/>
      </g>
      <path id="Path_450" data-name="Path 450" d="M485.873,261.425c1.368-1.69,2.351-3.224,3.239-4.4.124-.164.267-.344.418-.534,3-3.754,10.99-12.411,8.265-17.4,2.96,5.415,2.029,11.213-1.907,17.253l.35-.212a2.63,2.63,0,0,1,3.062-.5c.78.494,1.045,2.081,2.023,3.691-8.333-1.589-11.27,10.878-20.005,10.356-2.885,2.85-5.619,1.863-9.443,1.627A32.048,32.048,0,0,0,485.873,261.425Z" transform="translate(-422.692 -239.099)" fill="#fff"/>
      <path id="Path_451" data-name="Path 451" d="M480.151,277.979c-.683.966-1.472,2.075-2.451,3.25-8.97-1.091-14.99-4.673-16.948-11.539,1.517,5.318,11.028,5.484,17.334,6.435.119.008,1.746.14,3.223.261-.032.041-.068.086-.1.126C480.876,276.954,480.528,277.446,480.151,277.979Z" transform="translate(-415.431 -259.067)" fill="#fff"/>
    </g>
    <g id="Group_220" data-name="Group 220" transform="translate(184.413 268.909)">
      <path id="Path_452" data-name="Path 452" d="M313.3,366.658c-.191.02-.211-.172-.219-.249-.116-.375,2.58-2.4,3.079-2.447.613-.063,1.876.543,1.955,1.309.114,1.111-3.514,5.357-4.255,6.441.386-.388,1.777-1.926,3.24-3.509.734-.773,3.336-3.713,4.409-3.823a1.98,1.98,0,0,1,1.878,1.317,1.354,1.354,0,0,1-.06.549,47.912,47.912,0,0,0-3.089,5.352c4.332-4.938,4.508-5.111,4.7-5.131a1.945,1.945,0,0,1,1.717,1.256c.051.5-.113.786-.506,1.485a9.991,9.991,0,0,0-1.634,4.816c.059.575.2,1.529,1,1.446.038,0,.119.026.123.065.032.307-.416.469-.723.5a2.46,2.46,0,0,1-2.452-2.381,9.94,9.94,0,0,1,1.594-5.2c-1.387,1.575-3.3,3.671-4.355,5.1a23.465,23.465,0,0,0-1.309,1.955.864.864,0,0,1-.543.366,1.475,1.475,0,0,1-1.319-1.142,3.981,3.981,0,0,1,.5-1.872c1.123-2.633,3.316-6.538,3.316-6.538a52.829,52.829,0,0,0-6.47,6.746,13.426,13.426,0,0,0-2.3,3.955c-.156.364-.006.7-.5.749s-1.248-.84-1.35-1.449a3.086,3.086,0,0,1,.256-1.653,107.677,107.677,0,0,1,5.557-9.6A22.926,22.926,0,0,1,313.3,366.658Z" transform="translate(-309.705 -350.411)" fill="#fff"/>
      <path id="Path_453" data-name="Path 453" d="M367.5,359.946c.079.766-2.411,4.044-3.551,6.136,6.609-6.141,6.5-6.091,6.606-6.18a1.27,1.27,0,0,1,.65-.454,2.081,2.081,0,0,1,2.1,1.566,1.268,1.268,0,0,1-.377.852c-1.183,1.671-2.559,4.485-2.365,6.363.032.307.155.371.193.367,2.138-.3,6.841-8.411,6.561-11.132a.687.687,0,0,0-.8-.653,1.792,1.792,0,0,1,1.42-.882,1.727,1.727,0,0,1,1.9,1.547c.351,3.411-5.665,11.931-8.961,12.27a3.408,3.408,0,0,1-.782-.074,2.259,2.259,0,0,1-1.383-2.143,10.668,10.668,0,0,1,1.8-6.226,36.848,36.848,0,0,0-7.189,7.285,9.3,9.3,0,0,0-1.045,1.889.349.349,0,0,1-.188.058,1.615,1.615,0,0,1-1.5-1.395,2.168,2.168,0,0,1,.265-1.189c1.672-3.7,4.285-8.032,4.19-8.951-.008-.077-.307-.356-.327-.547,0-.038.069-.085.146-.092C366.01,358.241,367.424,359.18,367.5,359.946Z" transform="translate(-342.914 -345.164)" fill="#fff"/>
      <path id="Path_454" data-name="Path 454" d="M426.194,334.383a2.657,2.657,0,0,1,2.524,1.948,1.719,1.719,0,0,1-.082.705,17.739,17.739,0,0,1-2.114,4.672c-1.449,2.473-4.569,6.4-7.75,6.723a1.892,1.892,0,0,1-2.1-1.565,1.488,1.488,0,0,1,.579-1.531c.115-.012.157.023.173.176a4.647,4.647,0,0,0-.036.778c.043.422.363.892.785.849,1.226-.126,2.752-1.484,3.981-3.082,1.711-2.19,4.067-6.771,3.916-8.226a9.546,9.546,0,0,0-2.793,1.837,48.833,48.833,0,0,0-6.921,8.381c-.542.753-.863,1.018-1.208,1.054-.8.083-.93-.756-.938-.833a3.215,3.215,0,0,1,.557-2.11,121.6,121.6,0,0,1,8.4-13.18c1.79-2.547,3.247-4.943,3.208-5.326a1.813,1.813,0,0,0-.128-.49.181.181,0,0,1,.172-.211,3.056,3.056,0,0,1,2.421,2.074c.079.766-.413,1.63-3.472,5.392a88.449,88.449,0,0,0-7.137,9.294C419.438,340.23,423.854,334.973,426.194,334.383Z" transform="translate(-377.912 -324.946)" fill="#fff"/>
      <path id="Path_455" data-name="Path 455" d="M467.247,350.718a.383.383,0,0,1-.152.4c-1.659,1.565-3.237,3.16-3.62,3.2-.032-.306.662-1.462,1.99-3.612a17.029,17.029,0,0,0-5.74,4.812c-1.031,1.268-2.141,3.28-2,4.659a1.068,1.068,0,0,0,1.226,1c1.636-.285,4.446-2.7,5.684-4.226a.456.456,0,0,1,.325-.227c.115-.012.161.061.177.214-.094.591-1.793,2.9-3.605,4.477a4.994,4.994,0,0,1-2.04,1.256c-1.686.174-3.432-1.738-3.582-3.194-.375-3.641,4.183-8.641,7.674-10.472a3.32,3.32,0,0,1,1.126-.348c.613-.063,1.685.95,2.347,1.733A.537.537,0,0,1,467.247,350.718Z" transform="translate(-405.128 -340.421)" fill="#fff"/>
    </g>
  </g>
</svg>
